%TF.GenerationSoftware,KiCad,Pcbnew,7.0.1*%
%TF.CreationDate,2023-07-22T00:41:28+01:00*%
%TF.ProjectId,pcb,7063622e-6b69-4636-9164-5f7063625858,rev?*%
%TF.SameCoordinates,Original*%
%TF.FileFunction,Copper,L2,Bot*%
%TF.FilePolarity,Positive*%
%FSLAX46Y46*%
G04 Gerber Fmt 4.6, Leading zero omitted, Abs format (unit mm)*
G04 Created by KiCad (PCBNEW 7.0.1) date 2023-07-22 00:41:28*
%MOMM*%
%LPD*%
G01*
G04 APERTURE LIST*
%TA.AperFunction,ComponentPad*%
%ADD10R,1.700000X1.700000*%
%TD*%
%TA.AperFunction,ComponentPad*%
%ADD11O,1.700000X1.700000*%
%TD*%
%TA.AperFunction,ViaPad*%
%ADD12C,0.800000*%
%TD*%
%TA.AperFunction,Conductor*%
%ADD13C,0.250000*%
%TD*%
%TA.AperFunction,Conductor*%
%ADD14C,0.500000*%
%TD*%
G04 APERTURE END LIST*
D10*
%TO.P,REF\u002A\u002A,1*%
%TO.N,N/C*%
X133985000Y-115570000D03*
D11*
%TO.P,REF\u002A\u002A,2*%
X131445000Y-115570000D03*
%TO.P,REF\u002A\u002A,3*%
X133985000Y-113030000D03*
%TO.P,REF\u002A\u002A,4*%
X131445000Y-113030000D03*
%TO.P,REF\u002A\u002A,5*%
X133985000Y-110490000D03*
%TO.P,REF\u002A\u002A,6*%
X131445000Y-110490000D03*
%TO.P,REF\u002A\u002A,7*%
X133985000Y-107950000D03*
%TO.P,REF\u002A\u002A,8*%
X131445000Y-107950000D03*
%TO.P,REF\u002A\u002A,9*%
X133985000Y-105410000D03*
%TO.P,REF\u002A\u002A,10*%
X131445000Y-105410000D03*
%TO.P,REF\u002A\u002A,11*%
X133985000Y-102870000D03*
%TO.P,REF\u002A\u002A,12*%
X131445000Y-102870000D03*
%TD*%
D12*
%TO.N,*%
X142875000Y-104775000D03*
X145415000Y-107950000D03*
X146050000Y-104140000D03*
X132461000Y-117856000D03*
X146050000Y-113284000D03*
X151130000Y-102108000D03*
X146050000Y-105410000D03*
X140970000Y-117602000D03*
X143510000Y-118110000D03*
X144145000Y-109855000D03*
X141287500Y-112331500D03*
%TD*%
D13*
%TO.N,*%
X136779000Y-117856000D02*
X132461000Y-117856000D01*
X141287500Y-113347500D02*
X136779000Y-117856000D01*
X141287500Y-112331500D02*
X141287500Y-113347500D01*
X144145000Y-109855000D02*
X135890000Y-109855000D01*
X145415000Y-107950000D02*
X135890000Y-107950000D01*
X151130000Y-102108000D02*
X151130000Y-103124000D01*
X136017000Y-104902000D02*
X133985000Y-102870000D01*
X130175000Y-99695000D02*
X129540000Y-100330000D01*
X144526000Y-113284000D02*
X141732000Y-110490000D01*
X148590000Y-99695000D02*
X130175000Y-99695000D01*
X130175000Y-107950000D02*
X131445000Y-107950000D01*
X142875000Y-104775000D02*
X145415000Y-104775000D01*
X146050000Y-113284000D02*
X144526000Y-113284000D01*
D14*
X141478000Y-118110000D02*
X140970000Y-117602000D01*
D13*
X134620000Y-106680000D02*
X132715000Y-106680000D01*
X149860000Y-100965000D02*
X148590000Y-99695000D01*
X135890000Y-109855000D02*
X133985000Y-107950000D01*
X145415000Y-104775000D02*
X146050000Y-104140000D01*
X129540000Y-107315000D02*
X130175000Y-107950000D01*
X146050000Y-105410000D02*
X147574000Y-105410000D01*
X151130000Y-103124000D02*
X148209000Y-106045000D01*
X147574000Y-105410000D02*
X149860000Y-103124000D01*
X148209000Y-106045000D02*
X136525000Y-106045000D01*
X136525000Y-106045000D02*
X136017000Y-105537000D01*
X129540000Y-100330000D02*
X129540000Y-107315000D01*
X132715000Y-106680000D02*
X131445000Y-105410000D01*
D14*
X143510000Y-118110000D02*
X141478000Y-118110000D01*
D13*
X149860000Y-103124000D02*
X149860000Y-100965000D01*
X136017000Y-105537000D02*
X136017000Y-104902000D01*
X135890000Y-107950000D02*
X134620000Y-106680000D01*
X141732000Y-110490000D02*
X133985000Y-110490000D01*
%TD*%
%TA.AperFunction,NonConductor*%
G36*
X153607500Y-97172113D02*
G01*
X153652887Y-97217500D01*
X153669500Y-97279500D01*
X153669500Y-120525500D01*
X153652887Y-120587500D01*
X153607500Y-120632887D01*
X153545500Y-120649500D01*
X128394500Y-120649500D01*
X128332500Y-120632887D01*
X128287113Y-120587500D01*
X128270500Y-120525500D01*
X128270500Y-100310194D01*
X128909840Y-100310194D01*
X128913950Y-100353675D01*
X128914500Y-100365344D01*
X128914500Y-107232256D01*
X128912235Y-107252762D01*
X128914439Y-107322873D01*
X128914500Y-107326768D01*
X128914500Y-107354349D01*
X128915003Y-107358334D01*
X128915918Y-107369967D01*
X128917290Y-107413626D01*
X128922879Y-107432860D01*
X128926825Y-107451916D01*
X128929335Y-107471792D01*
X128945414Y-107512404D01*
X128949197Y-107523451D01*
X128961382Y-107565391D01*
X128971580Y-107582635D01*
X128980136Y-107600100D01*
X128987514Y-107618732D01*
X128987515Y-107618733D01*
X129013180Y-107654059D01*
X129019593Y-107663822D01*
X129041826Y-107701416D01*
X129041829Y-107701419D01*
X129041830Y-107701420D01*
X129055995Y-107715585D01*
X129068627Y-107730375D01*
X129080406Y-107746587D01*
X129114058Y-107774426D01*
X129122699Y-107782289D01*
X129674197Y-108333787D01*
X129687098Y-108349889D01*
X129689212Y-108351874D01*
X129689214Y-108351877D01*
X129736561Y-108396339D01*
X129738240Y-108397916D01*
X129741036Y-108400626D01*
X129760530Y-108420120D01*
X129763704Y-108422582D01*
X129772568Y-108430153D01*
X129804418Y-108460062D01*
X129814914Y-108465832D01*
X129821974Y-108469714D01*
X129838231Y-108480392D01*
X129854064Y-108492674D01*
X129870185Y-108499649D01*
X129894156Y-108510023D01*
X129904643Y-108515160D01*
X129942908Y-108536197D01*
X129962316Y-108541180D01*
X129980710Y-108547478D01*
X129999105Y-108555438D01*
X130042254Y-108562271D01*
X130053680Y-108564638D01*
X130069222Y-108568629D01*
X130095980Y-108575500D01*
X130095981Y-108575500D01*
X130116016Y-108575500D01*
X130135413Y-108577026D01*
X130155196Y-108580160D01*
X130160618Y-108579647D01*
X130224301Y-108590530D01*
X130273864Y-108631970D01*
X130406505Y-108821401D01*
X130573599Y-108988495D01*
X130759160Y-109118426D01*
X130798024Y-109162743D01*
X130812035Y-109220000D01*
X130798024Y-109277257D01*
X130759159Y-109321575D01*
X130573595Y-109451508D01*
X130406505Y-109618598D01*
X130270965Y-109812170D01*
X130171097Y-110026336D01*
X130109936Y-110254592D01*
X130089340Y-110489999D01*
X130109936Y-110725407D01*
X130154709Y-110892501D01*
X130171097Y-110953663D01*
X130270965Y-111167830D01*
X130406505Y-111361401D01*
X130573599Y-111528495D01*
X130759160Y-111658426D01*
X130798024Y-111702743D01*
X130812035Y-111760000D01*
X130798024Y-111817257D01*
X130759160Y-111861574D01*
X130574408Y-111990939D01*
X130573595Y-111991508D01*
X130406505Y-112158598D01*
X130270965Y-112352170D01*
X130171097Y-112566336D01*
X130109936Y-112794592D01*
X130089340Y-113030000D01*
X130109936Y-113265407D01*
X130137240Y-113367305D01*
X130171097Y-113493663D01*
X130270965Y-113707830D01*
X130406505Y-113901401D01*
X130573599Y-114068495D01*
X130759160Y-114198426D01*
X130798024Y-114242743D01*
X130812035Y-114300000D01*
X130798024Y-114357257D01*
X130759159Y-114401575D01*
X130573595Y-114531508D01*
X130406505Y-114698598D01*
X130270965Y-114892170D01*
X130171097Y-115106336D01*
X130109936Y-115334592D01*
X130089340Y-115570000D01*
X130109936Y-115805407D01*
X130154709Y-115972501D01*
X130171097Y-116033663D01*
X130270965Y-116247830D01*
X130406505Y-116441401D01*
X130573599Y-116608495D01*
X130767170Y-116744035D01*
X130981337Y-116843903D01*
X131209592Y-116905063D01*
X131445000Y-116925659D01*
X131680408Y-116905063D01*
X131908663Y-116843903D01*
X132122830Y-116744035D01*
X132316401Y-116608495D01*
X132438329Y-116486566D01*
X132491072Y-116455273D01*
X132552365Y-116453084D01*
X132607209Y-116480537D01*
X132642189Y-116530916D01*
X132691205Y-116662333D01*
X132780052Y-116781018D01*
X132803240Y-116835813D01*
X132798233Y-116895102D01*
X132766184Y-116945233D01*
X132714473Y-116974664D01*
X132655005Y-116976618D01*
X132555649Y-116955500D01*
X132555646Y-116955500D01*
X132366354Y-116955500D01*
X132366352Y-116955500D01*
X132181197Y-116994855D01*
X132008269Y-117071848D01*
X131855129Y-117183110D01*
X131728466Y-117323783D01*
X131633820Y-117487715D01*
X131575326Y-117667742D01*
X131555540Y-117855999D01*
X131575326Y-118044257D01*
X131633820Y-118224284D01*
X131728466Y-118388216D01*
X131855129Y-118528889D01*
X132008269Y-118640151D01*
X132181197Y-118717144D01*
X132366352Y-118756500D01*
X132366354Y-118756500D01*
X132555646Y-118756500D01*
X132555648Y-118756500D01*
X132679084Y-118730262D01*
X132740803Y-118717144D01*
X132913730Y-118640151D01*
X133066871Y-118528888D01*
X133072598Y-118522526D01*
X133114312Y-118492220D01*
X133164747Y-118481500D01*
X136696256Y-118481500D01*
X136716762Y-118483764D01*
X136719665Y-118483672D01*
X136719667Y-118483673D01*
X136786872Y-118481561D01*
X136790768Y-118481500D01*
X136818349Y-118481500D01*
X136818350Y-118481500D01*
X136822319Y-118480998D01*
X136833965Y-118480080D01*
X136877627Y-118478709D01*
X136896859Y-118473120D01*
X136915918Y-118469174D01*
X136922196Y-118468381D01*
X136935792Y-118466664D01*
X136976407Y-118450582D01*
X136987444Y-118446803D01*
X137029390Y-118434618D01*
X137046629Y-118424422D01*
X137064102Y-118415862D01*
X137082732Y-118408486D01*
X137118064Y-118382814D01*
X137127830Y-118376400D01*
X137165418Y-118354171D01*
X137165417Y-118354171D01*
X137165420Y-118354170D01*
X137179585Y-118340004D01*
X137194373Y-118327373D01*
X137210587Y-118315594D01*
X137238438Y-118281926D01*
X137246279Y-118273309D01*
X137917589Y-117601999D01*
X140064540Y-117601999D01*
X140084326Y-117790257D01*
X140142820Y-117970284D01*
X140237466Y-118134216D01*
X140364129Y-118274889D01*
X140517269Y-118386151D01*
X140690193Y-118463143D01*
X140690196Y-118463143D01*
X140690197Y-118463144D01*
X140755330Y-118476987D01*
X140788716Y-118489304D01*
X140817230Y-118510597D01*
X140902268Y-118595635D01*
X140914044Y-118609260D01*
X140928390Y-118628530D01*
X140966355Y-118660386D01*
X140974317Y-118667684D01*
X140978224Y-118671591D01*
X141002537Y-118690815D01*
X141005337Y-118693096D01*
X141063754Y-118742115D01*
X141080165Y-118752569D01*
X141081319Y-118753107D01*
X141081323Y-118753110D01*
X141149328Y-118784821D01*
X141152451Y-118786333D01*
X141219567Y-118820040D01*
X141220704Y-118820611D01*
X141239084Y-118826998D01*
X141240321Y-118827253D01*
X141240327Y-118827256D01*
X141313862Y-118842439D01*
X141317209Y-118843181D01*
X141390279Y-118860500D01*
X141390281Y-118860500D01*
X141391505Y-118860790D01*
X141410876Y-118862769D01*
X141412140Y-118862732D01*
X141412144Y-118862733D01*
X141487110Y-118860552D01*
X141490716Y-118860500D01*
X142970663Y-118860500D01*
X143008982Y-118866569D01*
X143043550Y-118884183D01*
X143057271Y-118894152D01*
X143230197Y-118971144D01*
X143415352Y-119010500D01*
X143415354Y-119010500D01*
X143604646Y-119010500D01*
X143604648Y-119010500D01*
X143728083Y-118984262D01*
X143789803Y-118971144D01*
X143962730Y-118894151D01*
X144033936Y-118842417D01*
X144115870Y-118782889D01*
X144242533Y-118642216D01*
X144337179Y-118478284D01*
X144346878Y-118448433D01*
X144395674Y-118298256D01*
X144415460Y-118110000D01*
X144395674Y-117921744D01*
X144337179Y-117741716D01*
X144337179Y-117741715D01*
X144242533Y-117577783D01*
X144115870Y-117437110D01*
X143962730Y-117325848D01*
X143789802Y-117248855D01*
X143604648Y-117209500D01*
X143604646Y-117209500D01*
X143415354Y-117209500D01*
X143415352Y-117209500D01*
X143230197Y-117248855D01*
X143057271Y-117325847D01*
X143043550Y-117335817D01*
X143008982Y-117353431D01*
X142970663Y-117359500D01*
X141928140Y-117359500D01*
X141877704Y-117348780D01*
X141835990Y-117318472D01*
X141810209Y-117273817D01*
X141797179Y-117233716D01*
X141702533Y-117069783D01*
X141575870Y-116929110D01*
X141422730Y-116817848D01*
X141249802Y-116740855D01*
X141064648Y-116701500D01*
X141064646Y-116701500D01*
X140875354Y-116701500D01*
X140875352Y-116701500D01*
X140690197Y-116740855D01*
X140517269Y-116817848D01*
X140364129Y-116929110D01*
X140237466Y-117069783D01*
X140142820Y-117233715D01*
X140084326Y-117413742D01*
X140064540Y-117601999D01*
X137917589Y-117601999D01*
X141671289Y-113848300D01*
X141687385Y-113835406D01*
X141689373Y-113833287D01*
X141689377Y-113833286D01*
X141735448Y-113784223D01*
X141738066Y-113781523D01*
X141757620Y-113761971D01*
X141760081Y-113758798D01*
X141767656Y-113749927D01*
X141797562Y-113718082D01*
X141807212Y-113700527D01*
X141817900Y-113684257D01*
X141830173Y-113668436D01*
X141847526Y-113628332D01*
X141852657Y-113617862D01*
X141873697Y-113579592D01*
X141878675Y-113560199D01*
X141884981Y-113541782D01*
X141886518Y-113538228D01*
X141892938Y-113523396D01*
X141899772Y-113480245D01*
X141902135Y-113468831D01*
X141913000Y-113426519D01*
X141913000Y-113406484D01*
X141914527Y-113387085D01*
X141917660Y-113367304D01*
X141913550Y-113323825D01*
X141913000Y-113312156D01*
X141913000Y-113030187D01*
X141921236Y-112985749D01*
X141944847Y-112947217D01*
X142020033Y-112863716D01*
X142084658Y-112751783D01*
X142114679Y-112699784D01*
X142143491Y-112611110D01*
X142173174Y-112519756D01*
X142192960Y-112331500D01*
X142173174Y-112143244D01*
X142173172Y-112143240D01*
X142171811Y-112130282D01*
X142174250Y-112130025D01*
X142172077Y-112084001D01*
X142202696Y-112026164D01*
X142258494Y-111991969D01*
X142323928Y-111990939D01*
X142380773Y-112023363D01*
X144025197Y-113667787D01*
X144038098Y-113683889D01*
X144040212Y-113685874D01*
X144040214Y-113685877D01*
X144087561Y-113730339D01*
X144089240Y-113731916D01*
X144092035Y-113734625D01*
X144111530Y-113754120D01*
X144114704Y-113756582D01*
X144123568Y-113764153D01*
X144155418Y-113794062D01*
X144165914Y-113799832D01*
X144172974Y-113803714D01*
X144189231Y-113814392D01*
X144205064Y-113826674D01*
X144220344Y-113833286D01*
X144245156Y-113844023D01*
X144255643Y-113849160D01*
X144293908Y-113870197D01*
X144313316Y-113875180D01*
X144331710Y-113881478D01*
X144350105Y-113889438D01*
X144393254Y-113896271D01*
X144404680Y-113898638D01*
X144415436Y-113901400D01*
X144446980Y-113909500D01*
X144446981Y-113909500D01*
X144467016Y-113909500D01*
X144486413Y-113911026D01*
X144506196Y-113914160D01*
X144549674Y-113910050D01*
X144561344Y-113909500D01*
X145346253Y-113909500D01*
X145396688Y-113920220D01*
X145438401Y-113950526D01*
X145444129Y-113956888D01*
X145597270Y-114068151D01*
X145597271Y-114068151D01*
X145597272Y-114068152D01*
X145770197Y-114145144D01*
X145955352Y-114184500D01*
X145955354Y-114184500D01*
X146144646Y-114184500D01*
X146144648Y-114184500D01*
X146268084Y-114158262D01*
X146329803Y-114145144D01*
X146502730Y-114068151D01*
X146655871Y-113956888D01*
X146782533Y-113816216D01*
X146877179Y-113652284D01*
X146935674Y-113472256D01*
X146955460Y-113284000D01*
X146935674Y-113095744D01*
X146898907Y-112982588D01*
X146877179Y-112915715D01*
X146782533Y-112751783D01*
X146655870Y-112611110D01*
X146502730Y-112499848D01*
X146329802Y-112422855D01*
X146144648Y-112383500D01*
X146144646Y-112383500D01*
X145955354Y-112383500D01*
X145955352Y-112383500D01*
X145770197Y-112422855D01*
X145597272Y-112499847D01*
X145517277Y-112557967D01*
X145444129Y-112611112D01*
X145438401Y-112617473D01*
X145396688Y-112647780D01*
X145346253Y-112658500D01*
X144836452Y-112658500D01*
X144788999Y-112649061D01*
X144748771Y-112622181D01*
X142818772Y-110692181D01*
X142788522Y-110642818D01*
X142783980Y-110585102D01*
X142806135Y-110531615D01*
X142850158Y-110494015D01*
X142906453Y-110480500D01*
X143441253Y-110480500D01*
X143491688Y-110491220D01*
X143533401Y-110521526D01*
X143539129Y-110527888D01*
X143692270Y-110639151D01*
X143692271Y-110639151D01*
X143692272Y-110639152D01*
X143865197Y-110716144D01*
X144050352Y-110755500D01*
X144050354Y-110755500D01*
X144239646Y-110755500D01*
X144239648Y-110755500D01*
X144381219Y-110725408D01*
X144424803Y-110716144D01*
X144597730Y-110639151D01*
X144597729Y-110639151D01*
X144750870Y-110527889D01*
X144756598Y-110521528D01*
X144877533Y-110387216D01*
X144972179Y-110223284D01*
X145030674Y-110043256D01*
X145050460Y-109855000D01*
X145030674Y-109666744D01*
X144972179Y-109486716D01*
X144972179Y-109486715D01*
X144877533Y-109322783D01*
X144750870Y-109182110D01*
X144597730Y-109070848D01*
X144424802Y-108993855D01*
X144239648Y-108954500D01*
X144239646Y-108954500D01*
X144050354Y-108954500D01*
X144050352Y-108954500D01*
X143865197Y-108993855D01*
X143692272Y-109070847D01*
X143626787Y-109118425D01*
X143539129Y-109182112D01*
X143533401Y-109188473D01*
X143491688Y-109218780D01*
X143441253Y-109229500D01*
X136200452Y-109229500D01*
X136152999Y-109220061D01*
X136112771Y-109193181D01*
X135706472Y-108786882D01*
X135674444Y-108731538D01*
X135674249Y-108667594D01*
X135705939Y-108612056D01*
X135761087Y-108579691D01*
X135795316Y-108579378D01*
X135795316Y-108575500D01*
X135810981Y-108575500D01*
X135831016Y-108575500D01*
X135850415Y-108577027D01*
X135870196Y-108580160D01*
X135913674Y-108576050D01*
X135925344Y-108575500D01*
X144711253Y-108575500D01*
X144761688Y-108586220D01*
X144803401Y-108616526D01*
X144809129Y-108622888D01*
X144962270Y-108734151D01*
X144962271Y-108734151D01*
X144962272Y-108734152D01*
X145135197Y-108811144D01*
X145320352Y-108850500D01*
X145320354Y-108850500D01*
X145509646Y-108850500D01*
X145509648Y-108850500D01*
X145646547Y-108821401D01*
X145694803Y-108811144D01*
X145867730Y-108734151D01*
X146020871Y-108622888D01*
X146147533Y-108482216D01*
X146242179Y-108318284D01*
X146300674Y-108138256D01*
X146320460Y-107950000D01*
X146300674Y-107761744D01*
X146242179Y-107581716D01*
X146242179Y-107581715D01*
X146147533Y-107417783D01*
X146020870Y-107277110D01*
X145867730Y-107165848D01*
X145694802Y-107088855D01*
X145509648Y-107049500D01*
X145509646Y-107049500D01*
X145320354Y-107049500D01*
X145320352Y-107049500D01*
X145135197Y-107088855D01*
X144962272Y-107165847D01*
X144870868Y-107232256D01*
X144809129Y-107277112D01*
X144803401Y-107283473D01*
X144761688Y-107313780D01*
X144711253Y-107324500D01*
X136200453Y-107324500D01*
X136153000Y-107315061D01*
X136112772Y-107288181D01*
X135131043Y-106306452D01*
X135101018Y-106257774D01*
X135096033Y-106200799D01*
X135117150Y-106147647D01*
X135159035Y-106087830D01*
X135258903Y-105873663D01*
X135258904Y-105873659D01*
X135259667Y-105872023D01*
X135300483Y-105823164D01*
X135360163Y-105800998D01*
X135422977Y-105811368D01*
X135472366Y-105851541D01*
X135490179Y-105876058D01*
X135496593Y-105885822D01*
X135518826Y-105923416D01*
X135518829Y-105923419D01*
X135518830Y-105923420D01*
X135532995Y-105937585D01*
X135545627Y-105952375D01*
X135557406Y-105968587D01*
X135591058Y-105996426D01*
X135599699Y-106004289D01*
X136024194Y-106428784D01*
X136037094Y-106444886D01*
X136088223Y-106492900D01*
X136091020Y-106495611D01*
X136110529Y-106515120D01*
X136113711Y-106517588D01*
X136122571Y-106525155D01*
X136154417Y-106555061D01*
X136154418Y-106555062D01*
X136171970Y-106564711D01*
X136188238Y-106575397D01*
X136204064Y-106587673D01*
X136244146Y-106605017D01*
X136254633Y-106610155D01*
X136292907Y-106631197D01*
X136301410Y-106633379D01*
X136312308Y-106636178D01*
X136330713Y-106642478D01*
X136349104Y-106650437D01*
X136392250Y-106657270D01*
X136403668Y-106659635D01*
X136445981Y-106670500D01*
X136466017Y-106670500D01*
X136485414Y-106672026D01*
X136505196Y-106675160D01*
X136545720Y-106671328D01*
X136548672Y-106671050D01*
X136560342Y-106670500D01*
X148126256Y-106670500D01*
X148146762Y-106672764D01*
X148149665Y-106672672D01*
X148149667Y-106672673D01*
X148216872Y-106670561D01*
X148220768Y-106670500D01*
X148248349Y-106670500D01*
X148248350Y-106670500D01*
X148252319Y-106669998D01*
X148263965Y-106669080D01*
X148307627Y-106667709D01*
X148326859Y-106662120D01*
X148345918Y-106658174D01*
X148353099Y-106657267D01*
X148365792Y-106655664D01*
X148406407Y-106639582D01*
X148417444Y-106635803D01*
X148459390Y-106623618D01*
X148476629Y-106613422D01*
X148494102Y-106604862D01*
X148512732Y-106597486D01*
X148548064Y-106571814D01*
X148557830Y-106565400D01*
X148595418Y-106543171D01*
X148595417Y-106543171D01*
X148595420Y-106543170D01*
X148609585Y-106529004D01*
X148624374Y-106516372D01*
X148640587Y-106504594D01*
X148668449Y-106470914D01*
X148676279Y-106462310D01*
X151513789Y-103624800D01*
X151529885Y-103611906D01*
X151531873Y-103609787D01*
X151531877Y-103609786D01*
X151577948Y-103560723D01*
X151580566Y-103558023D01*
X151600120Y-103538471D01*
X151602581Y-103535298D01*
X151610156Y-103526427D01*
X151640062Y-103494582D01*
X151649712Y-103477027D01*
X151660400Y-103460757D01*
X151672671Y-103444938D01*
X151672673Y-103444936D01*
X151690026Y-103404832D01*
X151695157Y-103394362D01*
X151716197Y-103356092D01*
X151721175Y-103336699D01*
X151727481Y-103318282D01*
X151729865Y-103312774D01*
X151735438Y-103299896D01*
X151742272Y-103256745D01*
X151744635Y-103245331D01*
X151755500Y-103203019D01*
X151755500Y-103182984D01*
X151757027Y-103163585D01*
X151760160Y-103143804D01*
X151756050Y-103100325D01*
X151755500Y-103088656D01*
X151755500Y-102806687D01*
X151763736Y-102762249D01*
X151787347Y-102723717D01*
X151862533Y-102640216D01*
X151957179Y-102476284D01*
X152015674Y-102296256D01*
X152035460Y-102108000D01*
X152015674Y-101919744D01*
X151957179Y-101739716D01*
X151957179Y-101739715D01*
X151862533Y-101575783D01*
X151735870Y-101435110D01*
X151582730Y-101323848D01*
X151409802Y-101246855D01*
X151224648Y-101207500D01*
X151224646Y-101207500D01*
X151035354Y-101207500D01*
X151035352Y-101207500D01*
X150850197Y-101246855D01*
X150665364Y-101329149D01*
X150664316Y-101326796D01*
X150619233Y-101343431D01*
X150553207Y-101330300D01*
X150503773Y-101284605D01*
X150485500Y-101219814D01*
X150485500Y-101047740D01*
X150487763Y-101027236D01*
X150485561Y-100957144D01*
X150485500Y-100953250D01*
X150485500Y-100925657D01*
X150485500Y-100925650D01*
X150484995Y-100921653D01*
X150484080Y-100910023D01*
X150482709Y-100866373D01*
X150477120Y-100847140D01*
X150473174Y-100828082D01*
X150470664Y-100808208D01*
X150454588Y-100767606D01*
X150450804Y-100756552D01*
X150438619Y-100714613D01*
X150438618Y-100714612D01*
X150438618Y-100714610D01*
X150428417Y-100697361D01*
X150419860Y-100679895D01*
X150412486Y-100661268D01*
X150386813Y-100625932D01*
X150380402Y-100616172D01*
X150358169Y-100578578D01*
X150344006Y-100564415D01*
X150331369Y-100549620D01*
X150319595Y-100533414D01*
X150319594Y-100533413D01*
X150285935Y-100505568D01*
X150277305Y-100497714D01*
X149090802Y-99311211D01*
X149077906Y-99295113D01*
X149026775Y-99247098D01*
X149023978Y-99244387D01*
X149004470Y-99224879D01*
X149001290Y-99222412D01*
X148992424Y-99214839D01*
X148960582Y-99184938D01*
X148943024Y-99175285D01*
X148926764Y-99164604D01*
X148910936Y-99152327D01*
X148870851Y-99134980D01*
X148860361Y-99129841D01*
X148822091Y-99108802D01*
X148802691Y-99103821D01*
X148784284Y-99097519D01*
X148765897Y-99089562D01*
X148722758Y-99082729D01*
X148711324Y-99080361D01*
X148669019Y-99069500D01*
X148648984Y-99069500D01*
X148629586Y-99067973D01*
X148622162Y-99066797D01*
X148609805Y-99064840D01*
X148609804Y-99064840D01*
X148584468Y-99067235D01*
X148566325Y-99068950D01*
X148554656Y-99069500D01*
X130257744Y-99069500D01*
X130237236Y-99067235D01*
X130167113Y-99069439D01*
X130163219Y-99069500D01*
X130135650Y-99069500D01*
X130131671Y-99070002D01*
X130120041Y-99070917D01*
X130076372Y-99072289D01*
X130057128Y-99077880D01*
X130038084Y-99081824D01*
X130018208Y-99084335D01*
X129977600Y-99100413D01*
X129966554Y-99104194D01*
X129924610Y-99116382D01*
X129924607Y-99116383D01*
X129907365Y-99126579D01*
X129889904Y-99135133D01*
X129871267Y-99142512D01*
X129835931Y-99168185D01*
X129826174Y-99174595D01*
X129788580Y-99196829D01*
X129774413Y-99210996D01*
X129759624Y-99223626D01*
X129743413Y-99235404D01*
X129715572Y-99269058D01*
X129707711Y-99277697D01*
X129156208Y-99829199D01*
X129140110Y-99842096D01*
X129092096Y-99893225D01*
X129089391Y-99896017D01*
X129069874Y-99915534D01*
X129067415Y-99918705D01*
X129059842Y-99927572D01*
X129029935Y-99959420D01*
X129020285Y-99976974D01*
X129009609Y-99993228D01*
X128997326Y-100009063D01*
X128979975Y-100049158D01*
X128974838Y-100059644D01*
X128953802Y-100097907D01*
X128948821Y-100117309D01*
X128942520Y-100135711D01*
X128934561Y-100154102D01*
X128927728Y-100197242D01*
X128925360Y-100208674D01*
X128914500Y-100250978D01*
X128914500Y-100271016D01*
X128912973Y-100290415D01*
X128909840Y-100310194D01*
X128270500Y-100310194D01*
X128270500Y-97279500D01*
X128287113Y-97217500D01*
X128332500Y-97172113D01*
X128394500Y-97155500D01*
X153545500Y-97155500D01*
X153607500Y-97172113D01*
G37*
%TD.AperFunction*%
%TA.AperFunction,NonConductor*%
G36*
X130343858Y-103679037D02*
G01*
X130391073Y-103719362D01*
X130406505Y-103741401D01*
X130573599Y-103908495D01*
X130759160Y-104038426D01*
X130798024Y-104082743D01*
X130812035Y-104140000D01*
X130798024Y-104197257D01*
X130759159Y-104241575D01*
X130573595Y-104371508D01*
X130406506Y-104538597D01*
X130406505Y-104538599D01*
X130392779Y-104558203D01*
X130391075Y-104560636D01*
X130343858Y-104600963D01*
X130283011Y-104613343D01*
X130223790Y-104594671D01*
X130181047Y-104549629D01*
X130165500Y-104489513D01*
X130165500Y-103790487D01*
X130181047Y-103730371D01*
X130223790Y-103685329D01*
X130283011Y-103666657D01*
X130343858Y-103679037D01*
G37*
%TD.AperFunction*%
%TA.AperFunction,NonConductor*%
G36*
X132772257Y-103516975D02*
G01*
X132816573Y-103555839D01*
X132946505Y-103741401D01*
X133113599Y-103908495D01*
X133299160Y-104038426D01*
X133338024Y-104082743D01*
X133352035Y-104140000D01*
X133338024Y-104197257D01*
X133299159Y-104241575D01*
X133113595Y-104371508D01*
X132946508Y-104538595D01*
X132946507Y-104538597D01*
X132946505Y-104538599D01*
X132904724Y-104598269D01*
X132816574Y-104724160D01*
X132772255Y-104763026D01*
X132714999Y-104777036D01*
X132657742Y-104763025D01*
X132613426Y-104724161D01*
X132483495Y-104538599D01*
X132316401Y-104371505D01*
X132130839Y-104241573D01*
X132091975Y-104197257D01*
X132077964Y-104140000D01*
X132091975Y-104082743D01*
X132130839Y-104038426D01*
X132316401Y-103908495D01*
X132483495Y-103741401D01*
X132613426Y-103555839D01*
X132657743Y-103516975D01*
X132715000Y-103502964D01*
X132772257Y-103516975D01*
G37*
%TD.AperFunction*%
%TA.AperFunction,NonConductor*%
G36*
X148327001Y-100329939D02*
G01*
X148367229Y-100356819D01*
X149198181Y-101187772D01*
X149225061Y-101228000D01*
X149234500Y-101275453D01*
X149234500Y-102813547D01*
X149225061Y-102861000D01*
X149198181Y-102901228D01*
X147351228Y-104748181D01*
X147311000Y-104775061D01*
X147263547Y-104784500D01*
X146932480Y-104784500D01*
X146870480Y-104767887D01*
X146825093Y-104722500D01*
X146808480Y-104660500D01*
X146825093Y-104598500D01*
X146877179Y-104508284D01*
X146898530Y-104442573D01*
X146935674Y-104328256D01*
X146955460Y-104140000D01*
X146935674Y-103951744D01*
X146877179Y-103771716D01*
X146877179Y-103771715D01*
X146782533Y-103607783D01*
X146655870Y-103467110D01*
X146502730Y-103355848D01*
X146329802Y-103278855D01*
X146144648Y-103239500D01*
X146144646Y-103239500D01*
X145955354Y-103239500D01*
X145955352Y-103239500D01*
X145770197Y-103278855D01*
X145597269Y-103355848D01*
X145444129Y-103467110D01*
X145317466Y-103607783D01*
X145222820Y-103771715D01*
X145164326Y-103951742D01*
X145155212Y-104038462D01*
X145134692Y-104094840D01*
X145090105Y-104134986D01*
X145031891Y-104149500D01*
X143578747Y-104149500D01*
X143528312Y-104138780D01*
X143486598Y-104108473D01*
X143480871Y-104102112D01*
X143327730Y-103990849D01*
X143327729Y-103990848D01*
X143327727Y-103990847D01*
X143154802Y-103913855D01*
X142969648Y-103874500D01*
X142969646Y-103874500D01*
X142780354Y-103874500D01*
X142780352Y-103874500D01*
X142595197Y-103913855D01*
X142422269Y-103990848D01*
X142269129Y-104102110D01*
X142142466Y-104242783D01*
X142047820Y-104406715D01*
X141989326Y-104586742D01*
X141969540Y-104775000D01*
X141989326Y-104963257D01*
X142047820Y-105143284D01*
X142099907Y-105233500D01*
X142116520Y-105295500D01*
X142099907Y-105357500D01*
X142054520Y-105402887D01*
X141992520Y-105419500D01*
X136835453Y-105419500D01*
X136788000Y-105410061D01*
X136747772Y-105383181D01*
X136678819Y-105314228D01*
X136651939Y-105274000D01*
X136642500Y-105226547D01*
X136642500Y-104984744D01*
X136644764Y-104964237D01*
X136642561Y-104894127D01*
X136642500Y-104890232D01*
X136642500Y-104862653D01*
X136641997Y-104858672D01*
X136641080Y-104847019D01*
X136639709Y-104803373D01*
X136634120Y-104784140D01*
X136630174Y-104765082D01*
X136627664Y-104745206D01*
X136611588Y-104704604D01*
X136607804Y-104693553D01*
X136601605Y-104672216D01*
X136595618Y-104651610D01*
X136585414Y-104634355D01*
X136576861Y-104616895D01*
X136570553Y-104600963D01*
X136569486Y-104598268D01*
X136543808Y-104562925D01*
X136537401Y-104553171D01*
X136515169Y-104515579D01*
X136501006Y-104501416D01*
X136488367Y-104486617D01*
X136476595Y-104470413D01*
X136442941Y-104442573D01*
X136434299Y-104434709D01*
X135325237Y-103325647D01*
X135293143Y-103270059D01*
X135293143Y-103205872D01*
X135320063Y-103105408D01*
X135340659Y-102870000D01*
X135320063Y-102634592D01*
X135258903Y-102406337D01*
X135159035Y-102192171D01*
X135023495Y-101998599D01*
X134856401Y-101831505D01*
X134662830Y-101695965D01*
X134448663Y-101596097D01*
X134372849Y-101575783D01*
X134220407Y-101534936D01*
X133985000Y-101514340D01*
X133749592Y-101534936D01*
X133521336Y-101596097D01*
X133307170Y-101695965D01*
X133113598Y-101831505D01*
X132946505Y-101998598D01*
X132816575Y-102184159D01*
X132772257Y-102223025D01*
X132715000Y-102237036D01*
X132657743Y-102223025D01*
X132613425Y-102184159D01*
X132535831Y-102073343D01*
X132483495Y-101998599D01*
X132316401Y-101831505D01*
X132122830Y-101695965D01*
X131908663Y-101596097D01*
X131832849Y-101575783D01*
X131680407Y-101534936D01*
X131445000Y-101514340D01*
X131209592Y-101534936D01*
X130981336Y-101596097D01*
X130767170Y-101695965D01*
X130573598Y-101831505D01*
X130406506Y-101998597D01*
X130391075Y-102020636D01*
X130343858Y-102060963D01*
X130283011Y-102073343D01*
X130223790Y-102054671D01*
X130181047Y-102009629D01*
X130165500Y-101949513D01*
X130165500Y-100640452D01*
X130174939Y-100592999D01*
X130201819Y-100552771D01*
X130397771Y-100356819D01*
X130437999Y-100329939D01*
X130485452Y-100320500D01*
X148279548Y-100320500D01*
X148327001Y-100329939D01*
G37*
%TD.AperFunction*%
%TA.AperFunction,NonConductor*%
G36*
X130343858Y-106219037D02*
G01*
X130391073Y-106259362D01*
X130406505Y-106281401D01*
X130573599Y-106448495D01*
X130759160Y-106578426D01*
X130798024Y-106622743D01*
X130812035Y-106680000D01*
X130798024Y-106737257D01*
X130759159Y-106781575D01*
X130573595Y-106911508D01*
X130406504Y-107078599D01*
X130401352Y-107085957D01*
X130361775Y-107122218D01*
X130310582Y-107138357D01*
X130257365Y-107131348D01*
X130212096Y-107102506D01*
X130201814Y-107092223D01*
X130174938Y-107051996D01*
X130165500Y-107004546D01*
X130165500Y-106330487D01*
X130181047Y-106270371D01*
X130223790Y-106225329D01*
X130283011Y-106206657D01*
X130343858Y-106219037D01*
G37*
%TD.AperFunction*%
%TA.AperFunction,NonConductor*%
G36*
X132772257Y-108596975D02*
G01*
X132816573Y-108635839D01*
X132946505Y-108821401D01*
X133113599Y-108988495D01*
X133299160Y-109118426D01*
X133338024Y-109162743D01*
X133352035Y-109220000D01*
X133338024Y-109277257D01*
X133299159Y-109321575D01*
X133113595Y-109451508D01*
X132946505Y-109618598D01*
X132816575Y-109804159D01*
X132772257Y-109843025D01*
X132715000Y-109857036D01*
X132657743Y-109843025D01*
X132613425Y-109804159D01*
X132483494Y-109618598D01*
X132316401Y-109451505D01*
X132316400Y-109451504D01*
X132130839Y-109321573D01*
X132091975Y-109277257D01*
X132077964Y-109220000D01*
X132091975Y-109162743D01*
X132130839Y-109118426D01*
X132316401Y-108988495D01*
X132483495Y-108821401D01*
X132613426Y-108635839D01*
X132657743Y-108596975D01*
X132715000Y-108582964D01*
X132772257Y-108596975D01*
G37*
%TD.AperFunction*%
%TA.AperFunction,NonConductor*%
G36*
X132772257Y-111136975D02*
G01*
X132816573Y-111175839D01*
X132946505Y-111361401D01*
X133113599Y-111528495D01*
X133299160Y-111658426D01*
X133338024Y-111702743D01*
X133352035Y-111760000D01*
X133338024Y-111817257D01*
X133299160Y-111861574D01*
X133114408Y-111990939D01*
X133113595Y-111991508D01*
X132946505Y-112158598D01*
X132816575Y-112344159D01*
X132772257Y-112383025D01*
X132715000Y-112397036D01*
X132657743Y-112383025D01*
X132613425Y-112344159D01*
X132483494Y-112158598D01*
X132316404Y-111991508D01*
X132316403Y-111991507D01*
X132316401Y-111991505D01*
X132130839Y-111861573D01*
X132091974Y-111817255D01*
X132077964Y-111759999D01*
X132091975Y-111702742D01*
X132130837Y-111658428D01*
X132316401Y-111528495D01*
X132483495Y-111361401D01*
X132613426Y-111175839D01*
X132657743Y-111136975D01*
X132715000Y-111122964D01*
X132772257Y-111136975D01*
G37*
%TD.AperFunction*%
%TA.AperFunction,NonConductor*%
G36*
X132772255Y-113676974D02*
G01*
X132816573Y-113715839D01*
X132946505Y-113901401D01*
X132946508Y-113901404D01*
X133068430Y-114023326D01*
X133099726Y-114076072D01*
X133101915Y-114137365D01*
X133074462Y-114192209D01*
X133024083Y-114227189D01*
X132892669Y-114276204D01*
X132777454Y-114362454D01*
X132691204Y-114477669D01*
X132642189Y-114609083D01*
X132607209Y-114659462D01*
X132552365Y-114686915D01*
X132491072Y-114684726D01*
X132438326Y-114653430D01*
X132316404Y-114531508D01*
X132316401Y-114531505D01*
X132130839Y-114401573D01*
X132091976Y-114357257D01*
X132077965Y-114300000D01*
X132091976Y-114242743D01*
X132130839Y-114198426D01*
X132316401Y-114068495D01*
X132483495Y-113901401D01*
X132613428Y-113715837D01*
X132657742Y-113676975D01*
X132714999Y-113662964D01*
X132772255Y-113676974D01*
G37*
%TD.AperFunction*%
%TA.AperFunction,NonConductor*%
G36*
X141469001Y-111124939D02*
G01*
X141509229Y-111151819D01*
X141602066Y-111244656D01*
X141633817Y-111298991D01*
X141634806Y-111361915D01*
X141604778Y-111417220D01*
X141551467Y-111450663D01*
X141488605Y-111453628D01*
X141439335Y-111443155D01*
X141382146Y-111431000D01*
X141192854Y-111431000D01*
X141192852Y-111431000D01*
X141007697Y-111470355D01*
X140834769Y-111547348D01*
X140681629Y-111658610D01*
X140554966Y-111799283D01*
X140460320Y-111963215D01*
X140401826Y-112143242D01*
X140401825Y-112143244D01*
X140401826Y-112143244D01*
X140382040Y-112331500D01*
X140384213Y-112352171D01*
X140401826Y-112519757D01*
X140460320Y-112699784D01*
X140554964Y-112863713D01*
X140554967Y-112863716D01*
X140630152Y-112947217D01*
X140653764Y-112985749D01*
X140662000Y-113030187D01*
X140662000Y-113037048D01*
X140652561Y-113084501D01*
X140625681Y-113124729D01*
X136556228Y-117194181D01*
X136516000Y-117221061D01*
X136468547Y-117230500D01*
X133164747Y-117230500D01*
X133114312Y-117219780D01*
X133072598Y-117189473D01*
X133066871Y-117183112D01*
X133014161Y-117144816D01*
X132974849Y-117097295D01*
X132963293Y-117036712D01*
X132982352Y-116978056D01*
X133027311Y-116935837D01*
X133087048Y-116920499D01*
X133087118Y-116920499D01*
X133087127Y-116920500D01*
X134882872Y-116920499D01*
X134942483Y-116914091D01*
X135077331Y-116863796D01*
X135192546Y-116777546D01*
X135278796Y-116662331D01*
X135329091Y-116527483D01*
X135335500Y-116467873D01*
X135335499Y-114672128D01*
X135329091Y-114612517D01*
X135278796Y-114477669D01*
X135192546Y-114362454D01*
X135077331Y-114276204D01*
X135015898Y-114253291D01*
X134945916Y-114227189D01*
X134895537Y-114192209D01*
X134868084Y-114137365D01*
X134870273Y-114076072D01*
X134901566Y-114023329D01*
X135023495Y-113901401D01*
X135159035Y-113707830D01*
X135258903Y-113493663D01*
X135320063Y-113265408D01*
X135340659Y-113030000D01*
X135336787Y-112985749D01*
X135320063Y-112794592D01*
X135308593Y-112751784D01*
X135258903Y-112566337D01*
X135159035Y-112352171D01*
X135023495Y-112158599D01*
X134856401Y-111991505D01*
X134670839Y-111861573D01*
X134631974Y-111817255D01*
X134617964Y-111759999D01*
X134631975Y-111702742D01*
X134670837Y-111658428D01*
X134856401Y-111528495D01*
X135023495Y-111361401D01*
X135158653Y-111168374D01*
X135202970Y-111129511D01*
X135260227Y-111115500D01*
X141421548Y-111115500D01*
X141469001Y-111124939D01*
G37*
%TD.AperFunction*%
M02*
