%TF.GenerationSoftware,KiCad,Pcbnew,7.0.1*%
%TF.CreationDate,2023-07-22T00:41:28+01:00*%
%TF.ProjectId,pcb,7063622e-6b69-4636-9164-5f7063625858,rev?*%
%TF.SameCoordinates,Original*%
%TF.FileFunction,Legend,Bot*%
%TF.FilePolarity,Positive*%
%FSLAX46Y46*%
G04 Gerber Fmt 4.6, Leading zero omitted, Abs format (unit mm)*
G04 Created by KiCad (PCBNEW 7.0.1) date 2023-07-22 00:41:28*
%MOMM*%
%LPD*%
G01*
G04 APERTURE LIST*
%ADD10C,0.200000*%
%ADD11C,0.150000*%
G04 APERTURE END LIST*
D10*
X148986904Y-98937619D02*
X148986904Y-97937619D01*
X148986904Y-97937619D02*
X148748809Y-97937619D01*
X148748809Y-97937619D02*
X148605952Y-97985238D01*
X148605952Y-97985238D02*
X148510714Y-98080476D01*
X148510714Y-98080476D02*
X148463095Y-98175714D01*
X148463095Y-98175714D02*
X148415476Y-98366190D01*
X148415476Y-98366190D02*
X148415476Y-98509047D01*
X148415476Y-98509047D02*
X148463095Y-98699523D01*
X148463095Y-98699523D02*
X148510714Y-98794761D01*
X148510714Y-98794761D02*
X148605952Y-98890000D01*
X148605952Y-98890000D02*
X148748809Y-98937619D01*
X148748809Y-98937619D02*
X148986904Y-98937619D01*
X147986904Y-98413809D02*
X147653571Y-98413809D01*
X147510714Y-98937619D02*
X147986904Y-98937619D01*
X147986904Y-98937619D02*
X147986904Y-97937619D01*
X147986904Y-97937619D02*
X147510714Y-97937619D01*
X147129761Y-98890000D02*
X146986904Y-98937619D01*
X146986904Y-98937619D02*
X146748809Y-98937619D01*
X146748809Y-98937619D02*
X146653571Y-98890000D01*
X146653571Y-98890000D02*
X146605952Y-98842380D01*
X146605952Y-98842380D02*
X146558333Y-98747142D01*
X146558333Y-98747142D02*
X146558333Y-98651904D01*
X146558333Y-98651904D02*
X146605952Y-98556666D01*
X146605952Y-98556666D02*
X146653571Y-98509047D01*
X146653571Y-98509047D02*
X146748809Y-98461428D01*
X146748809Y-98461428D02*
X146939285Y-98413809D01*
X146939285Y-98413809D02*
X147034523Y-98366190D01*
X147034523Y-98366190D02*
X147082142Y-98318571D01*
X147082142Y-98318571D02*
X147129761Y-98223333D01*
X147129761Y-98223333D02*
X147129761Y-98128095D01*
X147129761Y-98128095D02*
X147082142Y-98032857D01*
X147082142Y-98032857D02*
X147034523Y-97985238D01*
X147034523Y-97985238D02*
X146939285Y-97937619D01*
X146939285Y-97937619D02*
X146701190Y-97937619D01*
X146701190Y-97937619D02*
X146558333Y-97985238D01*
X146129761Y-98937619D02*
X146129761Y-97937619D01*
X145129762Y-97985238D02*
X145225000Y-97937619D01*
X145225000Y-97937619D02*
X145367857Y-97937619D01*
X145367857Y-97937619D02*
X145510714Y-97985238D01*
X145510714Y-97985238D02*
X145605952Y-98080476D01*
X145605952Y-98080476D02*
X145653571Y-98175714D01*
X145653571Y-98175714D02*
X145701190Y-98366190D01*
X145701190Y-98366190D02*
X145701190Y-98509047D01*
X145701190Y-98509047D02*
X145653571Y-98699523D01*
X145653571Y-98699523D02*
X145605952Y-98794761D01*
X145605952Y-98794761D02*
X145510714Y-98890000D01*
X145510714Y-98890000D02*
X145367857Y-98937619D01*
X145367857Y-98937619D02*
X145272619Y-98937619D01*
X145272619Y-98937619D02*
X145129762Y-98890000D01*
X145129762Y-98890000D02*
X145082143Y-98842380D01*
X145082143Y-98842380D02*
X145082143Y-98509047D01*
X145082143Y-98509047D02*
X145272619Y-98509047D01*
X144653571Y-98937619D02*
X144653571Y-97937619D01*
X144653571Y-97937619D02*
X144082143Y-98937619D01*
X144082143Y-98937619D02*
X144082143Y-97937619D01*
X143605952Y-98413809D02*
X143272619Y-98413809D01*
X143129762Y-98937619D02*
X143605952Y-98937619D01*
X143605952Y-98937619D02*
X143605952Y-97937619D01*
X143605952Y-97937619D02*
X143129762Y-97937619D01*
X142701190Y-98937619D02*
X142701190Y-97937619D01*
X142701190Y-97937619D02*
X142463095Y-97937619D01*
X142463095Y-97937619D02*
X142320238Y-97985238D01*
X142320238Y-97985238D02*
X142225000Y-98080476D01*
X142225000Y-98080476D02*
X142177381Y-98175714D01*
X142177381Y-98175714D02*
X142129762Y-98366190D01*
X142129762Y-98366190D02*
X142129762Y-98509047D01*
X142129762Y-98509047D02*
X142177381Y-98699523D01*
X142177381Y-98699523D02*
X142225000Y-98794761D01*
X142225000Y-98794761D02*
X142320238Y-98890000D01*
X142320238Y-98890000D02*
X142463095Y-98937619D01*
X142463095Y-98937619D02*
X142701190Y-98937619D01*
X140939285Y-98937619D02*
X140939285Y-97937619D01*
X140463095Y-98937619D02*
X140463095Y-97937619D01*
X140463095Y-97937619D02*
X139891667Y-98937619D01*
X139891667Y-98937619D02*
X139891667Y-97937619D01*
X138796428Y-97937619D02*
X138225000Y-97937619D01*
X138510714Y-98937619D02*
X138510714Y-97937619D01*
X137891666Y-98937619D02*
X137891666Y-97937619D01*
X137891666Y-98413809D02*
X137320238Y-98413809D01*
X137320238Y-98937619D02*
X137320238Y-97937619D01*
X136844047Y-98413809D02*
X136510714Y-98413809D01*
X136367857Y-98937619D02*
X136844047Y-98937619D01*
X136844047Y-98937619D02*
X136844047Y-97937619D01*
X136844047Y-97937619D02*
X136367857Y-97937619D01*
X135177380Y-97937619D02*
X135177380Y-98747142D01*
X135177380Y-98747142D02*
X135129761Y-98842380D01*
X135129761Y-98842380D02*
X135082142Y-98890000D01*
X135082142Y-98890000D02*
X134986904Y-98937619D01*
X134986904Y-98937619D02*
X134796428Y-98937619D01*
X134796428Y-98937619D02*
X134701190Y-98890000D01*
X134701190Y-98890000D02*
X134653571Y-98842380D01*
X134653571Y-98842380D02*
X134605952Y-98747142D01*
X134605952Y-98747142D02*
X134605952Y-97937619D01*
X134129761Y-98937619D02*
X134129761Y-97937619D01*
X133558333Y-98937619D02*
X133986904Y-98366190D01*
X133558333Y-97937619D02*
X134129761Y-98509047D01*
D11*
X152796904Y-119892619D02*
X152796904Y-118892619D01*
X152796904Y-118892619D02*
X152463571Y-119606904D01*
X152463571Y-119606904D02*
X152130238Y-118892619D01*
X152130238Y-118892619D02*
X152130238Y-119892619D01*
X151225476Y-119225952D02*
X151225476Y-119892619D01*
X151463571Y-118845000D02*
X151701666Y-119559285D01*
X151701666Y-119559285D02*
X151082619Y-119559285D01*
X150796904Y-118892619D02*
X150130238Y-119892619D01*
X150130238Y-118892619D02*
X150796904Y-119892619D01*
X149225476Y-119892619D02*
X149796904Y-119892619D01*
X149511190Y-119892619D02*
X149511190Y-118892619D01*
X149511190Y-118892619D02*
X149606428Y-119035476D01*
X149606428Y-119035476D02*
X149701666Y-119130714D01*
X149701666Y-119130714D02*
X149796904Y-119178333D01*
X148796904Y-119892619D02*
X148796904Y-118892619D01*
X148796904Y-118892619D02*
X148463571Y-119606904D01*
X148463571Y-119606904D02*
X148130238Y-118892619D01*
X148130238Y-118892619D02*
X148130238Y-119892619D01*
X147654047Y-118892619D02*
X147654047Y-119702142D01*
X147654047Y-119702142D02*
X147606428Y-119797380D01*
X147606428Y-119797380D02*
X147558809Y-119845000D01*
X147558809Y-119845000D02*
X147463571Y-119892619D01*
X147463571Y-119892619D02*
X147273095Y-119892619D01*
X147273095Y-119892619D02*
X147177857Y-119845000D01*
X147177857Y-119845000D02*
X147130238Y-119797380D01*
X147130238Y-119797380D02*
X147082619Y-119702142D01*
X147082619Y-119702142D02*
X147082619Y-118892619D01*
X146606428Y-119892619D02*
X146606428Y-118892619D01*
X146606428Y-118892619D02*
X146273095Y-119606904D01*
X146273095Y-119606904D02*
X145939762Y-118892619D01*
X145939762Y-118892619D02*
X145939762Y-119892619D01*
X144892143Y-119892619D02*
X145225476Y-119416428D01*
X145463571Y-119892619D02*
X145463571Y-118892619D01*
X145463571Y-118892619D02*
X145082619Y-118892619D01*
X145082619Y-118892619D02*
X144987381Y-118940238D01*
X144987381Y-118940238D02*
X144939762Y-118987857D01*
X144939762Y-118987857D02*
X144892143Y-119083095D01*
X144892143Y-119083095D02*
X144892143Y-119225952D01*
X144892143Y-119225952D02*
X144939762Y-119321190D01*
X144939762Y-119321190D02*
X144987381Y-119368809D01*
X144987381Y-119368809D02*
X145082619Y-119416428D01*
X145082619Y-119416428D02*
X145463571Y-119416428D01*
X144463571Y-119368809D02*
X144130238Y-119368809D01*
X143987381Y-119892619D02*
X144463571Y-119892619D01*
X144463571Y-119892619D02*
X144463571Y-118892619D01*
X144463571Y-118892619D02*
X143987381Y-118892619D01*
X143654047Y-118892619D02*
X142987381Y-118892619D01*
X142987381Y-118892619D02*
X143654047Y-119892619D01*
X143654047Y-119892619D02*
X142987381Y-119892619D01*
X142463571Y-119321190D02*
X142558809Y-119273571D01*
X142558809Y-119273571D02*
X142606428Y-119225952D01*
X142606428Y-119225952D02*
X142654047Y-119130714D01*
X142654047Y-119130714D02*
X142654047Y-119083095D01*
X142654047Y-119083095D02*
X142606428Y-118987857D01*
X142606428Y-118987857D02*
X142558809Y-118940238D01*
X142558809Y-118940238D02*
X142463571Y-118892619D01*
X142463571Y-118892619D02*
X142273095Y-118892619D01*
X142273095Y-118892619D02*
X142177857Y-118940238D01*
X142177857Y-118940238D02*
X142130238Y-118987857D01*
X142130238Y-118987857D02*
X142082619Y-119083095D01*
X142082619Y-119083095D02*
X142082619Y-119130714D01*
X142082619Y-119130714D02*
X142130238Y-119225952D01*
X142130238Y-119225952D02*
X142177857Y-119273571D01*
X142177857Y-119273571D02*
X142273095Y-119321190D01*
X142273095Y-119321190D02*
X142463571Y-119321190D01*
X142463571Y-119321190D02*
X142558809Y-119368809D01*
X142558809Y-119368809D02*
X142606428Y-119416428D01*
X142606428Y-119416428D02*
X142654047Y-119511666D01*
X142654047Y-119511666D02*
X142654047Y-119702142D01*
X142654047Y-119702142D02*
X142606428Y-119797380D01*
X142606428Y-119797380D02*
X142558809Y-119845000D01*
X142558809Y-119845000D02*
X142463571Y-119892619D01*
X142463571Y-119892619D02*
X142273095Y-119892619D01*
X142273095Y-119892619D02*
X142177857Y-119845000D01*
X142177857Y-119845000D02*
X142130238Y-119797380D01*
X142130238Y-119797380D02*
X142082619Y-119702142D01*
X142082619Y-119702142D02*
X142082619Y-119511666D01*
X142082619Y-119511666D02*
X142130238Y-119416428D01*
X142130238Y-119416428D02*
X142177857Y-119368809D01*
X142177857Y-119368809D02*
X142273095Y-119321190D01*
X141749285Y-118892619D02*
X141082619Y-118892619D01*
X141082619Y-118892619D02*
X141511190Y-119892619D01*
X140701666Y-119797380D02*
X140654047Y-119845000D01*
X140654047Y-119845000D02*
X140701666Y-119892619D01*
X140701666Y-119892619D02*
X140749285Y-119845000D01*
X140749285Y-119845000D02*
X140701666Y-119797380D01*
X140701666Y-119797380D02*
X140701666Y-119892619D01*
X140225476Y-119892619D02*
X140225476Y-118892619D01*
X140225476Y-118892619D02*
X139654048Y-119892619D01*
X139654048Y-119892619D02*
X139654048Y-118892619D01*
X139177857Y-119368809D02*
X138844524Y-119368809D01*
X138701667Y-119892619D02*
X139177857Y-119892619D01*
X139177857Y-119892619D02*
X139177857Y-118892619D01*
X139177857Y-118892619D02*
X138701667Y-118892619D01*
X138082619Y-118892619D02*
X137892143Y-118892619D01*
X137892143Y-118892619D02*
X137796905Y-118940238D01*
X137796905Y-118940238D02*
X137701667Y-119035476D01*
X137701667Y-119035476D02*
X137654048Y-119225952D01*
X137654048Y-119225952D02*
X137654048Y-119559285D01*
X137654048Y-119559285D02*
X137701667Y-119749761D01*
X137701667Y-119749761D02*
X137796905Y-119845000D01*
X137796905Y-119845000D02*
X137892143Y-119892619D01*
X137892143Y-119892619D02*
X138082619Y-119892619D01*
X138082619Y-119892619D02*
X138177857Y-119845000D01*
X138177857Y-119845000D02*
X138273095Y-119749761D01*
X138273095Y-119749761D02*
X138320714Y-119559285D01*
X138320714Y-119559285D02*
X138320714Y-119225952D01*
X138320714Y-119225952D02*
X138273095Y-119035476D01*
X138273095Y-119035476D02*
X138177857Y-118940238D01*
X138177857Y-118940238D02*
X138082619Y-118892619D01*
X136654048Y-119797380D02*
X136701667Y-119845000D01*
X136701667Y-119845000D02*
X136844524Y-119892619D01*
X136844524Y-119892619D02*
X136939762Y-119892619D01*
X136939762Y-119892619D02*
X137082619Y-119845000D01*
X137082619Y-119845000D02*
X137177857Y-119749761D01*
X137177857Y-119749761D02*
X137225476Y-119654523D01*
X137225476Y-119654523D02*
X137273095Y-119464047D01*
X137273095Y-119464047D02*
X137273095Y-119321190D01*
X137273095Y-119321190D02*
X137225476Y-119130714D01*
X137225476Y-119130714D02*
X137177857Y-119035476D01*
X137177857Y-119035476D02*
X137082619Y-118940238D01*
X137082619Y-118940238D02*
X136939762Y-118892619D01*
X136939762Y-118892619D02*
X136844524Y-118892619D01*
X136844524Y-118892619D02*
X136701667Y-118940238D01*
X136701667Y-118940238D02*
X136654048Y-118987857D01*
X136225476Y-119892619D02*
X136225476Y-118892619D01*
X135892143Y-118892619D02*
X135320715Y-118892619D01*
X135606429Y-119892619D02*
X135606429Y-118892619D01*
X134987381Y-119892619D02*
X134987381Y-118892619D01*
X134511191Y-119368809D02*
X134177858Y-119368809D01*
X134035001Y-119892619D02*
X134511191Y-119892619D01*
X134511191Y-119892619D02*
X134511191Y-118892619D01*
X134511191Y-118892619D02*
X134035001Y-118892619D01*
X133654048Y-119845000D02*
X133511191Y-119892619D01*
X133511191Y-119892619D02*
X133273096Y-119892619D01*
X133273096Y-119892619D02*
X133177858Y-119845000D01*
X133177858Y-119845000D02*
X133130239Y-119797380D01*
X133130239Y-119797380D02*
X133082620Y-119702142D01*
X133082620Y-119702142D02*
X133082620Y-119606904D01*
X133082620Y-119606904D02*
X133130239Y-119511666D01*
X133130239Y-119511666D02*
X133177858Y-119464047D01*
X133177858Y-119464047D02*
X133273096Y-119416428D01*
X133273096Y-119416428D02*
X133463572Y-119368809D01*
X133463572Y-119368809D02*
X133558810Y-119321190D01*
X133558810Y-119321190D02*
X133606429Y-119273571D01*
X133606429Y-119273571D02*
X133654048Y-119178333D01*
X133654048Y-119178333D02*
X133654048Y-119083095D01*
X133654048Y-119083095D02*
X133606429Y-118987857D01*
X133606429Y-118987857D02*
X133558810Y-118940238D01*
X133558810Y-118940238D02*
X133463572Y-118892619D01*
X133463572Y-118892619D02*
X133225477Y-118892619D01*
X133225477Y-118892619D02*
X133082620Y-118940238D01*
X132654048Y-119797380D02*
X132606429Y-119845000D01*
X132606429Y-119845000D02*
X132654048Y-119892619D01*
X132654048Y-119892619D02*
X132701667Y-119845000D01*
X132701667Y-119845000D02*
X132654048Y-119797380D01*
X132654048Y-119797380D02*
X132654048Y-119892619D01*
X131987382Y-118892619D02*
X131796906Y-118892619D01*
X131796906Y-118892619D02*
X131701668Y-118940238D01*
X131701668Y-118940238D02*
X131606430Y-119035476D01*
X131606430Y-119035476D02*
X131558811Y-119225952D01*
X131558811Y-119225952D02*
X131558811Y-119559285D01*
X131558811Y-119559285D02*
X131606430Y-119749761D01*
X131606430Y-119749761D02*
X131701668Y-119845000D01*
X131701668Y-119845000D02*
X131796906Y-119892619D01*
X131796906Y-119892619D02*
X131987382Y-119892619D01*
X131987382Y-119892619D02*
X132082620Y-119845000D01*
X132082620Y-119845000D02*
X132177858Y-119749761D01*
X132177858Y-119749761D02*
X132225477Y-119559285D01*
X132225477Y-119559285D02*
X132225477Y-119225952D01*
X132225477Y-119225952D02*
X132177858Y-119035476D01*
X132177858Y-119035476D02*
X132082620Y-118940238D01*
X132082620Y-118940238D02*
X131987382Y-118892619D01*
X130558811Y-119892619D02*
X130892144Y-119416428D01*
X131130239Y-119892619D02*
X131130239Y-118892619D01*
X131130239Y-118892619D02*
X130749287Y-118892619D01*
X130749287Y-118892619D02*
X130654049Y-118940238D01*
X130654049Y-118940238D02*
X130606430Y-118987857D01*
X130606430Y-118987857D02*
X130558811Y-119083095D01*
X130558811Y-119083095D02*
X130558811Y-119225952D01*
X130558811Y-119225952D02*
X130606430Y-119321190D01*
X130606430Y-119321190D02*
X130654049Y-119368809D01*
X130654049Y-119368809D02*
X130749287Y-119416428D01*
X130749287Y-119416428D02*
X131130239Y-119416428D01*
X129606430Y-118940238D02*
X129701668Y-118892619D01*
X129701668Y-118892619D02*
X129844525Y-118892619D01*
X129844525Y-118892619D02*
X129987382Y-118940238D01*
X129987382Y-118940238D02*
X130082620Y-119035476D01*
X130082620Y-119035476D02*
X130130239Y-119130714D01*
X130130239Y-119130714D02*
X130177858Y-119321190D01*
X130177858Y-119321190D02*
X130177858Y-119464047D01*
X130177858Y-119464047D02*
X130130239Y-119654523D01*
X130130239Y-119654523D02*
X130082620Y-119749761D01*
X130082620Y-119749761D02*
X129987382Y-119845000D01*
X129987382Y-119845000D02*
X129844525Y-119892619D01*
X129844525Y-119892619D02*
X129749287Y-119892619D01*
X129749287Y-119892619D02*
X129606430Y-119845000D01*
X129606430Y-119845000D02*
X129558811Y-119797380D01*
X129558811Y-119797380D02*
X129558811Y-119464047D01*
X129558811Y-119464047D02*
X129749287Y-119464047D01*
%TO.C,G\u002A\u002A\u002A*%
G36*
X141153424Y-107733745D02*
G01*
X141169000Y-107759405D01*
X141156822Y-107778030D01*
X141113258Y-107786025D01*
X141101351Y-107785370D01*
X141065829Y-107771506D01*
X141055654Y-107746823D01*
X141076262Y-107720889D01*
X141082443Y-107717911D01*
X141118613Y-107717438D01*
X141153424Y-107733745D01*
G37*
G36*
X143211670Y-107467653D02*
G01*
X143216788Y-107489555D01*
X143231150Y-107677564D01*
X143231473Y-107819944D01*
X143120979Y-107932167D01*
X143091145Y-107961586D01*
X142985813Y-108049053D01*
X142878313Y-108109676D01*
X142757662Y-108150041D01*
X142683379Y-108164324D01*
X142525187Y-108169235D01*
X142369763Y-108142071D01*
X142222927Y-108085424D01*
X142090501Y-108001886D01*
X141978303Y-107894050D01*
X141892156Y-107764509D01*
X141875589Y-107729284D01*
X141862019Y-107684883D01*
X141859081Y-107636101D01*
X141866464Y-107572439D01*
X141883858Y-107483401D01*
X141888319Y-107464365D01*
X142192681Y-107464365D01*
X142205158Y-107556521D01*
X142234705Y-107628217D01*
X142281056Y-107673044D01*
X142282367Y-107673740D01*
X142354880Y-107694479D01*
X142423556Y-107678255D01*
X142488399Y-107625067D01*
X142495367Y-107617115D01*
X142520941Y-107585671D01*
X142536073Y-107556914D01*
X142542955Y-107520893D01*
X142543776Y-107467653D01*
X142540725Y-107387243D01*
X142540106Y-107373607D01*
X142534283Y-107289399D01*
X142524417Y-107228629D01*
X142507731Y-107179194D01*
X142481447Y-107128991D01*
X142459263Y-107093992D01*
X142426311Y-107051048D01*
X142401921Y-107029892D01*
X142387290Y-107026576D01*
X142340526Y-107038135D01*
X142294534Y-107075915D01*
X142258627Y-107133198D01*
X142220005Y-107244312D01*
X142197542Y-107358159D01*
X142192681Y-107464365D01*
X141888319Y-107464365D01*
X141893523Y-107442155D01*
X141946470Y-107289367D01*
X142020668Y-107152334D01*
X142112367Y-107033603D01*
X142217817Y-106935717D01*
X142333267Y-106861222D01*
X142454968Y-106812664D01*
X142579168Y-106792586D01*
X142702118Y-106803535D01*
X142820066Y-106848055D01*
X142915458Y-106912259D01*
X143023220Y-107021992D01*
X143110746Y-107157579D01*
X143175961Y-107314830D01*
X143211670Y-107467653D01*
G37*
G36*
X140823674Y-107131647D02*
G01*
X140828721Y-107214201D01*
X140840241Y-107450643D01*
X140788358Y-107525511D01*
X140755499Y-107566830D01*
X140664887Y-107643861D01*
X140560217Y-107693200D01*
X140535539Y-107698717D01*
X140474595Y-107706405D01*
X140406189Y-107710104D01*
X140330114Y-107705426D01*
X140218207Y-107671647D01*
X140120653Y-107604438D01*
X140035412Y-107502656D01*
X140008414Y-107461779D01*
X139980918Y-107414217D01*
X139968010Y-107373930D01*
X139965907Y-107326573D01*
X139970824Y-107257803D01*
X139983774Y-107138688D01*
X140398958Y-107138688D01*
X140408000Y-107227261D01*
X140432423Y-107298908D01*
X140470355Y-107344445D01*
X140491334Y-107353300D01*
X140542454Y-107356912D01*
X140587629Y-107343794D01*
X140588475Y-107343238D01*
X140615162Y-107309981D01*
X140640642Y-107254285D01*
X140659669Y-107190168D01*
X140666999Y-107131647D01*
X140666808Y-107122701D01*
X140659984Y-107059194D01*
X140645233Y-106985372D01*
X140625051Y-106909035D01*
X140601934Y-106837985D01*
X140578378Y-106780020D01*
X140556879Y-106742942D01*
X140539933Y-106734550D01*
X140531965Y-106741861D01*
X140507018Y-106780171D01*
X140477627Y-106839344D01*
X140448308Y-106908994D01*
X140423574Y-106978737D01*
X140407939Y-107038188D01*
X140407169Y-107042373D01*
X140398958Y-107138688D01*
X139983774Y-107138688D01*
X139986246Y-107115952D01*
X140019501Y-106933106D01*
X140066097Y-106780248D01*
X140127083Y-106654200D01*
X140203504Y-106551784D01*
X140235508Y-106520002D01*
X140325321Y-106458611D01*
X140416866Y-106432723D01*
X140506607Y-106441552D01*
X140591010Y-106484316D01*
X140666539Y-106560230D01*
X140729659Y-106668510D01*
X140739912Y-106692001D01*
X140769475Y-106771192D01*
X140791655Y-106854838D01*
X140807933Y-106951108D01*
X140819794Y-107068173D01*
X140823674Y-107131647D01*
G37*
G36*
X141835272Y-108243065D02*
G01*
X141823639Y-108258730D01*
X141817227Y-108289709D01*
X141810911Y-108320224D01*
X141804305Y-108370617D01*
X141784270Y-108496447D01*
X141759648Y-108624559D01*
X141732572Y-108745145D01*
X141705173Y-108848397D01*
X141700667Y-108861798D01*
X141679583Y-108924505D01*
X141623220Y-109042279D01*
X141551030Y-109154402D01*
X141471175Y-109247144D01*
X141388603Y-109314811D01*
X141308263Y-109351711D01*
X141276118Y-109358054D01*
X141204096Y-109356077D01*
X141137714Y-109327571D01*
X141073849Y-109270037D01*
X141009381Y-109180975D01*
X140941187Y-109057886D01*
X140913915Y-108997877D01*
X140872444Y-108889337D01*
X140862420Y-108859175D01*
X140960959Y-108859175D01*
X140979081Y-108915753D01*
X141017035Y-108997904D01*
X141030022Y-109023818D01*
X141072674Y-109100445D01*
X141115576Y-109167242D01*
X141151148Y-109212104D01*
X141194802Y-109251157D01*
X141236432Y-109268639D01*
X141282884Y-109260381D01*
X141345977Y-109227307D01*
X141372217Y-109209569D01*
X141448166Y-109137431D01*
X141518758Y-109041672D01*
X141576342Y-108932097D01*
X141590330Y-108898605D01*
X141601805Y-108861798D01*
X141598344Y-108839492D01*
X141580379Y-108819614D01*
X141523632Y-108782130D01*
X141429071Y-108749635D01*
X141317622Y-108734648D01*
X141198695Y-108738263D01*
X141081695Y-108761577D01*
X141044683Y-108773032D01*
X140991849Y-108794798D01*
X140964578Y-108821184D01*
X140960959Y-108859175D01*
X140862420Y-108859175D01*
X140829552Y-108760272D01*
X140788125Y-108620049D01*
X140751046Y-108478034D01*
X140721200Y-108343592D01*
X140699833Y-108243648D01*
X140693150Y-108219123D01*
X140834545Y-108219123D01*
X140838504Y-108238071D01*
X140857771Y-108275180D01*
X140868001Y-108288422D01*
X140884094Y-108295925D01*
X140894127Y-108283062D01*
X141560504Y-108283062D01*
X141563845Y-108297671D01*
X141576167Y-108333745D01*
X141584743Y-108353900D01*
X141595149Y-108358122D01*
X141612022Y-108330321D01*
X141612882Y-108328712D01*
X141630639Y-108289709D01*
X141625886Y-108272797D01*
X141596360Y-108269126D01*
X141574936Y-108271759D01*
X141560504Y-108283062D01*
X140894127Y-108283062D01*
X140902892Y-108271825D01*
X140915069Y-108243065D01*
X140903821Y-108215768D01*
X140877054Y-108198554D01*
X140847530Y-108198015D01*
X140834545Y-108219123D01*
X140693150Y-108219123D01*
X140680095Y-108171214D01*
X140660957Y-108124776D01*
X140640589Y-108098776D01*
X140620260Y-108081172D01*
X140614030Y-108066145D01*
X140635461Y-108054586D01*
X140654481Y-108052546D01*
X140706317Y-108062944D01*
X140774818Y-108088653D01*
X140785303Y-108093249D01*
X140883811Y-108131601D01*
X140982539Y-108159731D01*
X141088800Y-108178622D01*
X141209905Y-108189259D01*
X141353167Y-108192624D01*
X141525898Y-108189703D01*
X141556440Y-108188797D01*
X141672966Y-108185845D01*
X141757990Y-108184913D01*
X141816113Y-108186210D01*
X141851934Y-108189944D01*
X141870054Y-108196324D01*
X141875072Y-108205559D01*
X141872249Y-108217334D01*
X141848339Y-108231965D01*
X141842787Y-108232946D01*
X141835272Y-108243065D01*
G37*
G36*
X148684778Y-102489304D02*
G01*
X148680664Y-102545935D01*
X148645020Y-102672295D01*
X148582966Y-102814145D01*
X148495851Y-102969152D01*
X148385023Y-103134982D01*
X148251831Y-103309302D01*
X148097623Y-103489778D01*
X147923748Y-103674078D01*
X147663002Y-103937917D01*
X147775907Y-103927178D01*
X147777006Y-103927074D01*
X147840129Y-103922371D01*
X147878536Y-103925470D01*
X147904227Y-103939548D01*
X147929199Y-103967783D01*
X147931299Y-103970507D01*
X147958388Y-104017150D01*
X147969516Y-104058428D01*
X147959442Y-104105351D01*
X147918535Y-104177802D01*
X147848798Y-104261932D01*
X147753058Y-104355685D01*
X147634141Y-104457010D01*
X147494873Y-104563852D01*
X147338083Y-104674157D01*
X147166595Y-104785873D01*
X146983238Y-104896945D01*
X146790838Y-105005320D01*
X146592221Y-105108944D01*
X146390215Y-105205764D01*
X146380620Y-105210155D01*
X146300268Y-105247114D01*
X146233650Y-105278084D01*
X146187463Y-105299931D01*
X146168404Y-105309523D01*
X146167621Y-105310786D01*
X146178362Y-105330448D01*
X146210663Y-105367136D01*
X146258577Y-105415096D01*
X146316159Y-105468572D01*
X146377463Y-105521812D01*
X146436543Y-105569058D01*
X146607314Y-105679829D01*
X146803907Y-105770173D01*
X147009601Y-105830385D01*
X147218850Y-105859302D01*
X147426111Y-105855760D01*
X147625840Y-105818597D01*
X147684138Y-105801310D01*
X147766748Y-105772916D01*
X147850785Y-105738624D01*
X147939807Y-105696411D01*
X148037371Y-105644254D01*
X148147036Y-105580131D01*
X148272358Y-105502017D01*
X148416897Y-105407890D01*
X148584209Y-105295726D01*
X148777852Y-105163503D01*
X148828793Y-105128705D01*
X149013127Y-105007023D01*
X149173626Y-104908842D01*
X149313100Y-104832848D01*
X149434360Y-104777726D01*
X149540215Y-104742164D01*
X149633476Y-104724846D01*
X149716954Y-104724460D01*
X149782537Y-104734610D01*
X149832576Y-104757064D01*
X149857847Y-104796297D01*
X149864831Y-104858170D01*
X149857769Y-104917947D01*
X149822096Y-105018498D01*
X149759212Y-105126272D01*
X149672363Y-105234916D01*
X149636657Y-105274203D01*
X149605489Y-105310618D01*
X149595858Y-105328176D01*
X149605605Y-105331853D01*
X149632570Y-105326625D01*
X149641798Y-105324746D01*
X149694315Y-105317144D01*
X149767487Y-105309269D01*
X149848457Y-105302556D01*
X149899407Y-105299227D01*
X149960628Y-105297291D01*
X149999658Y-105301050D01*
X150025760Y-105311820D01*
X150048201Y-105330916D01*
X150056253Y-105339759D01*
X150084448Y-105401779D01*
X150083947Y-105440449D01*
X150083414Y-105481668D01*
X150054431Y-105576857D01*
X149998782Y-105684778D01*
X149917748Y-105802863D01*
X149812612Y-105928544D01*
X149684655Y-106059253D01*
X149648970Y-106092739D01*
X149534880Y-106192220D01*
X149414978Y-106284052D01*
X149279654Y-106375266D01*
X149119296Y-106472894D01*
X148940477Y-106577679D01*
X149004835Y-106739778D01*
X149085693Y-106969787D01*
X149168474Y-107298488D01*
X149218531Y-107640037D01*
X149227779Y-107835314D01*
X149235124Y-107990414D01*
X149224082Y-108253942D01*
X149177976Y-108591736D01*
X149096904Y-108920882D01*
X148981869Y-109238708D01*
X148833877Y-109542542D01*
X148653930Y-109829713D01*
X148443035Y-110097549D01*
X148297687Y-110262987D01*
X148361252Y-110382191D01*
X148396614Y-110447099D01*
X148498031Y-110621242D01*
X148609540Y-110798141D01*
X148726077Y-110970465D01*
X148842577Y-111130883D01*
X148953977Y-111272066D01*
X149055211Y-111386682D01*
X149102799Y-111435182D01*
X149233532Y-111553456D01*
X149366632Y-111649406D01*
X149507724Y-111725297D01*
X149662433Y-111783393D01*
X149836386Y-111825960D01*
X150035208Y-111855263D01*
X150264526Y-111873566D01*
X150362685Y-111879499D01*
X150484831Y-111889737D01*
X150575285Y-111902714D01*
X150637361Y-111919986D01*
X150674372Y-111943111D01*
X150689630Y-111973643D01*
X150687825Y-111996059D01*
X150686449Y-112013140D01*
X150668142Y-112063157D01*
X150644229Y-112107288D01*
X150573073Y-112195099D01*
X150476794Y-112278259D01*
X150363190Y-112350532D01*
X150240059Y-112405676D01*
X150200667Y-112420655D01*
X150159508Y-112439370D01*
X150143543Y-112451234D01*
X150145662Y-112454555D01*
X150171412Y-112468410D01*
X150217029Y-112484529D01*
X150231491Y-112489329D01*
X150292131Y-112518011D01*
X150347571Y-112555553D01*
X150388017Y-112594465D01*
X150403675Y-112627260D01*
X150391660Y-112656456D01*
X150361868Y-112692259D01*
X150323808Y-112723500D01*
X150217973Y-112782278D01*
X150085336Y-112828090D01*
X149931494Y-112860668D01*
X149762046Y-112879746D01*
X149582589Y-112885054D01*
X149398721Y-112876327D01*
X149216039Y-112853295D01*
X149040143Y-112815693D01*
X148876629Y-112763251D01*
X148867535Y-112759709D01*
X148663333Y-112660902D01*
X148471861Y-112529822D01*
X148292740Y-112365972D01*
X148125591Y-112168851D01*
X148045738Y-112050326D01*
X148601334Y-112050326D01*
X148610624Y-112059616D01*
X148619915Y-112050326D01*
X148610624Y-112041036D01*
X148601334Y-112050326D01*
X148045738Y-112050326D01*
X147970035Y-111937960D01*
X147825695Y-111672800D01*
X147692192Y-111372870D01*
X147569147Y-111037671D01*
X147568268Y-111035040D01*
X147540472Y-110952434D01*
X147517056Y-110883886D01*
X147500458Y-110836467D01*
X147493119Y-110817249D01*
X147488168Y-110817409D01*
X147456547Y-110827403D01*
X147402598Y-110847978D01*
X147334192Y-110876212D01*
X147321911Y-110881392D01*
X147228024Y-110918641D01*
X147128888Y-110954787D01*
X147044031Y-110982665D01*
X146982728Y-111002123D01*
X146939086Y-111020175D01*
X146920686Y-111036242D01*
X146921596Y-111053768D01*
X146930701Y-111076861D01*
X146950158Y-111129305D01*
X146976188Y-111201168D01*
X147005712Y-111284017D01*
X147045303Y-111406305D01*
X147102247Y-111622525D01*
X147153803Y-111869040D01*
X147199397Y-112141851D01*
X147238459Y-112436955D01*
X147270416Y-112750351D01*
X147294694Y-113078039D01*
X147310723Y-113416017D01*
X147311877Y-113448673D01*
X147319677Y-113624345D01*
X147329280Y-113767122D01*
X147341145Y-113880644D01*
X147355733Y-113968551D01*
X147373504Y-114034482D01*
X147394917Y-114082077D01*
X147402832Y-114094754D01*
X147438617Y-114146007D01*
X147487429Y-114210799D01*
X147541096Y-114278165D01*
X147601553Y-114354092D01*
X147651713Y-114424498D01*
X147691791Y-114493143D01*
X147722907Y-114564889D01*
X147746182Y-114644599D01*
X147762737Y-114737138D01*
X147773692Y-114847369D01*
X147780170Y-114980154D01*
X147783289Y-115140358D01*
X147784172Y-115332843D01*
X147783200Y-115469199D01*
X147782362Y-115586692D01*
X147779083Y-115703055D01*
X147773902Y-115886943D01*
X147758343Y-116152566D01*
X147735472Y-116384647D01*
X147705078Y-116584275D01*
X147666949Y-116752535D01*
X147620871Y-116890517D01*
X147566634Y-116999306D01*
X147504024Y-117079991D01*
X147432830Y-117133659D01*
X147424681Y-117137601D01*
X147356004Y-117154659D01*
X147251910Y-117161297D01*
X147112619Y-117157510D01*
X146938349Y-117143295D01*
X146875922Y-117130441D01*
X146809685Y-117092743D01*
X146772259Y-117035133D01*
X146767055Y-116985550D01*
X146843813Y-116985550D01*
X146852064Y-117012965D01*
X146858958Y-117026618D01*
X146883433Y-117054373D01*
X146902680Y-117048908D01*
X146910478Y-117010486D01*
X146913522Y-116980856D01*
X146933224Y-116922299D01*
X146965842Y-116866726D01*
X147005057Y-116822150D01*
X147044547Y-116796588D01*
X147077993Y-116798055D01*
X147080530Y-116799678D01*
X147095809Y-116819180D01*
X147082236Y-116848297D01*
X147061233Y-116879458D01*
X147020459Y-116957703D01*
X147010701Y-117016212D01*
X147031957Y-117054737D01*
X147084225Y-117073031D01*
X147110168Y-117074393D01*
X147129342Y-117062113D01*
X147133448Y-117023359D01*
X147134625Y-117009649D01*
X147152088Y-116959145D01*
X147183826Y-116908359D01*
X147221276Y-116869174D01*
X147255875Y-116853472D01*
X147264180Y-116854789D01*
X147280104Y-116875871D01*
X147276943Y-116913732D01*
X147254814Y-116956760D01*
X147233199Y-116995568D01*
X147231577Y-117042256D01*
X147262292Y-117075788D01*
X147289153Y-117087368D01*
X147333960Y-117089807D01*
X147382632Y-117066894D01*
X147443558Y-117015857D01*
X147483634Y-116968117D01*
X147536608Y-116870204D01*
X147583092Y-116740568D01*
X147622063Y-116582237D01*
X147652496Y-116398241D01*
X147655212Y-116376691D01*
X147664203Y-116293046D01*
X147673047Y-116194359D01*
X147681357Y-116087137D01*
X147688746Y-115977888D01*
X147694825Y-115873119D01*
X147699207Y-115779339D01*
X147701505Y-115703055D01*
X147701331Y-115650775D01*
X147698298Y-115629006D01*
X147697174Y-115628808D01*
X147677103Y-115642729D01*
X147636356Y-115679155D01*
X147578970Y-115734229D01*
X147508982Y-115804097D01*
X147430427Y-115884903D01*
X147174355Y-116151960D01*
X147126614Y-116117163D01*
X147125129Y-116116074D01*
X147092232Y-116087995D01*
X147078289Y-116068431D01*
X147077667Y-116065258D01*
X147059125Y-116054496D01*
X147054518Y-116059164D01*
X147047025Y-116093675D01*
X147042067Y-116157360D01*
X147040170Y-116244949D01*
X147038728Y-116344282D01*
X147030506Y-116482663D01*
X147014200Y-116593288D01*
X146988871Y-116681657D01*
X146953584Y-116753267D01*
X146939922Y-116775250D01*
X146891531Y-116855703D01*
X146861048Y-116913310D01*
X146845975Y-116954462D01*
X146843813Y-116985550D01*
X146767055Y-116985550D01*
X146764441Y-116960638D01*
X146787028Y-116872286D01*
X146840819Y-116773104D01*
X146871156Y-116727550D01*
X146901880Y-116680358D01*
X146919019Y-116652668D01*
X146931046Y-116612099D01*
X146940964Y-116541660D01*
X146948436Y-116448685D01*
X146953144Y-116340472D01*
X146954772Y-116224316D01*
X146953001Y-116107515D01*
X146947515Y-115997365D01*
X146942864Y-115937218D01*
X146915741Y-115697761D01*
X146876342Y-115488544D01*
X146823478Y-115305253D01*
X146755960Y-115143572D01*
X146672601Y-114999186D01*
X146641876Y-114956488D01*
X146584387Y-114883317D01*
X146512385Y-114796448D01*
X146432084Y-114703343D01*
X146349698Y-114611463D01*
X146215320Y-114461403D01*
X146029435Y-114238961D01*
X145863440Y-114019180D01*
X145710005Y-113792166D01*
X145561802Y-113548027D01*
X145471600Y-113392035D01*
X145445700Y-113455123D01*
X145439140Y-113471841D01*
X145408946Y-113565001D01*
X145378769Y-113680784D01*
X145351217Y-113807443D01*
X145328899Y-113933229D01*
X145314423Y-114046396D01*
X145309839Y-114105318D01*
X145309472Y-114307604D01*
X145333502Y-114493298D01*
X145381239Y-114656108D01*
X145398800Y-114702530D01*
X145415608Y-114759003D01*
X145425346Y-114817229D01*
X145429780Y-114888998D01*
X145430678Y-114986098D01*
X145430552Y-115002558D01*
X145413273Y-115230656D01*
X145367814Y-115477116D01*
X145295417Y-115738023D01*
X145197325Y-116009459D01*
X145074779Y-116287506D01*
X145002748Y-116426245D01*
X144929022Y-116568247D01*
X144863959Y-116682851D01*
X144784774Y-116815133D01*
X144716169Y-116918777D01*
X144655395Y-116996824D01*
X144599704Y-117052310D01*
X144546348Y-117088277D01*
X144492577Y-117107762D01*
X144435645Y-117113805D01*
X144369749Y-117114104D01*
X144260556Y-117113977D01*
X144180265Y-117112539D01*
X144123341Y-117109402D01*
X144084250Y-117104179D01*
X144057457Y-117096483D01*
X144037428Y-117085926D01*
X143989769Y-117066356D01*
X143932147Y-117057861D01*
X143888395Y-117051707D01*
X143830676Y-117016054D01*
X143807578Y-116987362D01*
X143779000Y-116917139D01*
X143781447Y-116893424D01*
X143863991Y-116893424D01*
X143876412Y-116944606D01*
X143887301Y-116959701D01*
X143918842Y-116979411D01*
X143947829Y-116963121D01*
X143971769Y-116911690D01*
X143972028Y-116910832D01*
X144005908Y-116842345D01*
X144058454Y-116782273D01*
X144119715Y-116739624D01*
X144179742Y-116723406D01*
X144192472Y-116723713D01*
X144225792Y-116733107D01*
X144234838Y-116760213D01*
X144227204Y-116785278D01*
X144190148Y-116808238D01*
X144175058Y-116813101D01*
X144120184Y-116848579D01*
X144079120Y-116900801D01*
X144062965Y-116956804D01*
X144069873Y-116996326D01*
X144102143Y-117028804D01*
X144160295Y-117034803D01*
X144186004Y-117028586D01*
X144206274Y-117005854D01*
X144218342Y-116956712D01*
X144244861Y-116887611D01*
X144299001Y-116827044D01*
X144369362Y-116791179D01*
X144371232Y-116790709D01*
X144405425Y-116792458D01*
X144416155Y-116814657D01*
X144403551Y-116849368D01*
X144367747Y-116888654D01*
X144324807Y-116932912D01*
X144310452Y-116977022D01*
X144331458Y-117016983D01*
X144346955Y-117027769D01*
X144398825Y-117038339D01*
X144462692Y-117030015D01*
X144525199Y-117003713D01*
X144527680Y-117002121D01*
X144565255Y-116967482D01*
X144614952Y-116908506D01*
X144671390Y-116832737D01*
X144729184Y-116747723D01*
X144782954Y-116661010D01*
X144827316Y-116580144D01*
X144844683Y-116538406D01*
X144864387Y-116426245D01*
X144853934Y-116300115D01*
X144813987Y-116164509D01*
X144745208Y-116023920D01*
X144719318Y-115981164D01*
X144698383Y-115956566D01*
X144678996Y-115954507D01*
X144652090Y-115969709D01*
X144640664Y-115976855D01*
X144588191Y-115996395D01*
X144542191Y-115984158D01*
X144493672Y-115938366D01*
X144443215Y-115877978D01*
X144422017Y-115961592D01*
X144406941Y-116017087D01*
X144352214Y-116180691D01*
X144284305Y-116342739D01*
X144208505Y-116491396D01*
X144130101Y-116614824D01*
X144103907Y-116646894D01*
X144040196Y-116709862D01*
X143974245Y-116760863D01*
X143943277Y-116782477D01*
X143886753Y-116838492D01*
X143863991Y-116893424D01*
X143781447Y-116893424D01*
X143786407Y-116845368D01*
X143829210Y-116774451D01*
X143906815Y-116706791D01*
X143930635Y-116689815D01*
X144006460Y-116624989D01*
X144072785Y-116547398D01*
X144135586Y-116449232D01*
X144200840Y-116322683D01*
X144265154Y-116177810D01*
X144313581Y-116040396D01*
X144346616Y-115903260D01*
X144367197Y-115754117D01*
X144378261Y-115580684D01*
X144381768Y-115439524D01*
X144379266Y-115295533D01*
X144368241Y-115163812D01*
X144347081Y-115036916D01*
X144314174Y-114907400D01*
X144267909Y-114767818D01*
X144206672Y-114610724D01*
X144128852Y-114428673D01*
X144114061Y-114394976D01*
X144032066Y-114204820D01*
X143964921Y-114041698D01*
X143910944Y-113900347D01*
X143868455Y-113775507D01*
X143835774Y-113661916D01*
X143811219Y-113554313D01*
X143793109Y-113447438D01*
X143779764Y-113336030D01*
X143777215Y-113312916D01*
X143765622Y-113248226D01*
X143751603Y-113220308D01*
X143735910Y-113228975D01*
X143719292Y-113274038D01*
X143702500Y-113355312D01*
X143686536Y-113438673D01*
X143655033Y-113574401D01*
X143616542Y-113718720D01*
X143575153Y-113856562D01*
X143534953Y-113972859D01*
X143533750Y-113976037D01*
X143517045Y-114021473D01*
X143489555Y-114097548D01*
X143452686Y-114200322D01*
X143407843Y-114325857D01*
X143356432Y-114470212D01*
X143299856Y-114629449D01*
X143239522Y-114799627D01*
X143176836Y-114976807D01*
X143166829Y-115005130D01*
X143078415Y-115256518D01*
X143001305Y-115478302D01*
X142933992Y-115675208D01*
X142874972Y-115851962D01*
X142822738Y-116013291D01*
X142815686Y-116035915D01*
X142775785Y-116163918D01*
X142732608Y-116308571D01*
X142691701Y-116451976D01*
X142651558Y-116598857D01*
X142610674Y-116753942D01*
X142589677Y-116831840D01*
X142557259Y-116942957D01*
X142525045Y-117044042D01*
X142495847Y-117126391D01*
X142472481Y-117181301D01*
X142445897Y-117228288D01*
X142358397Y-117342813D01*
X142251336Y-117440767D01*
X142135204Y-117511867D01*
X142123252Y-117517266D01*
X142061660Y-117539878D01*
X141996165Y-117553248D01*
X141918612Y-117557966D01*
X141820849Y-117554624D01*
X141694719Y-117543814D01*
X141623000Y-117534152D01*
X141559569Y-117516801D01*
X141518202Y-117491356D01*
X141477695Y-117461731D01*
X141429132Y-117438706D01*
X141421384Y-117436337D01*
X141360207Y-117405337D01*
X141327433Y-117356563D01*
X141317769Y-117282596D01*
X141320492Y-117247270D01*
X141397843Y-117247270D01*
X141399257Y-117307332D01*
X141409811Y-117332844D01*
X141433639Y-117353228D01*
X141456242Y-117347844D01*
X141466294Y-117315338D01*
X141477376Y-117286612D01*
X141508547Y-117241755D01*
X141551560Y-117191124D01*
X141598112Y-117143763D01*
X141639897Y-117108715D01*
X141668612Y-117095022D01*
X141695850Y-117104204D01*
X141701103Y-117133346D01*
X141680767Y-117177561D01*
X141636038Y-117231814D01*
X141635028Y-117232847D01*
X141583175Y-117299113D01*
X141558539Y-117360671D01*
X141562175Y-117411955D01*
X141595138Y-117447405D01*
X141612964Y-117455643D01*
X141651394Y-117465515D01*
X141677415Y-117462878D01*
X141679749Y-117447695D01*
X141677726Y-117443779D01*
X141677159Y-117403062D01*
X141698121Y-117347960D01*
X141735785Y-117288257D01*
X141785322Y-117233740D01*
X141818213Y-117204799D01*
X141849831Y-117182503D01*
X141870757Y-117180462D01*
X141890355Y-117195246D01*
X141901175Y-117207459D01*
X141906225Y-117226738D01*
X141891590Y-117252605D01*
X141853734Y-117294660D01*
X141816125Y-117336708D01*
X141782241Y-117387119D01*
X141775407Y-117425314D01*
X141793575Y-117456811D01*
X141825232Y-117473164D01*
X141884499Y-117482663D01*
X141955073Y-117481101D01*
X142023719Y-117467844D01*
X142084709Y-117445386D01*
X142210250Y-117371442D01*
X142317328Y-117267640D01*
X142401917Y-117137496D01*
X142416551Y-117103195D01*
X142441307Y-117033157D01*
X142470481Y-116941206D01*
X142501574Y-116835302D01*
X142532081Y-116723406D01*
X142551749Y-116648903D01*
X142585179Y-116524624D01*
X142618285Y-116404050D01*
X142648100Y-116297947D01*
X142671657Y-116217078D01*
X142687752Y-116162129D01*
X142705505Y-116096965D01*
X142715938Y-116052416D01*
X142717186Y-116035915D01*
X142710384Y-116037457D01*
X142674528Y-116052455D01*
X142617385Y-116080103D01*
X142546709Y-116116306D01*
X142470254Y-116156970D01*
X142395774Y-116198001D01*
X142331023Y-116235304D01*
X142283753Y-116264786D01*
X142231785Y-116297779D01*
X142185132Y-116323399D01*
X142158295Y-116333208D01*
X142143598Y-116325993D01*
X142111667Y-116295251D01*
X142074776Y-116248565D01*
X142048768Y-116213744D01*
X142022535Y-116184292D01*
X142010587Y-116178887D01*
X142010237Y-116180062D01*
X142002419Y-116207085D01*
X141986767Y-116261575D01*
X141965361Y-116336276D01*
X141940284Y-116423931D01*
X141916621Y-116504163D01*
X141870412Y-116641746D01*
X141823147Y-116751277D01*
X141821848Y-116754288D01*
X141765945Y-116849646D01*
X141697719Y-116935679D01*
X141612187Y-117020244D01*
X141504364Y-117111199D01*
X141487883Y-117124803D01*
X141426516Y-117188050D01*
X141397843Y-117247270D01*
X141320492Y-117247270D01*
X141321854Y-117229602D01*
X141343833Y-117163167D01*
X141389382Y-117098924D01*
X141463589Y-117027994D01*
X141479374Y-117013978D01*
X141547364Y-116936959D01*
X141597222Y-116845510D01*
X141625551Y-116751277D01*
X141707845Y-116751277D01*
X141717135Y-116760567D01*
X141726425Y-116751277D01*
X141717135Y-116741987D01*
X141707845Y-116751277D01*
X141625551Y-116751277D01*
X141630626Y-116734397D01*
X141649256Y-116598387D01*
X141654792Y-116432246D01*
X141649024Y-116269430D01*
X141620842Y-116005112D01*
X141609335Y-115939905D01*
X141696852Y-115939905D01*
X141702910Y-115964920D01*
X141714716Y-116038871D01*
X141725141Y-116135078D01*
X141733483Y-116243531D01*
X141739041Y-116354217D01*
X141741116Y-116457125D01*
X141739006Y-116542243D01*
X141736239Y-116592303D01*
X141733577Y-116659846D01*
X141733161Y-116706193D01*
X141735158Y-116723406D01*
X141736455Y-116723179D01*
X141751869Y-116702221D01*
X141773151Y-116651266D01*
X141798824Y-116576064D01*
X141827408Y-116482369D01*
X141857425Y-116375932D01*
X141887397Y-116262505D01*
X141915845Y-116147840D01*
X141941291Y-116037690D01*
X141962256Y-115937806D01*
X141977262Y-115853940D01*
X141984831Y-115791845D01*
X141983483Y-115757272D01*
X141981573Y-115755319D01*
X141959483Y-115762663D01*
X141919061Y-115789646D01*
X141867292Y-115831788D01*
X141813421Y-115876115D01*
X141758387Y-115911205D01*
X141722923Y-115918130D01*
X141697967Y-115917461D01*
X141696852Y-115939905D01*
X141609335Y-115939905D01*
X141569362Y-115713394D01*
X141494757Y-115395066D01*
X141397195Y-115050916D01*
X141276846Y-114681731D01*
X141266373Y-114651754D01*
X141237483Y-114571024D01*
X141200789Y-114470324D01*
X141158014Y-114354221D01*
X141110883Y-114227285D01*
X141061118Y-114094086D01*
X141010443Y-113959193D01*
X140960581Y-113827174D01*
X140913257Y-113702599D01*
X140870193Y-113590037D01*
X140833113Y-113494057D01*
X140803741Y-113419229D01*
X140783799Y-113370122D01*
X140775012Y-113351304D01*
X140759559Y-113342800D01*
X140717193Y-113320630D01*
X140654791Y-113288412D01*
X140579146Y-113249673D01*
X140409513Y-113154725D01*
X140173015Y-112991642D01*
X139957670Y-112805217D01*
X139767250Y-112599234D01*
X139605528Y-112377476D01*
X139476278Y-112143726D01*
X139455728Y-112099193D01*
X139406943Y-111984020D01*
X139371238Y-111879020D01*
X139346719Y-111774763D01*
X139331491Y-111661816D01*
X139323662Y-111530748D01*
X139321336Y-111372126D01*
X139321338Y-111316498D01*
X139321796Y-111257828D01*
X139382670Y-111257828D01*
X139385452Y-111512492D01*
X139424517Y-111762194D01*
X139499708Y-112005554D01*
X139610866Y-112241188D01*
X139757834Y-112467717D01*
X139845035Y-112574553D01*
X139963729Y-112700845D01*
X140095314Y-112825667D01*
X140229287Y-112939110D01*
X140355147Y-113031266D01*
X140403873Y-113062625D01*
X140480310Y-113109212D01*
X140557256Y-113153626D01*
X140628287Y-113192395D01*
X140686978Y-113222047D01*
X140726905Y-113239111D01*
X140741641Y-113240115D01*
X140738866Y-113224712D01*
X140729311Y-113179443D01*
X140714551Y-113112227D01*
X140696268Y-113030813D01*
X140683328Y-112973393D01*
X140661315Y-112874333D01*
X140641359Y-112782993D01*
X140626590Y-112713622D01*
X140602285Y-112596523D01*
X140473970Y-112551823D01*
X140404006Y-112523482D01*
X140329716Y-112485856D01*
X140274226Y-112449722D01*
X140248181Y-112429804D01*
X140215657Y-112408956D01*
X140203058Y-112407131D01*
X140208853Y-112426480D01*
X140231302Y-112473666D01*
X140266564Y-112538632D01*
X140310254Y-112613877D01*
X140357990Y-112691900D01*
X140405385Y-112765201D01*
X140448056Y-112826279D01*
X140478639Y-112870011D01*
X140513995Y-112931359D01*
X140529444Y-112975631D01*
X140523867Y-112998857D01*
X140496148Y-112997070D01*
X140462308Y-112971183D01*
X140415691Y-112916140D01*
X140360625Y-112837940D01*
X140300329Y-112742165D01*
X140238028Y-112634396D01*
X140176940Y-112520215D01*
X140120290Y-112405202D01*
X140071297Y-112294940D01*
X140033184Y-112195008D01*
X139967862Y-111954889D01*
X139930994Y-111694464D01*
X139928411Y-111520772D01*
X140008763Y-111520772D01*
X140009070Y-111608089D01*
X140014431Y-111768526D01*
X140027825Y-111900954D01*
X140051235Y-112011350D01*
X140086644Y-112105689D01*
X140136035Y-112189945D01*
X140201393Y-112270095D01*
X140284700Y-112352113D01*
X140334905Y-112393854D01*
X140409345Y-112444068D01*
X140474869Y-112475714D01*
X140505300Y-112485774D01*
X140552546Y-112499979D01*
X140577853Y-112505556D01*
X140578951Y-112505191D01*
X140583947Y-112483805D01*
X140584057Y-112435982D01*
X140579189Y-112370845D01*
X140574844Y-112310431D01*
X140571051Y-112220533D01*
X140568116Y-112110518D01*
X140566270Y-111988981D01*
X140565898Y-111901679D01*
X140639591Y-111901679D01*
X140639827Y-112022166D01*
X140641207Y-112150820D01*
X140644236Y-112255909D01*
X140649387Y-112345099D01*
X140657131Y-112426052D01*
X140667943Y-112506432D01*
X140682295Y-112593903D01*
X140696387Y-112672944D01*
X140727412Y-112831941D01*
X140760976Y-112980875D01*
X140799205Y-113127068D01*
X140832958Y-113240115D01*
X140844223Y-113277843D01*
X140898155Y-113440522D01*
X140963126Y-113622428D01*
X141041260Y-113830882D01*
X141116251Y-114029687D01*
X141237140Y-114360036D01*
X141344280Y-114666284D01*
X141436909Y-114946167D01*
X141514266Y-115197426D01*
X141575588Y-115417796D01*
X141616217Y-115563033D01*
X141655310Y-115678140D01*
X141691298Y-115756827D01*
X141724318Y-115799395D01*
X141754510Y-115806144D01*
X141761629Y-115802376D01*
X141795693Y-115779166D01*
X141847061Y-115740812D01*
X141907642Y-115693278D01*
X142036900Y-115589573D01*
X142085865Y-115232093D01*
X142097466Y-115145359D01*
X142116193Y-114998194D01*
X142134415Y-114847369D01*
X142150518Y-114706362D01*
X142162888Y-114588652D01*
X142164122Y-114576060D01*
X142174937Y-114462742D01*
X142183124Y-114364912D01*
X142188373Y-114277349D01*
X142190370Y-114194834D01*
X142188806Y-114112145D01*
X142183367Y-114024063D01*
X142173744Y-113925368D01*
X142159623Y-113810838D01*
X142140693Y-113675254D01*
X142116643Y-113513396D01*
X142087161Y-113320042D01*
X142082158Y-113294055D01*
X142077348Y-113282952D01*
X142159858Y-113282952D01*
X142163706Y-113322419D01*
X142171595Y-113385181D01*
X142182575Y-113463228D01*
X142192572Y-113531296D01*
X142204201Y-113609308D01*
X142212270Y-113658748D01*
X142217999Y-113684575D01*
X142222602Y-113691751D01*
X142227297Y-113685234D01*
X142233302Y-113669984D01*
X142236185Y-113658591D01*
X142241570Y-113611812D01*
X142245296Y-113543175D01*
X142246689Y-113463117D01*
X142246182Y-113385220D01*
X142243498Y-113332379D01*
X142236967Y-113302134D01*
X142224921Y-113287019D01*
X142205693Y-113279565D01*
X142179247Y-113273927D01*
X142160031Y-113273511D01*
X142159858Y-113282952D01*
X142077348Y-113282952D01*
X142071892Y-113270359D01*
X142051220Y-113248581D01*
X142014371Y-113224214D01*
X141955574Y-113192752D01*
X141869060Y-113149687D01*
X141757180Y-113090360D01*
X141591626Y-112983838D01*
X141453940Y-112869712D01*
X141348769Y-112751536D01*
X141325427Y-112716850D01*
X141296580Y-112662433D01*
X141280980Y-112617010D01*
X141280854Y-112588039D01*
X141298429Y-112582977D01*
X141300436Y-112584002D01*
X141323314Y-112605005D01*
X141360749Y-112646297D01*
X141405719Y-112700205D01*
X141504583Y-112808887D01*
X141668222Y-112946104D01*
X141855102Y-113060865D01*
X141906423Y-113086055D01*
X141987016Y-113121886D01*
X142070804Y-113155874D01*
X142148592Y-113184504D01*
X142211185Y-113204261D01*
X142249388Y-113211628D01*
X142251057Y-113209313D01*
X142255742Y-113179701D01*
X142260209Y-113120247D01*
X142264182Y-113036345D01*
X142267386Y-112933392D01*
X142269545Y-112816785D01*
X142270921Y-112720430D01*
X142273207Y-112610974D01*
X142276194Y-112531242D01*
X142280244Y-112476853D01*
X142285724Y-112443427D01*
X142292998Y-112426584D01*
X142302431Y-112421943D01*
X142310106Y-112425350D01*
X142316605Y-112438998D01*
X142321467Y-112466747D01*
X142324876Y-112512438D01*
X142327015Y-112579916D01*
X142328067Y-112673024D01*
X142328215Y-112795603D01*
X142327641Y-112951496D01*
X142327448Y-112982322D01*
X142316293Y-113445024D01*
X142315318Y-113463117D01*
X142290150Y-113930286D01*
X142249970Y-114427842D01*
X142196708Y-114927421D01*
X142131315Y-115418757D01*
X142070897Y-115791845D01*
X142054746Y-115891581D01*
X142029194Y-116035251D01*
X142091983Y-116128487D01*
X142099754Y-116139929D01*
X142139904Y-116192600D01*
X142172202Y-116216208D01*
X142204884Y-116213997D01*
X142246182Y-116189207D01*
X142253478Y-116184327D01*
X142295299Y-116159911D01*
X142360633Y-116124371D01*
X142442057Y-116081687D01*
X142532150Y-116035840D01*
X142582546Y-116010527D01*
X142662239Y-115969647D01*
X142717071Y-115938899D01*
X142752668Y-115913994D01*
X142774658Y-115890643D01*
X142788668Y-115864559D01*
X142800325Y-115831451D01*
X142800769Y-115830093D01*
X142813179Y-115793703D01*
X142836603Y-115726357D01*
X142869709Y-115631834D01*
X142911166Y-115513917D01*
X142959643Y-115376384D01*
X143013810Y-115223017D01*
X143072336Y-115057597D01*
X143133889Y-114883903D01*
X143219893Y-114641312D01*
X143301781Y-114409599D01*
X143372794Y-114207018D01*
X143433733Y-114030507D01*
X143485399Y-113877002D01*
X143528592Y-113743439D01*
X143564115Y-113626756D01*
X143592767Y-113523889D01*
X143615351Y-113431774D01*
X143632666Y-113347349D01*
X143645515Y-113267549D01*
X143654698Y-113189312D01*
X143656680Y-113164299D01*
X143839999Y-113164299D01*
X143852163Y-113310151D01*
X143856610Y-113357960D01*
X143871929Y-113474335D01*
X143894592Y-113590135D01*
X143926332Y-113710898D01*
X143968880Y-113842162D01*
X144023969Y-113989466D01*
X144093329Y-114158349D01*
X144178695Y-114354349D01*
X144231673Y-114474664D01*
X144294178Y-114622116D01*
X144343190Y-114748076D01*
X144380452Y-114859488D01*
X144407705Y-114963295D01*
X144426693Y-115066439D01*
X144439158Y-115175864D01*
X144446842Y-115298513D01*
X144451487Y-115441328D01*
X144452047Y-115464704D01*
X144454952Y-115575926D01*
X144458122Y-115657236D01*
X144462493Y-115714786D01*
X144469002Y-115754722D01*
X144478585Y-115783194D01*
X144492178Y-115806351D01*
X144510717Y-115830340D01*
X144524704Y-115847132D01*
X144558127Y-115882855D01*
X144579673Y-115899636D01*
X144589491Y-115897460D01*
X144625735Y-115879078D01*
X144680217Y-115846022D01*
X144745433Y-115802679D01*
X144794724Y-115770048D01*
X144889780Y-115711560D01*
X144993692Y-115651640D01*
X145091407Y-115599145D01*
X145126875Y-115581156D01*
X145194165Y-115546755D01*
X145241540Y-115518281D01*
X145273626Y-115488693D01*
X145295053Y-115450948D01*
X145310446Y-115398005D01*
X145324435Y-115322822D01*
X145341645Y-115218358D01*
X145359559Y-115094912D01*
X145366644Y-114989326D01*
X145361154Y-114895375D01*
X145342343Y-114800896D01*
X145309466Y-114693726D01*
X145297378Y-114657711D01*
X145276397Y-114588378D01*
X145262105Y-114524818D01*
X145252845Y-114456299D01*
X145246964Y-114372086D01*
X145242804Y-114261445D01*
X145242204Y-114238807D01*
X145245460Y-114038889D01*
X145266149Y-113849860D01*
X145306312Y-113658510D01*
X145367992Y-113451630D01*
X145421228Y-113292143D01*
X145358936Y-113126543D01*
X145343560Y-113087603D01*
X145312034Y-113017642D01*
X145282894Y-112964441D01*
X145260914Y-112937219D01*
X145201765Y-112910335D01*
X145110370Y-112887430D01*
X144997189Y-112871423D01*
X144869986Y-112863394D01*
X144736520Y-112864418D01*
X144687012Y-112866915D01*
X144585897Y-112875224D01*
X144496497Y-112889085D01*
X144409972Y-112910995D01*
X144317480Y-112943451D01*
X144210178Y-112988948D01*
X144079225Y-113049983D01*
X143839999Y-113164299D01*
X143656680Y-113164299D01*
X143661017Y-113109574D01*
X143665272Y-113025272D01*
X143668264Y-112933342D01*
X143670795Y-112830721D01*
X143671814Y-112787730D01*
X143675154Y-112656529D01*
X143678415Y-112557404D01*
X143682118Y-112486386D01*
X143686785Y-112439507D01*
X143692937Y-112412800D01*
X143701095Y-112402295D01*
X143711780Y-112404024D01*
X143725513Y-112414020D01*
X143727922Y-112416192D01*
X143737671Y-112431205D01*
X143744457Y-112457457D01*
X143748608Y-112500129D01*
X143750451Y-112564400D01*
X143750312Y-112655449D01*
X143748519Y-112778458D01*
X143747250Y-112883541D01*
X143747320Y-112977733D01*
X143748674Y-113052203D01*
X143751206Y-113101143D01*
X143754809Y-113118743D01*
X143758908Y-113117563D01*
X143790063Y-113104120D01*
X143845753Y-113078049D01*
X143919706Y-113042322D01*
X144005650Y-112999910D01*
X144019639Y-112992981D01*
X144119647Y-112945438D01*
X144219315Y-112901055D01*
X144307784Y-112864527D01*
X144374194Y-112840550D01*
X144484880Y-112814093D01*
X144632759Y-112794615D01*
X144791426Y-112786970D01*
X144947694Y-112791733D01*
X145088376Y-112809477D01*
X145117664Y-112814899D01*
X145184219Y-112826009D01*
X145231973Y-112832217D01*
X145252112Y-112832296D01*
X145252615Y-112831167D01*
X145251327Y-112805742D01*
X145243751Y-112755083D01*
X145231262Y-112688663D01*
X145217518Y-112613572D01*
X145201621Y-112509254D01*
X145190363Y-112415437D01*
X145187599Y-112385847D01*
X145183506Y-112327774D01*
X145185369Y-112296583D01*
X145194395Y-112284939D01*
X145211795Y-112285511D01*
X145217462Y-112287047D01*
X145233357Y-112299919D01*
X145245948Y-112329775D01*
X145257365Y-112383297D01*
X145269741Y-112467170D01*
X145283491Y-112560218D01*
X145325988Y-112772476D01*
X145384236Y-112976016D01*
X145460859Y-113177260D01*
X145515468Y-113292143D01*
X145558481Y-113382631D01*
X145679728Y-113598552D01*
X145827224Y-113831445D01*
X145919050Y-113965993D01*
X146082365Y-114186553D01*
X146261085Y-114404533D01*
X146463616Y-114630486D01*
X146484771Y-114653354D01*
X146556435Y-114732674D01*
X146621946Y-114807809D01*
X146674800Y-114871195D01*
X146708493Y-114915269D01*
X146750736Y-114981347D01*
X146839124Y-115154368D01*
X146911986Y-115347503D01*
X146965568Y-115549846D01*
X146996114Y-115750491D01*
X146998433Y-115775213D01*
X147006833Y-115838436D01*
X147020577Y-115881732D01*
X147045353Y-115918328D01*
X147086850Y-115961449D01*
X147165462Y-116038600D01*
X147447944Y-115753900D01*
X147730426Y-115469199D01*
X147721608Y-115144035D01*
X147718888Y-115058862D01*
X147710556Y-114904209D01*
X147697177Y-114777194D01*
X147676930Y-114671415D01*
X147647995Y-114580470D01*
X147608551Y-114497959D01*
X147556778Y-114417479D01*
X147490854Y-114332628D01*
X147464164Y-114300202D01*
X147406967Y-114228661D01*
X147361902Y-114165967D01*
X147327286Y-114106370D01*
X147301438Y-114044123D01*
X147282674Y-113973478D01*
X147269313Y-113888687D01*
X147259673Y-113784002D01*
X147252072Y-113653675D01*
X147244826Y-113491958D01*
X147233120Y-113249412D01*
X147208097Y-112867335D01*
X147176245Y-112519054D01*
X147137259Y-112202796D01*
X147090837Y-111916790D01*
X147036675Y-111659263D01*
X146974469Y-111428443D01*
X146903915Y-111222557D01*
X146824710Y-111039835D01*
X146778031Y-110946990D01*
X146734792Y-110871255D01*
X146689669Y-110806991D01*
X146681686Y-110797675D01*
X147569277Y-110797675D01*
X147571420Y-110820654D01*
X147589365Y-110876836D01*
X147621730Y-110970471D01*
X147660573Y-111076803D01*
X147703512Y-111189876D01*
X147748163Y-111303731D01*
X147792142Y-111412410D01*
X147833066Y-111509956D01*
X147868552Y-111590410D01*
X147896216Y-111647816D01*
X147913675Y-111676215D01*
X147932099Y-111685585D01*
X147983603Y-111697059D01*
X148057106Y-111706100D01*
X148143782Y-111712148D01*
X148234800Y-111714642D01*
X148321332Y-111713023D01*
X148394550Y-111706730D01*
X148450341Y-111697780D01*
X148571870Y-111665904D01*
X148670420Y-111617928D01*
X148755071Y-111549900D01*
X148825194Y-111480957D01*
X148989607Y-111635576D01*
X149009690Y-111654153D01*
X149095655Y-111728176D01*
X149186193Y-111798874D01*
X149273471Y-111860630D01*
X149349657Y-111907828D01*
X149406921Y-111934851D01*
X149414833Y-111940346D01*
X149417744Y-111969950D01*
X149399753Y-112016876D01*
X149378935Y-112050326D01*
X149364086Y-112074185D01*
X149313967Y-112134935D01*
X149282404Y-112167041D01*
X149152627Y-112269374D01*
X149004858Y-112341836D01*
X148836503Y-112385459D01*
X148644971Y-112401275D01*
X148587721Y-112402569D01*
X148521815Y-112406130D01*
X148478368Y-112411161D01*
X148464731Y-112417018D01*
X148466289Y-112418945D01*
X148489851Y-112439243D01*
X148534158Y-112473308D01*
X148591177Y-112514921D01*
X148710943Y-112591623D01*
X148894642Y-112679402D01*
X149103016Y-112746571D01*
X149161566Y-112759287D01*
X149276314Y-112776032D01*
X149409060Y-112788323D01*
X149548902Y-112795663D01*
X149684938Y-112797556D01*
X149806269Y-112793505D01*
X149901992Y-112783011D01*
X149942597Y-112775121D01*
X150042640Y-112750028D01*
X150138369Y-112719125D01*
X150218965Y-112686143D01*
X150273609Y-112654813D01*
X150320061Y-112619106D01*
X150236447Y-112583008D01*
X150205598Y-112570679D01*
X150127509Y-112544191D01*
X150050639Y-112522934D01*
X149993819Y-112507453D01*
X149930237Y-112480357D01*
X149903163Y-112452308D01*
X149912682Y-112424740D01*
X149958882Y-112399087D01*
X150041847Y-112376784D01*
X150095369Y-112364212D01*
X150247361Y-112309144D01*
X150390758Y-112230512D01*
X150511898Y-112135334D01*
X150571102Y-112073453D01*
X150601733Y-112027238D01*
X150602888Y-111996059D01*
X150575548Y-111977481D01*
X150562308Y-111974943D01*
X150514602Y-111969412D01*
X150441177Y-111962835D01*
X150349174Y-111955828D01*
X150245738Y-111949008D01*
X150193845Y-111945649D01*
X150084163Y-111937389D01*
X149983406Y-111928354D01*
X149900969Y-111919427D01*
X149846250Y-111911489D01*
X149776714Y-111896405D01*
X149652151Y-111862148D01*
X149526413Y-111820046D01*
X149412154Y-111774483D01*
X149322023Y-111729843D01*
X149210596Y-111652210D01*
X149084864Y-111538320D01*
X148950745Y-111392543D01*
X148809683Y-111216685D01*
X148663125Y-111012554D01*
X148512517Y-110781956D01*
X148359303Y-110526698D01*
X148353613Y-110516840D01*
X148309256Y-110440192D01*
X148272266Y-110376635D01*
X148246364Y-110332543D01*
X148235272Y-110314288D01*
X148230756Y-110314494D01*
X148206186Y-110330941D01*
X148169051Y-110363593D01*
X148138679Y-110390641D01*
X148066515Y-110448230D01*
X147976325Y-110514829D01*
X147876918Y-110584194D01*
X147777100Y-110650082D01*
X147685679Y-110706249D01*
X147675913Y-110711972D01*
X147615751Y-110749113D01*
X147582130Y-110775754D01*
X147569277Y-110797675D01*
X146681686Y-110797675D01*
X146634371Y-110742459D01*
X146560605Y-110665921D01*
X146528159Y-110633565D01*
X146453563Y-110563641D01*
X146388042Y-110511385D01*
X146320932Y-110468846D01*
X146241568Y-110428074D01*
X146216960Y-110416593D01*
X146128573Y-110378790D01*
X146041729Y-110346002D01*
X145972146Y-110324286D01*
X145941338Y-110317014D01*
X145814893Y-110294842D01*
X145663305Y-110277506D01*
X145495720Y-110265702D01*
X145321281Y-110260129D01*
X145149134Y-110261485D01*
X145094863Y-110263183D01*
X145000988Y-110267160D01*
X144926725Y-110273257D01*
X144861107Y-110283419D01*
X144793167Y-110299593D01*
X144711939Y-110323724D01*
X144606455Y-110357756D01*
X144485793Y-110396498D01*
X144272176Y-110460624D01*
X144080825Y-110510971D01*
X143904305Y-110549048D01*
X143735185Y-110576362D01*
X143566031Y-110594423D01*
X143389410Y-110604737D01*
X143298081Y-110607226D01*
X143032962Y-110601488D01*
X142786518Y-110574749D01*
X142549099Y-110526105D01*
X142375030Y-110481949D01*
X142242176Y-110621809D01*
X142188285Y-110676699D01*
X142082578Y-110770665D01*
X141986539Y-110834054D01*
X141895769Y-110868849D01*
X141805869Y-110877033D01*
X141712443Y-110860588D01*
X141685556Y-110852174D01*
X141636183Y-110831363D01*
X141588973Y-110801139D01*
X141535073Y-110755294D01*
X141465628Y-110687625D01*
X141435570Y-110656322D01*
X141358829Y-110569062D01*
X141284399Y-110475788D01*
X141224891Y-110391987D01*
X141197132Y-110349767D01*
X141157905Y-110292598D01*
X141128853Y-110253411D01*
X141114810Y-110238925D01*
X141111920Y-110240154D01*
X141092128Y-110261255D01*
X141064458Y-110300192D01*
X141059804Y-110307181D01*
X141024848Y-110354971D01*
X140976297Y-110416829D01*
X140923170Y-110481200D01*
X140905740Y-110501886D01*
X140865449Y-110552815D01*
X140836877Y-110598154D01*
X140815165Y-110648389D01*
X140802397Y-110690886D01*
X140795452Y-110714004D01*
X140772880Y-110805485D01*
X140733642Y-110974053D01*
X140702380Y-111118678D01*
X140678827Y-111244738D01*
X140661922Y-111360952D01*
X140650606Y-111476036D01*
X140643819Y-111598707D01*
X140640500Y-111737682D01*
X140639591Y-111901679D01*
X140565898Y-111901679D01*
X140565740Y-111864518D01*
X140565859Y-111828583D01*
X140568638Y-111659440D01*
X140575990Y-111510916D01*
X140589207Y-111371790D01*
X140609580Y-111230842D01*
X140638403Y-111076849D01*
X140676967Y-110898592D01*
X140692663Y-110827145D01*
X140706794Y-110758079D01*
X140715364Y-110710151D01*
X140716925Y-110690886D01*
X140712536Y-110690753D01*
X140683883Y-110700909D01*
X140638896Y-110722077D01*
X140625385Y-110728679D01*
X140530947Y-110756748D01*
X140442364Y-110748743D01*
X140356087Y-110704443D01*
X140330587Y-110685357D01*
X140289968Y-110651990D01*
X140268588Y-110630119D01*
X140263863Y-110623747D01*
X140241613Y-110610311D01*
X140237442Y-110612115D01*
X140217834Y-110638549D01*
X140190374Y-110691235D01*
X140158002Y-110763366D01*
X140123663Y-110848137D01*
X140090298Y-110938744D01*
X140060850Y-111028380D01*
X140050723Y-111062130D01*
X140034643Y-111121303D01*
X140023361Y-111176382D01*
X140016005Y-111235618D01*
X140011702Y-111307261D01*
X140009579Y-111399562D01*
X140008763Y-111520772D01*
X139928411Y-111520772D01*
X139927102Y-111432717D01*
X139955926Y-111174730D01*
X140017203Y-110925589D01*
X140110671Y-110690377D01*
X140126930Y-110656443D01*
X140156313Y-110593399D01*
X140176630Y-110547382D01*
X140184216Y-110526555D01*
X140183299Y-110522991D01*
X140167947Y-110495988D01*
X140139667Y-110455780D01*
X140123438Y-110432181D01*
X140087956Y-110374726D01*
X140045297Y-110300990D01*
X140001464Y-110221164D01*
X139907811Y-110045696D01*
X139839312Y-110118969D01*
X139838956Y-110119350D01*
X139759259Y-110216513D01*
X139677833Y-110336237D01*
X139602947Y-110465362D01*
X139542869Y-110590732D01*
X139486593Y-110739139D01*
X139416331Y-110999583D01*
X139382670Y-111257828D01*
X139321796Y-111257828D01*
X139322189Y-111207571D01*
X139324923Y-111123525D01*
X139330396Y-111055736D01*
X139339464Y-110995577D01*
X139352984Y-110934420D01*
X139371813Y-110863640D01*
X139390579Y-110799144D01*
X139471260Y-110573656D01*
X139568073Y-110371689D01*
X139678822Y-110197374D01*
X139801316Y-110054842D01*
X139883659Y-109974029D01*
X139846748Y-109888037D01*
X139842225Y-109877271D01*
X139808463Y-109784438D01*
X139773798Y-109670534D01*
X139740435Y-109544914D01*
X139710576Y-109416933D01*
X139686426Y-109295946D01*
X139670187Y-109191310D01*
X139664062Y-109112378D01*
X139663493Y-109110527D01*
X139642906Y-109090874D01*
X139597141Y-109057773D01*
X139532203Y-109015358D01*
X139454096Y-108967765D01*
X139451827Y-108966425D01*
X139190217Y-108798868D01*
X138957406Y-108621487D01*
X138745273Y-108428097D01*
X138605578Y-108281617D01*
X138397880Y-108029339D01*
X138223150Y-107769121D01*
X138082437Y-107502798D01*
X137976786Y-107232205D01*
X137907246Y-106959178D01*
X137901137Y-106922004D01*
X137889028Y-106801706D01*
X137883792Y-106664410D01*
X137884441Y-106596851D01*
X137950016Y-106596851D01*
X137952714Y-106716200D01*
X137974570Y-106924129D01*
X138020178Y-107127140D01*
X138091753Y-107334002D01*
X138191507Y-107553481D01*
X138272958Y-107703576D01*
X138439816Y-107958341D01*
X138635251Y-108202488D01*
X138853840Y-108430071D01*
X139090160Y-108635141D01*
X139338788Y-108811750D01*
X139345116Y-108815756D01*
X139421116Y-108863126D01*
X139496961Y-108909290D01*
X139557113Y-108944781D01*
X139645372Y-108995345D01*
X139645476Y-108841270D01*
X139645869Y-108819412D01*
X139722142Y-108819412D01*
X139725758Y-108950120D01*
X139737096Y-109093221D01*
X139755690Y-109242835D01*
X139781074Y-109393085D01*
X139812783Y-109538093D01*
X139850351Y-109671979D01*
X139862273Y-109708459D01*
X139922728Y-109872975D01*
X139991563Y-110032306D01*
X140066339Y-110182670D01*
X140144616Y-110320282D01*
X140223956Y-110441359D01*
X140301920Y-110542116D01*
X140376067Y-110618771D01*
X140443959Y-110667538D01*
X140503157Y-110684635D01*
X140542003Y-110680401D01*
X140614821Y-110652036D01*
X140695397Y-110595684D01*
X140785463Y-110509809D01*
X140886755Y-110392873D01*
X141001005Y-110243340D01*
X141021988Y-110215321D01*
X141066636Y-110160654D01*
X141102884Y-110122787D01*
X141124403Y-110108629D01*
X141125119Y-110108649D01*
X141151738Y-110124115D01*
X141180363Y-110159726D01*
X141249740Y-110271960D01*
X141363462Y-110441630D01*
X141467479Y-110577153D01*
X141562502Y-110679424D01*
X141649244Y-110749337D01*
X141690243Y-110773713D01*
X141773023Y-110803637D01*
X141854117Y-110801455D01*
X141944030Y-110767825D01*
X142010722Y-110727970D01*
X142120755Y-110638176D01*
X142233606Y-110520163D01*
X142317481Y-110415238D01*
X142435619Y-110415238D01*
X142453267Y-110423859D01*
X142502239Y-110438840D01*
X142573529Y-110456657D01*
X142659135Y-110475467D01*
X142751052Y-110493426D01*
X142841275Y-110508690D01*
X142853221Y-110510454D01*
X142976781Y-110523181D01*
X143124038Y-110530714D01*
X143283217Y-110533050D01*
X143442548Y-110530188D01*
X143590258Y-110522126D01*
X143714575Y-110508860D01*
X143812979Y-110492745D01*
X144031531Y-110446290D01*
X144274491Y-110381344D01*
X144543163Y-110297485D01*
X144838853Y-110194293D01*
X144893225Y-110173662D01*
X145117428Y-110173662D01*
X145238203Y-110178095D01*
X145337239Y-110182569D01*
X145494935Y-110192848D01*
X145647425Y-110206333D01*
X145786720Y-110222183D01*
X145904832Y-110239556D01*
X145993771Y-110257612D01*
X146075383Y-110281355D01*
X146225293Y-110339091D01*
X146367586Y-110410501D01*
X146487488Y-110488670D01*
X146526085Y-110516831D01*
X146568179Y-110544047D01*
X146591559Y-110554569D01*
X146592188Y-110554501D01*
X146613305Y-110539662D01*
X146653544Y-110502505D01*
X146707867Y-110448278D01*
X146771232Y-110382228D01*
X146838600Y-110309602D01*
X146863597Y-110281732D01*
X146984801Y-110281732D01*
X146991689Y-110286820D01*
X147025712Y-110298444D01*
X147078620Y-110311478D01*
X147142800Y-110321004D01*
X147245954Y-110327748D01*
X147365421Y-110329178D01*
X147489948Y-110325445D01*
X147608277Y-110316699D01*
X147709155Y-110303090D01*
X147725811Y-110299995D01*
X147896856Y-110258907D01*
X148059671Y-110203677D01*
X148207031Y-110137506D01*
X148331707Y-110063598D01*
X148426472Y-109985157D01*
X148452943Y-109956323D01*
X148522256Y-109870289D01*
X148598717Y-109763812D01*
X148676204Y-109646029D01*
X148748596Y-109526074D01*
X148809772Y-109413085D01*
X148920830Y-109168641D01*
X149033467Y-108843621D01*
X149109649Y-108512341D01*
X149149265Y-108175880D01*
X149152201Y-107835314D01*
X149118344Y-107491721D01*
X149047581Y-107146179D01*
X149023219Y-107056849D01*
X148992084Y-106953327D01*
X148959731Y-106854808D01*
X148928385Y-106767454D01*
X148900270Y-106697429D01*
X148877613Y-106650894D01*
X148862639Y-106634013D01*
X148862630Y-106634013D01*
X148839362Y-106641214D01*
X148792560Y-106660063D01*
X148732344Y-106686483D01*
X148616755Y-106738953D01*
X148602792Y-106793942D01*
X148527462Y-107090616D01*
X148390876Y-107578342D01*
X148225607Y-108069491D01*
X148038865Y-108537173D01*
X147831554Y-108979467D01*
X147604577Y-109394454D01*
X147535557Y-109502801D01*
X147358838Y-109780213D01*
X147144515Y-110068536D01*
X147095240Y-110134824D01*
X147067507Y-110169607D01*
X147024983Y-110224371D01*
X146995703Y-110264023D01*
X146984801Y-110281732D01*
X146863597Y-110281732D01*
X146904931Y-110235647D01*
X146965184Y-110165610D01*
X147046458Y-110068536D01*
X146931501Y-109960831D01*
X146819498Y-109868116D01*
X146660130Y-109772124D01*
X146493913Y-109710313D01*
X146473186Y-109704978D01*
X146428324Y-109695266D01*
X146389721Y-109692785D01*
X146346974Y-109698583D01*
X146289676Y-109713710D01*
X146207423Y-109739218D01*
X146161342Y-109754729D01*
X146073310Y-109786696D01*
X145963323Y-109828437D01*
X145838483Y-109877204D01*
X145705894Y-109930248D01*
X145572658Y-109984821D01*
X145117428Y-110173662D01*
X144893225Y-110173662D01*
X145162866Y-110071348D01*
X145516507Y-109928229D01*
X145631439Y-109880818D01*
X145847009Y-109794546D01*
X146035904Y-109723430D01*
X146202490Y-109666361D01*
X146351131Y-109622228D01*
X146486192Y-109589923D01*
X146612039Y-109568336D01*
X146733035Y-109556358D01*
X146853547Y-109552879D01*
X146977938Y-109556790D01*
X146993671Y-109557729D01*
X147103905Y-109568032D01*
X147177582Y-109582865D01*
X147215005Y-109602316D01*
X147216476Y-109626475D01*
X147216194Y-109626829D01*
X147193138Y-109631733D01*
X147140897Y-109634158D01*
X147066944Y-109633964D01*
X146978751Y-109631007D01*
X146890787Y-109628034D01*
X146795916Y-109627299D01*
X146715539Y-109629202D01*
X146660949Y-109633650D01*
X146571406Y-109647077D01*
X146665763Y-109690794D01*
X146776634Y-109748863D01*
X146881958Y-109821645D01*
X146989726Y-109916430D01*
X147082606Y-110005443D01*
X147137029Y-109940906D01*
X147161190Y-109910771D01*
X147204986Y-109851997D01*
X147254741Y-109781882D01*
X147305824Y-109707328D01*
X147353604Y-109635239D01*
X147393453Y-109572519D01*
X147420741Y-109526072D01*
X147430836Y-109502801D01*
X147426361Y-109494069D01*
X147394071Y-109469882D01*
X147336007Y-109438668D01*
X147258593Y-109403138D01*
X147168252Y-109366000D01*
X147071405Y-109329964D01*
X146974477Y-109297741D01*
X146883889Y-109272039D01*
X146722043Y-109235797D01*
X146461765Y-109197551D01*
X146194461Y-109183619D01*
X145912891Y-109193748D01*
X145609820Y-109227686D01*
X145562251Y-109234746D01*
X145421167Y-109258269D01*
X145287735Y-109285290D01*
X145156072Y-109317599D01*
X145020298Y-109356990D01*
X144874531Y-109405255D01*
X144712888Y-109464187D01*
X144529489Y-109535577D01*
X144318452Y-109621219D01*
X144213231Y-109664310D01*
X144037798Y-109734606D01*
X143888348Y-109791603D01*
X143759749Y-109836650D01*
X143646868Y-109871098D01*
X143544571Y-109896297D01*
X143447726Y-109913598D01*
X143351199Y-109924351D01*
X143249858Y-109929906D01*
X143138569Y-109931613D01*
X143126496Y-109931621D01*
X143026187Y-109930530D01*
X142933447Y-109927655D01*
X142858138Y-109923402D01*
X142810123Y-109918174D01*
X142732519Y-109904237D01*
X142672215Y-110011078D01*
X142664338Y-110024904D01*
X142621629Y-110097464D01*
X142570345Y-110181922D01*
X142519904Y-110262717D01*
X142498226Y-110297406D01*
X142463728Y-110355584D01*
X142441513Y-110397299D01*
X142435619Y-110415238D01*
X142317481Y-110415238D01*
X142346481Y-110378960D01*
X142456590Y-110219599D01*
X142561138Y-110047111D01*
X142657333Y-109866525D01*
X142682907Y-109811301D01*
X142783796Y-109811301D01*
X142788760Y-109832082D01*
X142804986Y-109843143D01*
X142831985Y-109850305D01*
X142867629Y-109854809D01*
X142933447Y-109858896D01*
X143017729Y-109861669D01*
X143110697Y-109862694D01*
X143119007Y-109862691D01*
X143211505Y-109861921D01*
X143295082Y-109859021D01*
X143373667Y-109852880D01*
X143451187Y-109842388D01*
X143531569Y-109826433D01*
X143618740Y-109803906D01*
X143716627Y-109773694D01*
X143829158Y-109734687D01*
X143960260Y-109685774D01*
X144113859Y-109625844D01*
X144293883Y-109553787D01*
X144504260Y-109468490D01*
X144551181Y-109449574D01*
X144838205Y-109342383D01*
X145107269Y-109258310D01*
X145366539Y-109195640D01*
X145624181Y-109152654D01*
X145888360Y-109127638D01*
X146167245Y-109118872D01*
X146246229Y-109119167D01*
X146489628Y-109129748D01*
X146710170Y-109156475D01*
X146916806Y-109201148D01*
X147118490Y-109265567D01*
X147324176Y-109351535D01*
X147367798Y-109371306D01*
X147430662Y-109398229D01*
X147475203Y-109415246D01*
X147493811Y-109419315D01*
X147494232Y-109418777D01*
X147507378Y-109397485D01*
X147534798Y-109351017D01*
X147572756Y-109285754D01*
X147617516Y-109208073D01*
X147661857Y-109129290D01*
X147828480Y-108805532D01*
X147987391Y-108452611D01*
X148135955Y-108076664D01*
X148271539Y-107683830D01*
X148281288Y-107653250D01*
X148318637Y-107532343D01*
X148356114Y-107405770D01*
X148392352Y-107278682D01*
X148425988Y-107156233D01*
X148455654Y-107043577D01*
X148479987Y-106945866D01*
X148497620Y-106868255D01*
X148507188Y-106815896D01*
X148507325Y-106793942D01*
X148488749Y-106794670D01*
X148445091Y-106806986D01*
X148386753Y-106828447D01*
X148337666Y-106847369D01*
X148090998Y-106920600D01*
X147827923Y-106965870D01*
X147555279Y-106983028D01*
X147279905Y-106971923D01*
X147008640Y-106932408D01*
X146748322Y-106864331D01*
X146622343Y-106819293D01*
X146347971Y-106693711D01*
X146075775Y-106531218D01*
X145805952Y-106331952D01*
X145538698Y-106096053D01*
X145274210Y-105823660D01*
X145154589Y-105691508D01*
X144875877Y-105761020D01*
X144817194Y-105776040D01*
X144733701Y-105798988D01*
X144670264Y-105818480D01*
X144632252Y-105832820D01*
X144625035Y-105840308D01*
X144632280Y-105842813D01*
X144672251Y-105856405D01*
X144733780Y-105877178D01*
X144806845Y-105901744D01*
X144887106Y-105930720D01*
X144998271Y-105978320D01*
X145091380Y-106027400D01*
X145160388Y-106074648D01*
X145199253Y-106116753D01*
X145202748Y-106123185D01*
X145217236Y-106176002D01*
X145219183Y-106183098D01*
X145202977Y-106237996D01*
X145153391Y-106288296D01*
X145069684Y-106334416D01*
X144951119Y-106376774D01*
X144796956Y-106415789D01*
X144606455Y-106451878D01*
X144595205Y-106453755D01*
X144508354Y-106468617D01*
X144436693Y-106481512D01*
X144387386Y-106491112D01*
X144367598Y-106496092D01*
X144370037Y-106502362D01*
X144392440Y-106527196D01*
X144431174Y-106563189D01*
X144433319Y-106565078D01*
X144500267Y-106631753D01*
X144555349Y-106700852D01*
X144592701Y-106764016D01*
X144606455Y-106812890D01*
X144596397Y-106847724D01*
X144559144Y-106887125D01*
X144538228Y-106897097D01*
X144471675Y-106909502D01*
X144382955Y-106910037D01*
X144280735Y-106899406D01*
X144173682Y-106878312D01*
X144070464Y-106847458D01*
X144054357Y-106841705D01*
X143992225Y-106820701D01*
X143947245Y-106807386D01*
X143928244Y-106804429D01*
X143927902Y-106819474D01*
X143931748Y-106864694D01*
X143939398Y-106932404D01*
X143950055Y-107014920D01*
X143955173Y-107055300D01*
X143966786Y-107191082D01*
X143970853Y-107341138D01*
X143967768Y-107516603D01*
X143963152Y-107620040D01*
X143953019Y-107747140D01*
X143944822Y-107807653D01*
X143936816Y-107866751D01*
X143912702Y-107989408D01*
X143878837Y-108125644D01*
X143833381Y-108285996D01*
X143828052Y-108306901D01*
X143833265Y-108323608D01*
X143864932Y-108318906D01*
X143866303Y-108318560D01*
X143903771Y-108312197D01*
X143968873Y-108303831D01*
X144052829Y-108294511D01*
X144146862Y-108285283D01*
X144216112Y-108280038D01*
X144364550Y-108275468D01*
X144514375Y-108278857D01*
X144660772Y-108289411D01*
X144798929Y-108306335D01*
X144924029Y-108328835D01*
X145031260Y-108356116D01*
X145115806Y-108387384D01*
X145172854Y-108421844D01*
X145197589Y-108458701D01*
X145197876Y-108471889D01*
X145195865Y-108476398D01*
X145177181Y-108518287D01*
X145127764Y-108573692D01*
X145053888Y-108634443D01*
X144959819Y-108696877D01*
X144849823Y-108757331D01*
X144650501Y-108856949D01*
X144770098Y-108898688D01*
X144816921Y-108916131D01*
X144902259Y-108954125D01*
X144971099Y-108993018D01*
X145017074Y-109028959D01*
X145033814Y-109058099D01*
X145033707Y-109060056D01*
X145015440Y-109091011D01*
X144971450Y-109129319D01*
X144909840Y-109168929D01*
X144838715Y-109203788D01*
X144757722Y-109233900D01*
X144600535Y-109279012D01*
X144415220Y-109319252D01*
X144207243Y-109353869D01*
X143982068Y-109382110D01*
X143745158Y-109403226D01*
X143501979Y-109416464D01*
X143257994Y-109421075D01*
X142922189Y-109421138D01*
X142852898Y-109602301D01*
X142841391Y-109632416D01*
X142809621Y-109717290D01*
X142790586Y-109774977D01*
X142783796Y-109811301D01*
X142682907Y-109811301D01*
X142742383Y-109682873D01*
X142813495Y-109501186D01*
X142862082Y-109345106D01*
X143101407Y-109345106D01*
X143366184Y-109341315D01*
X143459609Y-109339381D01*
X143766293Y-109324402D01*
X144056423Y-109296907D01*
X144323621Y-109257612D01*
X144561511Y-109207232D01*
X144600402Y-109197082D01*
X144699702Y-109167933D01*
X144787767Y-109137673D01*
X144858375Y-109108758D01*
X144905303Y-109083646D01*
X144922329Y-109064792D01*
X144920438Y-109059840D01*
X144893640Y-109039220D01*
X144840900Y-109012653D01*
X144769607Y-108983270D01*
X144687147Y-108954201D01*
X144600910Y-108928577D01*
X144546860Y-108913243D01*
X144502691Y-108896361D01*
X144482765Y-108879526D01*
X144480135Y-108858721D01*
X144480891Y-108855070D01*
X144507245Y-108823153D01*
X144569293Y-108795185D01*
X144662197Y-108760370D01*
X144770759Y-108711292D01*
X144876193Y-108656199D01*
X144967709Y-108600764D01*
X145034518Y-108550657D01*
X145117428Y-108476398D01*
X145043104Y-108444828D01*
X145027152Y-108438378D01*
X144912294Y-108404696D01*
X144766650Y-108379488D01*
X144594985Y-108363406D01*
X144402065Y-108357102D01*
X144392230Y-108357060D01*
X144272414Y-108358864D01*
X144150746Y-108364423D01*
X144035029Y-108373045D01*
X143933065Y-108384038D01*
X143852657Y-108396710D01*
X143801607Y-108410369D01*
X143801322Y-108410498D01*
X143783746Y-108430360D01*
X143752947Y-108476068D01*
X143713186Y-108540955D01*
X143668726Y-108618349D01*
X143635803Y-108674236D01*
X143553336Y-108795917D01*
X143459518Y-108915064D01*
X143361146Y-109023906D01*
X143265015Y-109114671D01*
X143177921Y-109179587D01*
X143131775Y-109212045D01*
X143108132Y-109244063D01*
X143101907Y-109285573D01*
X143101407Y-109345106D01*
X142862082Y-109345106D01*
X142867876Y-109326493D01*
X142902734Y-109163826D01*
X142915276Y-109018214D01*
X142912674Y-108957802D01*
X142889736Y-108854995D01*
X142843302Y-108780962D01*
X142773575Y-108735868D01*
X142680756Y-108719878D01*
X142565047Y-108733156D01*
X142534511Y-108740369D01*
X142355687Y-108800348D01*
X142168042Y-108890953D01*
X141975989Y-109008965D01*
X141783940Y-109151166D01*
X141596309Y-109314338D01*
X141417509Y-109495264D01*
X141251953Y-109690724D01*
X141226618Y-109722570D01*
X141169940Y-109788194D01*
X141128478Y-109827066D01*
X141104571Y-109836867D01*
X141096260Y-109830403D01*
X141069521Y-109796980D01*
X141033433Y-109742627D01*
X140993391Y-109675189D01*
X140884337Y-109496966D01*
X140706581Y-109250036D01*
X140492775Y-108994119D01*
X140432509Y-108927616D01*
X140291335Y-108782350D01*
X140164246Y-108667393D01*
X140051875Y-108583121D01*
X139954858Y-108529912D01*
X139873829Y-108508142D01*
X139809424Y-108518188D01*
X139762278Y-108560427D01*
X139739938Y-108618684D01*
X139726713Y-108706974D01*
X139722142Y-108819412D01*
X139645869Y-108819412D01*
X139646556Y-108781232D01*
X139658182Y-108658549D01*
X139683698Y-108562067D01*
X139724518Y-108485416D01*
X139762285Y-108432285D01*
X139724594Y-108355351D01*
X139706058Y-108321338D01*
X139677582Y-108287846D01*
X139635452Y-108261656D01*
X139568588Y-108234159D01*
X139465059Y-108192831D01*
X139302548Y-108118787D01*
X139140321Y-108034968D01*
X138985424Y-107945521D01*
X138844901Y-107854592D01*
X138725797Y-107766326D01*
X138635159Y-107684869D01*
X138609381Y-107658459D01*
X138578004Y-107628881D01*
X138560872Y-107619552D01*
X138557972Y-107633292D01*
X138569294Y-107672920D01*
X138594827Y-107741256D01*
X138634560Y-107841118D01*
X138655819Y-107894240D01*
X138680424Y-107958340D01*
X138692516Y-107997687D01*
X138693010Y-108018317D01*
X138682825Y-108026267D01*
X138662876Y-108027575D01*
X138644148Y-108020402D01*
X138616586Y-107987845D01*
X138584498Y-107926685D01*
X138546602Y-107834388D01*
X138501617Y-107708418D01*
X138466629Y-107591617D01*
X138441580Y-107470053D01*
X138426775Y-107338637D01*
X138421228Y-107188506D01*
X138421513Y-107169921D01*
X138496897Y-107169921D01*
X138504104Y-107272937D01*
X138520922Y-107357773D01*
X138549449Y-107432568D01*
X138591781Y-107505460D01*
X138650016Y-107584587D01*
X138677610Y-107617223D01*
X138779991Y-107714288D01*
X138913765Y-107814475D01*
X139075076Y-107915302D01*
X139260065Y-108014288D01*
X139464876Y-108108949D01*
X139500410Y-108124057D01*
X139565448Y-108150821D01*
X139613325Y-108169318D01*
X139635605Y-108176222D01*
X139641845Y-108166394D01*
X139637722Y-108134415D01*
X139629227Y-108104398D01*
X139594351Y-107966339D01*
X139575272Y-107852646D01*
X139573117Y-107782206D01*
X139645369Y-107782206D01*
X139659340Y-107920656D01*
X139701798Y-108083259D01*
X139772468Y-108267295D01*
X139780824Y-108286460D01*
X139811028Y-108353408D01*
X139834436Y-108395369D01*
X139857581Y-108419781D01*
X139883302Y-108432285D01*
X139887000Y-108434083D01*
X139929227Y-108445712D01*
X139948508Y-108451126D01*
X140041052Y-108491163D01*
X140145208Y-108558208D01*
X140263352Y-108653955D01*
X140397858Y-108780099D01*
X140442790Y-108824939D01*
X140590496Y-108979851D01*
X140717798Y-109127563D01*
X140833157Y-109278313D01*
X140945034Y-109442343D01*
X140959181Y-109464153D01*
X141010662Y-109543649D01*
X141054828Y-109612044D01*
X141087367Y-109662651D01*
X141103967Y-109688785D01*
X141110588Y-109696168D01*
X141125886Y-109695971D01*
X141150252Y-109676952D01*
X141187969Y-109635382D01*
X141243324Y-109567534D01*
X141375376Y-109414940D01*
X141530989Y-109260414D01*
X141697567Y-109117061D01*
X141870646Y-108987734D01*
X142045762Y-108875284D01*
X142218451Y-108782564D01*
X142384248Y-108712426D01*
X142538691Y-108667722D01*
X142677315Y-108651304D01*
X142751785Y-108654689D01*
X142830160Y-108675406D01*
X142890871Y-108719278D01*
X142943470Y-108791332D01*
X142960044Y-108825046D01*
X142972559Y-108871536D01*
X142978883Y-108934753D01*
X142980503Y-109018214D01*
X142980632Y-109024857D01*
X142980632Y-109195292D01*
X143053479Y-109154923D01*
X143061839Y-109150104D01*
X143129676Y-109102078D01*
X143211272Y-109032735D01*
X143299183Y-108949411D01*
X143385966Y-108859442D01*
X143464178Y-108770162D01*
X143526373Y-108688908D01*
X143631666Y-108518032D01*
X143737596Y-108298878D01*
X143817814Y-108074028D01*
X143833555Y-108018187D01*
X143850262Y-107946439D01*
X143858658Y-107881080D01*
X143860296Y-107807653D01*
X143856728Y-107711701D01*
X143845532Y-107586533D01*
X143813229Y-107398406D01*
X143765076Y-107215020D01*
X143704692Y-107052082D01*
X143667861Y-106975129D01*
X143549666Y-106783350D01*
X143404784Y-106612185D01*
X143237270Y-106465395D01*
X143051179Y-106346741D01*
X142850566Y-106259984D01*
X142825713Y-106251871D01*
X142759557Y-106234001D01*
X142692365Y-106223212D01*
X142612123Y-106217996D01*
X142506820Y-106216846D01*
X142420389Y-106217852D01*
X142343819Y-106221778D01*
X142283397Y-106230279D01*
X142227788Y-106245046D01*
X142165660Y-106267769D01*
X142017562Y-106339394D01*
X141850398Y-106450741D01*
X141690555Y-106588641D01*
X141544315Y-106747597D01*
X141417962Y-106922108D01*
X141399642Y-106950248D01*
X141359074Y-107007159D01*
X141325861Y-107046613D01*
X141305830Y-107061372D01*
X141298549Y-107058363D01*
X141279088Y-107030331D01*
X141262152Y-106982404D01*
X141250985Y-106939733D01*
X141214442Y-106815893D01*
X141170675Y-106684105D01*
X141123643Y-106555393D01*
X141077302Y-106440783D01*
X141035610Y-106351300D01*
X140950788Y-106207749D01*
X140862331Y-106098753D01*
X140768344Y-106023236D01*
X140666535Y-105979360D01*
X140554612Y-105965284D01*
X140443083Y-105979315D01*
X140323291Y-106028303D01*
X140208652Y-106112901D01*
X140098545Y-106233576D01*
X139992352Y-106390797D01*
X139974326Y-106421974D01*
X139941517Y-106486031D01*
X139915045Y-106552052D01*
X139893621Y-106625898D01*
X139875955Y-106713432D01*
X139860757Y-106820516D01*
X139846737Y-106953012D01*
X139832606Y-107116781D01*
X139826241Y-107192217D01*
X139817590Y-107271210D01*
X139806436Y-107332127D01*
X139789947Y-107385953D01*
X139765292Y-107443671D01*
X139729639Y-107516269D01*
X139728725Y-107518086D01*
X139687224Y-107604889D01*
X139661734Y-107670786D01*
X139648900Y-107726363D01*
X139645369Y-107782206D01*
X139573117Y-107782206D01*
X139572297Y-107755404D01*
X139585735Y-107666695D01*
X139615895Y-107578602D01*
X139663085Y-107483207D01*
X139675539Y-107460372D01*
X139706777Y-107399410D01*
X139727583Y-107347490D01*
X139741086Y-107293078D01*
X139750415Y-107224635D01*
X139758696Y-107130625D01*
X139778644Y-106917401D01*
X139804797Y-106707758D01*
X139835251Y-106520647D01*
X139869207Y-106360928D01*
X139905869Y-106233462D01*
X139922719Y-106184013D01*
X139924193Y-106179571D01*
X140016989Y-106179571D01*
X140017034Y-106179930D01*
X140029509Y-106172172D01*
X140059840Y-106142780D01*
X140101814Y-106097746D01*
X140164277Y-106038410D01*
X140271417Y-105964538D01*
X140388435Y-105909090D01*
X140501914Y-105879386D01*
X140570725Y-105875496D01*
X140693679Y-105896316D01*
X140810640Y-105952552D01*
X140920235Y-106043205D01*
X141021094Y-106167275D01*
X141111842Y-106323762D01*
X141134258Y-106370746D01*
X141183672Y-106483366D01*
X141230842Y-106601245D01*
X141268013Y-106705430D01*
X141330484Y-106897623D01*
X141418403Y-106774415D01*
X141432250Y-106755239D01*
X141587108Y-106568567D01*
X141754641Y-106413765D01*
X141932893Y-106291586D01*
X142119911Y-106202786D01*
X142313740Y-106148116D01*
X142512425Y-106128333D01*
X142714012Y-106144190D01*
X142916546Y-106196440D01*
X143003900Y-106230625D01*
X143196706Y-106333274D01*
X143374657Y-106465977D01*
X143533174Y-106624434D01*
X143667678Y-106804345D01*
X143773589Y-107001408D01*
X143787916Y-107035057D01*
X143819505Y-107114595D01*
X143847692Y-107191438D01*
X143883045Y-107293633D01*
X143873533Y-107124539D01*
X143869684Y-107067237D01*
X143857214Y-106947750D01*
X143840453Y-106847140D01*
X143820548Y-106771498D01*
X143798645Y-106726917D01*
X143798136Y-106726295D01*
X143778533Y-106688268D01*
X143763650Y-106636698D01*
X143758290Y-106600547D01*
X143763408Y-106583404D01*
X143784325Y-106587609D01*
X143863636Y-106617895D01*
X143964031Y-106651924D01*
X144069939Y-106684245D01*
X144175537Y-106713425D01*
X144274998Y-106738035D01*
X144362498Y-106756644D01*
X144432210Y-106767820D01*
X144478309Y-106770133D01*
X144494970Y-106762152D01*
X144483458Y-106735319D01*
X144445028Y-106690033D01*
X144384349Y-106633480D01*
X144306335Y-106570196D01*
X144215901Y-106504713D01*
X144160513Y-106466364D01*
X144096242Y-106418792D01*
X144059930Y-106384346D01*
X144053098Y-106361248D01*
X144077266Y-106347722D01*
X144133953Y-106341989D01*
X144224681Y-106342274D01*
X144350968Y-106346798D01*
X144436913Y-106349833D01*
X144579681Y-106351052D01*
X144698175Y-106345388D01*
X144800620Y-106331962D01*
X144895241Y-106309892D01*
X144990262Y-106278296D01*
X145031106Y-106261594D01*
X145085264Y-106234802D01*
X145118321Y-106212396D01*
X145131497Y-106197702D01*
X145135593Y-106176002D01*
X145113664Y-106145844D01*
X145111917Y-106143927D01*
X145065706Y-106108843D01*
X144991833Y-106068784D01*
X144898402Y-106026732D01*
X144793514Y-105985672D01*
X144685273Y-105948585D01*
X144581780Y-105918456D01*
X144491138Y-105898267D01*
X144421450Y-105891000D01*
X144392438Y-105892743D01*
X144324933Y-105902575D01*
X144254446Y-105918144D01*
X144212208Y-105927662D01*
X144161431Y-105933656D01*
X144133671Y-105929492D01*
X144129576Y-105927663D01*
X144094651Y-105922255D01*
X144032181Y-105917879D01*
X143949496Y-105914945D01*
X143853931Y-105913862D01*
X143816452Y-105913672D01*
X143627625Y-105905707D01*
X143463381Y-105884888D01*
X143314477Y-105849652D01*
X143171674Y-105798436D01*
X143124189Y-105776711D01*
X143025040Y-105722444D01*
X142952479Y-105675848D01*
X145256835Y-105675848D01*
X145256920Y-105676581D01*
X145270789Y-105698991D01*
X145305003Y-105741963D01*
X145354675Y-105799618D01*
X145414918Y-105866077D01*
X145603207Y-106056774D01*
X145844141Y-106268193D01*
X146092079Y-106451823D01*
X146344142Y-106605938D01*
X146597451Y-106728811D01*
X146849125Y-106818718D01*
X147096286Y-106873931D01*
X147101151Y-106874675D01*
X147177998Y-106886211D01*
X147239079Y-106894238D01*
X147293210Y-106899080D01*
X147349207Y-106901061D01*
X147415885Y-106900507D01*
X147502061Y-106897743D01*
X147616550Y-106893091D01*
X147753036Y-106884735D01*
X147890351Y-106869202D01*
X148023178Y-106845168D01*
X148157568Y-106810851D01*
X148299573Y-106764468D01*
X148455243Y-106704236D01*
X148630631Y-106628372D01*
X148831786Y-106535095D01*
X148997948Y-106450486D01*
X149213922Y-106322359D01*
X149413309Y-106182934D01*
X149592082Y-106035607D01*
X149746213Y-105883773D01*
X149871674Y-105730828D01*
X149964437Y-105580168D01*
X149998224Y-105504055D01*
X150012768Y-105440449D01*
X150001772Y-105399158D01*
X149965246Y-105377700D01*
X149960173Y-105376528D01*
X149889463Y-105371673D01*
X149793246Y-105379862D01*
X149679595Y-105400037D01*
X149556583Y-105431144D01*
X149484939Y-105450813D01*
X149414015Y-105465527D01*
X149374151Y-105464748D01*
X149364967Y-105446968D01*
X149386083Y-105410680D01*
X149437122Y-105354375D01*
X149517703Y-105276545D01*
X149603539Y-105189567D01*
X149678541Y-105099295D01*
X149735809Y-105014302D01*
X149773402Y-104938543D01*
X149789376Y-104875974D01*
X149781790Y-104830548D01*
X149748700Y-104806222D01*
X149735541Y-104803039D01*
X149673221Y-104796635D01*
X149602583Y-104803756D01*
X149521069Y-104825649D01*
X149426121Y-104863562D01*
X149315180Y-104918742D01*
X149185689Y-104992437D01*
X149035090Y-105085895D01*
X148860824Y-105200364D01*
X148660334Y-105337091D01*
X148626450Y-105360553D01*
X148530709Y-105427248D01*
X148446130Y-105486741D01*
X148377582Y-105535574D01*
X148329932Y-105570288D01*
X148308049Y-105587423D01*
X148266492Y-105618887D01*
X148197944Y-105660517D01*
X148110824Y-105707895D01*
X148013169Y-105756986D01*
X147913011Y-105803752D01*
X147818385Y-105844156D01*
X147737325Y-105874164D01*
X147713689Y-105881861D01*
X147634555Y-105906021D01*
X147569203Y-105921395D01*
X147504904Y-105929818D01*
X147428928Y-105933129D01*
X147328547Y-105933164D01*
X147209255Y-105928751D01*
X146982269Y-105898450D01*
X146771328Y-105838075D01*
X146572196Y-105745855D01*
X146380635Y-105620023D01*
X146192409Y-105458810D01*
X146078218Y-105349768D01*
X145774341Y-105469779D01*
X145700462Y-105498704D01*
X145593915Y-105539598D01*
X145496663Y-105576015D01*
X145417102Y-105604826D01*
X145363624Y-105622902D01*
X145315434Y-105639986D01*
X145273110Y-105660298D01*
X145256835Y-105675848D01*
X142952479Y-105675848D01*
X142924745Y-105658038D01*
X142835215Y-105591408D01*
X142768358Y-105530465D01*
X142763683Y-105525570D01*
X142726978Y-105494644D01*
X142698680Y-105482001D01*
X142684076Y-105474516D01*
X142674048Y-105443817D01*
X142658426Y-105413560D01*
X142611491Y-105379377D01*
X142539072Y-105345029D01*
X142447054Y-105312576D01*
X142341325Y-105284079D01*
X142227770Y-105261599D01*
X142112276Y-105247195D01*
X141974751Y-105235570D01*
X141913240Y-105400593D01*
X141871901Y-105504905D01*
X141808401Y-105645988D01*
X141741564Y-105775663D01*
X141675684Y-105885762D01*
X141615052Y-105968114D01*
X141563610Y-106020812D01*
X141460851Y-106091356D01*
X141350171Y-106127119D01*
X141234733Y-106127319D01*
X141117701Y-106091174D01*
X141062913Y-106058379D01*
X140986690Y-105999016D01*
X140903761Y-105923449D01*
X140822187Y-105839086D01*
X140750030Y-105753336D01*
X140694188Y-105680925D01*
X140556796Y-105680925D01*
X140419404Y-105680925D01*
X140362665Y-105753336D01*
X140349724Y-105769356D01*
X140303187Y-105823627D01*
X140244223Y-105889389D01*
X140182470Y-105955812D01*
X140138697Y-106002868D01*
X140070500Y-106082585D01*
X140043176Y-106122275D01*
X140030221Y-106141093D01*
X140016989Y-106179571D01*
X139924193Y-106179571D01*
X139937126Y-106140606D01*
X139942665Y-106122275D01*
X139937309Y-106120836D01*
X139904936Y-106118826D01*
X139852984Y-106118037D01*
X139828759Y-106117110D01*
X139760866Y-106106867D01*
X139707046Y-106088946D01*
X139654746Y-106052039D01*
X139589436Y-105990513D01*
X139519451Y-105912972D01*
X139452049Y-105827469D01*
X139394485Y-105742057D01*
X139392328Y-105738518D01*
X139357225Y-105684038D01*
X139328834Y-105645358D01*
X139313124Y-105630648D01*
X139287931Y-105639890D01*
X139240113Y-105666179D01*
X139178565Y-105704224D01*
X139111551Y-105748712D01*
X139047337Y-105794326D01*
X138994189Y-105835752D01*
X138956953Y-105868688D01*
X138833853Y-106004334D01*
X138723408Y-106168097D01*
X138629526Y-106353566D01*
X138556114Y-106554332D01*
X138535403Y-106629404D01*
X138520460Y-106701392D01*
X138510210Y-106779689D01*
X138503311Y-106874577D01*
X138498420Y-106996339D01*
X138497204Y-107040588D01*
X138496897Y-107169921D01*
X138421513Y-107169921D01*
X138423950Y-107010797D01*
X138427299Y-106934666D01*
X138447045Y-106724507D01*
X138483114Y-106538397D01*
X138537918Y-106368276D01*
X138613869Y-106206087D01*
X138713380Y-106043771D01*
X138732593Y-106016846D01*
X138806902Y-105927310D01*
X138897021Y-105834284D01*
X138993752Y-105746305D01*
X139087894Y-105671915D01*
X139170249Y-105619654D01*
X139218918Y-105592513D01*
X139258505Y-105566605D01*
X139273711Y-105551149D01*
X139266431Y-105522848D01*
X139244697Y-105475166D01*
X139214459Y-105420308D01*
X139181781Y-105368484D01*
X139152723Y-105329903D01*
X139133348Y-105314774D01*
X139106949Y-105316489D01*
X139036099Y-105328018D01*
X138947117Y-105348014D01*
X138850973Y-105373667D01*
X138758634Y-105402166D01*
X138681071Y-105430698D01*
X138642395Y-105447313D01*
X138455554Y-105546810D01*
X138299101Y-105666162D01*
X138172390Y-105806399D01*
X138074772Y-105968555D01*
X138005602Y-106153661D01*
X137964232Y-106362749D01*
X137950016Y-106596851D01*
X137884441Y-106596851D01*
X137885171Y-106520864D01*
X137892906Y-106381816D01*
X137906740Y-106258013D01*
X137926415Y-106160202D01*
X137933239Y-106136375D01*
X138009390Y-105938599D01*
X138113812Y-105764778D01*
X138246638Y-105614784D01*
X138408001Y-105488489D01*
X138598036Y-105385765D01*
X138816875Y-105306482D01*
X138849465Y-105297301D01*
X138926234Y-105277659D01*
X138990049Y-105263965D01*
X139029638Y-105258747D01*
X139068297Y-105256622D01*
X139094148Y-105246912D01*
X139104093Y-105224333D01*
X139098393Y-105183586D01*
X139077312Y-105119374D01*
X139041109Y-105026398D01*
X138997226Y-104910696D01*
X138936206Y-104725497D01*
X138885621Y-104540608D01*
X138846193Y-104360811D01*
X138818643Y-104190887D01*
X138803694Y-104035616D01*
X138803204Y-103994719D01*
X138869411Y-103994719D01*
X138883364Y-104156031D01*
X138916190Y-104349213D01*
X138967882Y-104574342D01*
X138971071Y-104586773D01*
X139017573Y-104745176D01*
X139076377Y-104912688D01*
X139144951Y-105084333D01*
X139220761Y-105255140D01*
X139301275Y-105420136D01*
X139383961Y-105574347D01*
X139466285Y-105712800D01*
X139545714Y-105830523D01*
X139619717Y-105922542D01*
X139685760Y-105983885D01*
X139752571Y-106026330D01*
X139820614Y-106049238D01*
X139888947Y-106044344D01*
X139969514Y-106012869D01*
X140026297Y-105979498D01*
X140099427Y-105920174D01*
X140177483Y-105838456D01*
X140262949Y-105731426D01*
X140358308Y-105596169D01*
X140466044Y-105429767D01*
X140501044Y-105377675D01*
X140541304Y-105331234D01*
X140569414Y-105318282D01*
X140581767Y-105326632D01*
X140611937Y-105361783D01*
X140651018Y-105417583D01*
X140693661Y-105486778D01*
X140720559Y-105532130D01*
X140815455Y-105677710D01*
X140911275Y-105803962D01*
X141003756Y-105905592D01*
X141088632Y-105977302D01*
X141185489Y-106030767D01*
X141281858Y-106053666D01*
X141373829Y-106042057D01*
X141462389Y-105995409D01*
X141548525Y-105913194D01*
X141633226Y-105794880D01*
X141717479Y-105639938D01*
X141757700Y-105553410D01*
X141854000Y-105312865D01*
X141909826Y-105142483D01*
X141993881Y-105142483D01*
X141997265Y-105143725D01*
X142028203Y-105149481D01*
X142083906Y-105157652D01*
X142155485Y-105166894D01*
X142159129Y-105167341D01*
X142328229Y-105195050D01*
X142475633Y-105235211D01*
X142615539Y-105291675D01*
X142665235Y-105315059D01*
X142709357Y-105336138D01*
X142729936Y-105346401D01*
X142741339Y-105341376D01*
X142762612Y-105314818D01*
X142774328Y-105298403D01*
X142807913Y-105254658D01*
X142858175Y-105190777D01*
X142921123Y-105111703D01*
X142992764Y-105022382D01*
X143069104Y-104927759D01*
X143146153Y-104832779D01*
X143219916Y-104742388D01*
X143233448Y-104725931D01*
X144178020Y-104725931D01*
X144285398Y-104798441D01*
X144348264Y-104838630D01*
X144435692Y-104890276D01*
X144517732Y-104934926D01*
X144526998Y-104939634D01*
X144589423Y-104969503D01*
X144639240Y-104990330D01*
X144666378Y-104997854D01*
X144676027Y-104996088D01*
X144697689Y-104987882D01*
X144731719Y-104971358D01*
X144781364Y-104944712D01*
X144849871Y-104906141D01*
X144940488Y-104853840D01*
X145056462Y-104786005D01*
X145201041Y-104700831D01*
X145319892Y-104629418D01*
X145588033Y-104458976D01*
X145842655Y-104284210D01*
X146078312Y-104109098D01*
X146289554Y-103937618D01*
X146470934Y-103773745D01*
X146477501Y-103767385D01*
X146557904Y-103684367D01*
X146623361Y-103607240D01*
X146670580Y-103540608D01*
X146696270Y-103489076D01*
X146697142Y-103457246D01*
X146694378Y-103453614D01*
X146658370Y-103439505D01*
X146593821Y-103440809D01*
X146504793Y-103456476D01*
X146395351Y-103485452D01*
X146269555Y-103526684D01*
X146131470Y-103579119D01*
X145985158Y-103641707D01*
X145773682Y-103742551D01*
X145511903Y-103879571D01*
X145235315Y-104036021D01*
X144950077Y-104208280D01*
X144662352Y-104392728D01*
X144378302Y-104585745D01*
X144178020Y-104725931D01*
X143233448Y-104725931D01*
X143286402Y-104661529D01*
X143341617Y-104595149D01*
X143381570Y-104548192D01*
X143458516Y-104459812D01*
X143349640Y-104411594D01*
X143318894Y-104398226D01*
X143201763Y-104353131D01*
X143088992Y-104321195D01*
X142970303Y-104300492D01*
X142835415Y-104289099D01*
X142674048Y-104285089D01*
X142659487Y-104285019D01*
X142542973Y-104285450D01*
X142455203Y-104288275D01*
X142388613Y-104294130D01*
X142335638Y-104303652D01*
X142288714Y-104317475D01*
X142249146Y-104332422D01*
X142202919Y-104353588D01*
X142180431Y-104369132D01*
X142180406Y-104369174D01*
X142172540Y-104393582D01*
X142159278Y-104446609D01*
X142142464Y-104520470D01*
X142123945Y-104607380D01*
X142108049Y-104681393D01*
X142082414Y-104792575D01*
X142056313Y-104898086D01*
X142033462Y-104982511D01*
X142024839Y-105012624D01*
X142007305Y-105077397D01*
X141996288Y-105123504D01*
X141993881Y-105142483D01*
X141909826Y-105142483D01*
X141940009Y-105050362D01*
X142013177Y-104776125D01*
X142070955Y-104500377D01*
X142105887Y-104266226D01*
X142195960Y-104266226D01*
X142318874Y-104234146D01*
X142402137Y-104217297D01*
X142547254Y-104203197D01*
X142708342Y-104202009D01*
X142874158Y-104213670D01*
X143033455Y-104238117D01*
X143071770Y-104246457D01*
X143176484Y-104273673D01*
X143279817Y-104305744D01*
X143364102Y-104337365D01*
X143506021Y-104398419D01*
X143634223Y-104269655D01*
X143742999Y-104269655D01*
X143770594Y-104321882D01*
X143786523Y-104345972D01*
X143825649Y-104395462D01*
X143879016Y-104457395D01*
X143881234Y-104459812D01*
X143939878Y-104523725D01*
X144081567Y-104673342D01*
X144190719Y-104595125D01*
X144295915Y-104520553D01*
X144556090Y-104342789D01*
X144816409Y-104173964D01*
X145073713Y-104015764D01*
X145324846Y-103869876D01*
X145566652Y-103737986D01*
X145795973Y-103621783D01*
X146009652Y-103522954D01*
X146204533Y-103443184D01*
X146377458Y-103384161D01*
X146525270Y-103347573D01*
X146613318Y-103337755D01*
X146700717Y-103346704D01*
X146761218Y-103377572D01*
X146793020Y-103428572D01*
X146793559Y-103457246D01*
X146794324Y-103497917D01*
X146763328Y-103583822D01*
X146720704Y-103651241D01*
X146642016Y-103745818D01*
X146536103Y-103853255D01*
X146406062Y-103971154D01*
X146254988Y-104097116D01*
X146085979Y-104228741D01*
X145902130Y-104363631D01*
X145706538Y-104499386D01*
X145502299Y-104633608D01*
X145292510Y-104763897D01*
X145080266Y-104887855D01*
X145042015Y-104909562D01*
X144958764Y-104957536D01*
X144888658Y-104998928D01*
X144838136Y-105029903D01*
X144813638Y-105046626D01*
X144806867Y-105055673D01*
X144813866Y-105069823D01*
X144846841Y-105086729D01*
X144910801Y-105109640D01*
X144942027Y-105119374D01*
X145027678Y-105142637D01*
X145126865Y-105166307D01*
X145223881Y-105186524D01*
X145243956Y-105190175D01*
X145386400Y-105209538D01*
X145562048Y-105223931D01*
X145767757Y-105233085D01*
X146120793Y-105243440D01*
X146372322Y-105124689D01*
X146483666Y-105070965D01*
X146735305Y-104940930D01*
X146975410Y-104805040D01*
X147199109Y-104666396D01*
X147401533Y-104528099D01*
X147577810Y-104393247D01*
X147723070Y-104264942D01*
X147727312Y-104260831D01*
X147798252Y-104189540D01*
X147844309Y-104136702D01*
X147869210Y-104097516D01*
X147876681Y-104067186D01*
X147876655Y-104064095D01*
X147868734Y-104027395D01*
X147842796Y-104008405D01*
X147793169Y-104005357D01*
X147714183Y-104016480D01*
X147713620Y-104016584D01*
X147615640Y-104038794D01*
X147534873Y-104068707D01*
X147457231Y-104112905D01*
X147368629Y-104177972D01*
X147281659Y-104244962D01*
X147181793Y-104316647D01*
X147106974Y-104362750D01*
X147056452Y-104383646D01*
X147029482Y-104379715D01*
X147025316Y-104351331D01*
X147029409Y-104343268D01*
X147057753Y-104312041D01*
X147108285Y-104266018D01*
X147175582Y-104209996D01*
X147254223Y-104148774D01*
X147454333Y-103991024D01*
X147646104Y-103826150D01*
X147824888Y-103658674D01*
X147989117Y-103490796D01*
X148137224Y-103324719D01*
X148267639Y-103162643D01*
X148378796Y-103006769D01*
X148469126Y-102859297D01*
X148537061Y-102722428D01*
X148581034Y-102598364D01*
X148599477Y-102489304D01*
X148590821Y-102397451D01*
X148553499Y-102325004D01*
X148543057Y-102313562D01*
X148467910Y-102260954D01*
X148361715Y-102221944D01*
X148227408Y-102196430D01*
X148067925Y-102184312D01*
X147886202Y-102185488D01*
X147685174Y-102199858D01*
X147467777Y-102227320D01*
X147236948Y-102267772D01*
X146995622Y-102321115D01*
X146746735Y-102387246D01*
X146495149Y-102467163D01*
X146118085Y-102613387D01*
X145738868Y-102790663D01*
X145362210Y-102996175D01*
X144992820Y-103227106D01*
X144635412Y-103480638D01*
X144294696Y-103753956D01*
X144176395Y-103861503D01*
X143975384Y-104044241D01*
X143742999Y-104269655D01*
X143634223Y-104269655D01*
X143771524Y-104131752D01*
X143807894Y-104095190D01*
X143888357Y-104013714D01*
X143946387Y-103953307D01*
X143984874Y-103910270D01*
X144006710Y-103880902D01*
X144014786Y-103861503D01*
X144011992Y-103848374D01*
X144001222Y-103837816D01*
X143970538Y-103818839D01*
X143902178Y-103786328D01*
X143812200Y-103749894D01*
X143709052Y-103712552D01*
X143601182Y-103677314D01*
X143497039Y-103647193D01*
X143405072Y-103625202D01*
X143337345Y-103613204D01*
X143184217Y-103595656D01*
X143018634Y-103587026D01*
X142852695Y-103587449D01*
X142698497Y-103597057D01*
X142568140Y-103615984D01*
X142553748Y-103619019D01*
X142456327Y-103642694D01*
X142367061Y-103669367D01*
X142293025Y-103696486D01*
X142241294Y-103721501D01*
X142218944Y-103741862D01*
X142218313Y-103744825D01*
X142215124Y-103778108D01*
X142211427Y-103839220D01*
X142208737Y-103896921D01*
X142207632Y-103920617D01*
X142204149Y-104014750D01*
X142195960Y-104266226D01*
X142105887Y-104266226D01*
X142110793Y-104233340D01*
X142130142Y-103985239D01*
X142132360Y-103896921D01*
X142130508Y-103757009D01*
X142120156Y-103647250D01*
X142100527Y-103563546D01*
X142070847Y-103501798D01*
X142030339Y-103457909D01*
X141967632Y-103427362D01*
X141882607Y-103423768D01*
X141783212Y-103451376D01*
X141671509Y-103509586D01*
X141549562Y-103597798D01*
X141508981Y-103631920D01*
X141380626Y-103750932D01*
X141242066Y-103893532D01*
X141098983Y-104053004D01*
X140957062Y-104222634D01*
X140821988Y-104395708D01*
X140699443Y-104565510D01*
X140595113Y-104725325D01*
X140551606Y-104789842D01*
X140512530Y-104834274D01*
X140484438Y-104850253D01*
X140483576Y-104850018D01*
X140464718Y-104833273D01*
X140427803Y-104793933D01*
X140377755Y-104737403D01*
X140319495Y-104669090D01*
X140315095Y-104663852D01*
X140179126Y-104509263D01*
X140036269Y-104359645D01*
X139889880Y-104217659D01*
X139743318Y-104085967D01*
X139599939Y-103967232D01*
X139463100Y-103864116D01*
X139336158Y-103779281D01*
X139222471Y-103715388D01*
X139125395Y-103675100D01*
X139048289Y-103661079D01*
X139002454Y-103666698D01*
X138940851Y-103701269D01*
X138898148Y-103767413D01*
X138874337Y-103865205D01*
X138869411Y-103994719D01*
X138803204Y-103994719D01*
X138802068Y-103899782D01*
X138814487Y-103788165D01*
X138841671Y-103705546D01*
X138868466Y-103664185D01*
X138933370Y-103611060D01*
X139017222Y-103589420D01*
X139119611Y-103599199D01*
X139240125Y-103640331D01*
X139378354Y-103712751D01*
X139533887Y-103816394D01*
X139567712Y-103840776D01*
X139622788Y-103879476D01*
X139661586Y-103905377D01*
X139677292Y-103913847D01*
X139677476Y-103913110D01*
X139672272Y-103890366D01*
X139657964Y-103842885D01*
X139637228Y-103779627D01*
X139610329Y-103695347D01*
X139542239Y-103423972D01*
X139492863Y-103126402D01*
X139462880Y-102807444D01*
X139456347Y-102586315D01*
X139538047Y-102586315D01*
X139554224Y-102911438D01*
X139590327Y-103220002D01*
X139645684Y-103506674D01*
X139719626Y-103766120D01*
X139731695Y-103801199D01*
X139767802Y-103897942D01*
X139802304Y-103971469D01*
X139841226Y-104031567D01*
X139890595Y-104088021D01*
X139956440Y-104150615D01*
X139993949Y-104184168D01*
X140041897Y-104223218D01*
X140079449Y-104244698D01*
X140116858Y-104253787D01*
X140164377Y-104255666D01*
X140196408Y-104254818D01*
X140242815Y-104249785D01*
X140264637Y-104241731D01*
X140265796Y-104235811D01*
X140264663Y-104199676D01*
X140258706Y-104139975D01*
X140248759Y-104065946D01*
X140242297Y-104021809D01*
X140224834Y-103890124D01*
X140210986Y-103761288D01*
X140200502Y-103629592D01*
X140193130Y-103489327D01*
X140188617Y-103334783D01*
X140186711Y-103160252D01*
X140187161Y-102960023D01*
X140187868Y-102895842D01*
X140288223Y-102895842D01*
X140289085Y-103129889D01*
X140291773Y-103331997D01*
X140296585Y-103507242D01*
X140303821Y-103660697D01*
X140313780Y-103797438D01*
X140326761Y-103922539D01*
X140343063Y-104041073D01*
X140362986Y-104158117D01*
X140366757Y-104175512D01*
X140383566Y-104208827D01*
X140413899Y-104216864D01*
X140436621Y-104214879D01*
X140497101Y-104204705D01*
X140567048Y-104188817D01*
X140634942Y-104170232D01*
X140689262Y-104151971D01*
X140718490Y-104137050D01*
X140730384Y-104114320D01*
X140743869Y-104055618D01*
X140755108Y-103968095D01*
X140763898Y-103856421D01*
X140770034Y-103725263D01*
X140773312Y-103579290D01*
X140773526Y-103423169D01*
X140770473Y-103261569D01*
X140763948Y-103099159D01*
X140755454Y-102947389D01*
X140735426Y-102665428D01*
X140711274Y-102415549D01*
X140682537Y-102194460D01*
X140648754Y-101998864D01*
X140609464Y-101825467D01*
X140564207Y-101670974D01*
X140555946Y-101646354D01*
X140521481Y-101553615D01*
X140492208Y-101496481D01*
X140466225Y-101474302D01*
X140441631Y-101486427D01*
X140416524Y-101532204D01*
X140389003Y-101610983D01*
X140366315Y-101690983D01*
X140345348Y-101783027D01*
X140328233Y-101883351D01*
X140314643Y-101996078D01*
X140304255Y-102125327D01*
X140296744Y-102275220D01*
X140291784Y-102449879D01*
X140289052Y-102653423D01*
X140288223Y-102889975D01*
X140288223Y-102895842D01*
X140187868Y-102895842D01*
X140189714Y-102728389D01*
X140191374Y-102616202D01*
X140194339Y-102446833D01*
X140197601Y-102307196D01*
X140201412Y-102192565D01*
X140206022Y-102098218D01*
X140211681Y-102019430D01*
X140218642Y-101951475D01*
X140227155Y-101889629D01*
X140237471Y-101829169D01*
X140257616Y-101727863D01*
X140292318Y-101589308D01*
X140329618Y-101484849D01*
X140370436Y-101412587D01*
X140415694Y-101370622D01*
X140466311Y-101357056D01*
X140491249Y-101362414D01*
X140538246Y-101399341D01*
X140585497Y-101468854D01*
X140631890Y-101568018D01*
X140676313Y-101693898D01*
X140717653Y-101843559D01*
X140754799Y-102014066D01*
X140786639Y-102202484D01*
X140804964Y-102342120D01*
X140824161Y-102525659D01*
X140840480Y-102723327D01*
X140853679Y-102928753D01*
X140863516Y-103135565D01*
X140869748Y-103337390D01*
X140870822Y-103423169D01*
X140872132Y-103527856D01*
X140870427Y-103700590D01*
X140864391Y-103849221D01*
X140853779Y-103967376D01*
X140853180Y-103972072D01*
X140846086Y-104036314D01*
X140842831Y-104083677D01*
X140844119Y-104104206D01*
X140847762Y-104106112D01*
X140876587Y-104096407D01*
X140927275Y-104060811D01*
X140997801Y-104001015D01*
X141086138Y-103918709D01*
X141190258Y-103815583D01*
X141406614Y-103596047D01*
X141422518Y-103391657D01*
X141425175Y-103354881D01*
X141433443Y-103187294D01*
X141437924Y-102995250D01*
X141438777Y-102787539D01*
X141436160Y-102572949D01*
X141430233Y-102360269D01*
X141421153Y-102158288D01*
X141409080Y-101975794D01*
X141394173Y-101821577D01*
X141375193Y-101668392D01*
X141323722Y-101310266D01*
X141266360Y-100985882D01*
X141203232Y-100695680D01*
X141134466Y-100440100D01*
X141060188Y-100219582D01*
X140980525Y-100034567D01*
X140895602Y-99885495D01*
X140805546Y-99772805D01*
X140764705Y-99735533D01*
X140691935Y-99693861D01*
X140620891Y-99688315D01*
X140548633Y-99719014D01*
X140472219Y-99786074D01*
X140397290Y-99879352D01*
X140309593Y-100020428D01*
X140224768Y-100189830D01*
X140144348Y-100382761D01*
X140069864Y-100594425D01*
X140002847Y-100820024D01*
X139944830Y-101054761D01*
X139897344Y-101293840D01*
X139861920Y-101532464D01*
X139840091Y-101765834D01*
X139833310Y-101865363D01*
X139826470Y-101938264D01*
X139818417Y-101985119D01*
X139807676Y-102011583D01*
X139792769Y-102023313D01*
X139772222Y-102025966D01*
X139767675Y-102025939D01*
X139753137Y-102023768D01*
X139743877Y-102013886D01*
X139739319Y-101990421D01*
X139738890Y-101947496D01*
X139742012Y-101879238D01*
X139748112Y-101779770D01*
X139754562Y-101674427D01*
X139760322Y-101565929D01*
X139762992Y-101485882D01*
X139762493Y-101429419D01*
X139758745Y-101391672D01*
X139751671Y-101367775D01*
X139741192Y-101352861D01*
X139728756Y-101344153D01*
X139700347Y-101349691D01*
X139672374Y-101388173D01*
X139645441Y-101456670D01*
X139620150Y-101552252D01*
X139597104Y-101671989D01*
X139576905Y-101812950D01*
X139560157Y-101972206D01*
X139547461Y-102146827D01*
X139539421Y-102333882D01*
X139538047Y-102586315D01*
X139456347Y-102586315D01*
X139452967Y-102471906D01*
X139453120Y-102432605D01*
X139458413Y-102211739D01*
X139470812Y-102007997D01*
X139489758Y-101823600D01*
X139514690Y-101660766D01*
X139545046Y-101521716D01*
X139580268Y-101408670D01*
X139619795Y-101323849D01*
X139663067Y-101269471D01*
X139709523Y-101247758D01*
X139758602Y-101260930D01*
X139785624Y-101275158D01*
X139804369Y-101278576D01*
X139804781Y-101277921D01*
X139811787Y-101254002D01*
X139824406Y-101201705D01*
X139840982Y-101128133D01*
X139859863Y-101040383D01*
X139868311Y-101001308D01*
X139919622Y-100795482D01*
X139981077Y-100592051D01*
X140050539Y-100395937D01*
X140125870Y-100212061D01*
X140204932Y-100045346D01*
X140285587Y-99900714D01*
X140365699Y-99783085D01*
X140443130Y-99697383D01*
X140468283Y-99676687D01*
X140531553Y-99635470D01*
X140590202Y-99609099D01*
X140606530Y-99604417D01*
X140651706Y-99596855D01*
X140693475Y-99604119D01*
X140749483Y-99628337D01*
X140839913Y-99689887D01*
X140930198Y-99789544D01*
X141016195Y-99924715D01*
X141097656Y-100094658D01*
X141174334Y-100298631D01*
X141245980Y-100535893D01*
X141312346Y-100805703D01*
X141373183Y-101107317D01*
X141428244Y-101439995D01*
X141477280Y-101802996D01*
X141484874Y-101877937D01*
X141493733Y-102000333D01*
X141501478Y-102146029D01*
X141507976Y-102308316D01*
X141513097Y-102480483D01*
X141516708Y-102655820D01*
X141518218Y-102787539D01*
X141518678Y-102827618D01*
X141518876Y-102989165D01*
X141517170Y-103133752D01*
X141513428Y-103254669D01*
X141507519Y-103345205D01*
X141503333Y-103390715D01*
X141497861Y-103459493D01*
X141495131Y-103508108D01*
X141495687Y-103528159D01*
X141505554Y-103525518D01*
X141538595Y-103506992D01*
X141585829Y-103476124D01*
X141687062Y-103413575D01*
X141804804Y-103362812D01*
X141908511Y-103345613D01*
X142002013Y-103357180D01*
X142076010Y-103395678D01*
X142132051Y-103463962D01*
X142173571Y-103564873D01*
X142180357Y-103586116D01*
X142196353Y-103626474D01*
X142207823Y-103642489D01*
X142219693Y-103639610D01*
X142258702Y-103626610D01*
X142313002Y-103606682D01*
X142379780Y-103584066D01*
X142547917Y-103544922D01*
X142740996Y-103520718D01*
X142952379Y-103512433D01*
X143152185Y-103519792D01*
X143437196Y-103558356D01*
X143705816Y-103630044D01*
X143958524Y-103734961D01*
X144100279Y-103805324D01*
X144308902Y-103631803D01*
X144599958Y-103403156D01*
X144916457Y-103179955D01*
X145246007Y-102970729D01*
X145580873Y-102780127D01*
X145913320Y-102612800D01*
X146235617Y-102473398D01*
X146278374Y-102456796D01*
X146515631Y-102372536D01*
X146759155Y-102298346D01*
X147004526Y-102234893D01*
X147247325Y-102182841D01*
X147483131Y-102142856D01*
X147707524Y-102115604D01*
X147916085Y-102101749D01*
X148104393Y-102101957D01*
X148268028Y-102116893D01*
X148402571Y-102147223D01*
X148472394Y-102175210D01*
X148564341Y-102231354D01*
X148634968Y-102299068D01*
X148676368Y-102371864D01*
X148688548Y-102437399D01*
X148684778Y-102489304D01*
G37*
%TD*%
M02*
