%TF.GenerationSoftware,KiCad,Pcbnew,7.0.1*%
%TF.CreationDate,2023-07-22T00:41:28+01:00*%
%TF.ProjectId,pcb,7063622e-6b69-4636-9164-5f7063625858,rev?*%
%TF.SameCoordinates,Original*%
%TF.FileFunction,Soldermask,Top*%
%TF.FilePolarity,Negative*%
%FSLAX46Y46*%
G04 Gerber Fmt 4.6, Leading zero omitted, Abs format (unit mm)*
G04 Created by KiCad (PCBNEW 7.0.1) date 2023-07-22 00:41:28*
%MOMM*%
%LPD*%
G01*
G04 APERTURE LIST*
%ADD10O,0.899160X2.898140*%
%ADD11O,2.700020X0.701040*%
%ADD12O,2.898140X0.899160*%
%ADD13O,0.701040X2.700020*%
%ADD14R,1.700000X1.700000*%
%ADD15O,1.700000X1.700000*%
G04 APERTURE END LIST*
D10*
%TO.C,PLCC32*%
X144780000Y-115570000D03*
X146050000Y-115570000D03*
X147320000Y-115570000D03*
X148590000Y-115570000D03*
D11*
X150279100Y-113880900D03*
X150279100Y-112610900D03*
D12*
X150279100Y-111340900D03*
X150279100Y-110070900D03*
X150279100Y-108800900D03*
X150279100Y-107530900D03*
D11*
X150279100Y-106260900D03*
X150279100Y-104990900D03*
X150279100Y-103720900D03*
D13*
X148590000Y-102031800D03*
D10*
X147320000Y-102031800D03*
X146050000Y-102031800D03*
X144780000Y-102031800D03*
X143510000Y-102031800D03*
X142240000Y-102031800D03*
D13*
X140970000Y-102031800D03*
D11*
X139280900Y-103720900D03*
X139280900Y-104990900D03*
X139280900Y-106260900D03*
D12*
X139280900Y-107530900D03*
X139280900Y-108800900D03*
X139280900Y-110070900D03*
D11*
X139280900Y-111340900D03*
X139280900Y-112610900D03*
X139280900Y-113880900D03*
D10*
X140970000Y-115570000D03*
X142240000Y-115570000D03*
X143510000Y-115570000D03*
%TD*%
D14*
%TO.C,REF\u002A\u002A*%
X133985000Y-115570000D03*
D15*
X131445000Y-115570000D03*
X133985000Y-113030000D03*
X131445000Y-113030000D03*
X133985000Y-110490000D03*
X131445000Y-110490000D03*
X133985000Y-107950000D03*
X131445000Y-107950000D03*
X133985000Y-105410000D03*
X131445000Y-105410000D03*
X133985000Y-102870000D03*
X131445000Y-102870000D03*
%TD*%
M02*
