%TF.GenerationSoftware,KiCad,Pcbnew,7.0.1*%
%TF.CreationDate,2023-07-22T00:41:28+01:00*%
%TF.ProjectId,pcb,7063622e-6b69-4636-9164-5f7063625858,rev?*%
%TF.SameCoordinates,Original*%
%TF.FileFunction,Copper,L1,Top*%
%TF.FilePolarity,Positive*%
%FSLAX46Y46*%
G04 Gerber Fmt 4.6, Leading zero omitted, Abs format (unit mm)*
G04 Created by KiCad (PCBNEW 7.0.1) date 2023-07-22 00:41:28*
%MOMM*%
%LPD*%
G01*
G04 APERTURE LIST*
%TA.AperFunction,SMDPad,CuDef*%
%ADD10O,0.701040X2.700020*%
%TD*%
%TA.AperFunction,SMDPad,CuDef*%
%ADD11O,2.700020X0.701040*%
%TD*%
%TA.AperFunction,ComponentPad*%
%ADD12R,1.700000X1.700000*%
%TD*%
%TA.AperFunction,ComponentPad*%
%ADD13O,1.700000X1.700000*%
%TD*%
%TA.AperFunction,ViaPad*%
%ADD14C,0.800000*%
%TD*%
%TA.AperFunction,Conductor*%
%ADD15C,0.250000*%
%TD*%
%TA.AperFunction,Conductor*%
%ADD16C,0.500000*%
%TD*%
G04 APERTURE END LIST*
D10*
%TO.P,PLCC32,1*%
%TO.N,N/C*%
X144780000Y-115570000D03*
%TO.P,PLCC32,2*%
X146050000Y-115570000D03*
%TO.P,PLCC32,3*%
X147320000Y-115570000D03*
%TO.P,PLCC32,4*%
X148590000Y-115570000D03*
D11*
%TO.P,PLCC32,5*%
X150279100Y-113880900D03*
%TO.P,PLCC32,6*%
X150279100Y-112610900D03*
%TO.P,PLCC32,7*%
X150279100Y-111340900D03*
%TO.P,PLCC32,8*%
X150279100Y-110070900D03*
%TO.P,PLCC32,9*%
X150279100Y-108800900D03*
%TO.P,PLCC32,10*%
X150279100Y-107530900D03*
%TO.P,PLCC32,11*%
X150279100Y-106260900D03*
%TO.P,PLCC32,12*%
X150279100Y-104990900D03*
%TO.P,PLCC32,13*%
X150279100Y-103720900D03*
D10*
%TO.P,PLCC32,14*%
X148590000Y-102031800D03*
%TO.P,PLCC32,15*%
X147320000Y-102031800D03*
%TO.P,PLCC32,16*%
X146050000Y-102031800D03*
%TO.P,PLCC32,17*%
X144780000Y-102031800D03*
%TO.P,PLCC32,18*%
X143510000Y-102031800D03*
%TO.P,PLCC32,19*%
X142240000Y-102031800D03*
%TO.P,PLCC32,20*%
X140970000Y-102031800D03*
D11*
%TO.P,PLCC32,21*%
X139280900Y-103720900D03*
%TO.P,PLCC32,22*%
X139280900Y-104990900D03*
%TO.P,PLCC32,23*%
X139280900Y-106260900D03*
%TO.P,PLCC32,24*%
X139280900Y-107530900D03*
%TO.P,PLCC32,25*%
X139280900Y-108800900D03*
%TO.P,PLCC32,26*%
X139280900Y-110070900D03*
%TO.P,PLCC32,27*%
X139280900Y-111340900D03*
%TO.P,PLCC32,28*%
X139280900Y-112610900D03*
%TO.P,PLCC32,29*%
X139280900Y-113880900D03*
D10*
%TO.P,PLCC32,30*%
X140970000Y-115570000D03*
%TO.P,PLCC32,31*%
X142240000Y-115570000D03*
%TO.P,PLCC32,32*%
X143510000Y-115570000D03*
%TD*%
D12*
%TO.P,REF\u002A\u002A,1*%
%TO.N,N/C*%
X133985000Y-115570000D03*
D13*
%TO.P,REF\u002A\u002A,2*%
X131445000Y-115570000D03*
%TO.P,REF\u002A\u002A,3*%
X133985000Y-113030000D03*
%TO.P,REF\u002A\u002A,4*%
X131445000Y-113030000D03*
%TO.P,REF\u002A\u002A,5*%
X133985000Y-110490000D03*
%TO.P,REF\u002A\u002A,6*%
X131445000Y-110490000D03*
%TO.P,REF\u002A\u002A,7*%
X133985000Y-107950000D03*
%TO.P,REF\u002A\u002A,8*%
X131445000Y-107950000D03*
%TO.P,REF\u002A\u002A,9*%
X133985000Y-105410000D03*
%TO.P,REF\u002A\u002A,10*%
X131445000Y-105410000D03*
%TO.P,REF\u002A\u002A,11*%
X133985000Y-102870000D03*
%TO.P,REF\u002A\u002A,12*%
X131445000Y-102870000D03*
%TD*%
D14*
%TO.N,*%
X142875000Y-104775000D03*
X145415000Y-107950000D03*
X146050000Y-104140000D03*
X132461000Y-117856000D03*
X146050000Y-113284000D03*
X151130000Y-102108000D03*
X146050000Y-105410000D03*
X140970000Y-117602000D03*
X143510000Y-118110000D03*
X144145000Y-109855000D03*
X141287500Y-112331500D03*
%TD*%
D15*
%TO.N,*%
X141605000Y-112014000D02*
X141605000Y-106045000D01*
X141287500Y-112331500D02*
X141605000Y-112014000D01*
X141605000Y-106045000D02*
X142875000Y-104775000D01*
X139319000Y-112649000D02*
X139280900Y-112610900D01*
X140970000Y-112649000D02*
X139319000Y-112649000D01*
X141287500Y-112331500D02*
X140970000Y-112649000D01*
D16*
X139280900Y-112610900D02*
X139280900Y-113880900D01*
D15*
X139369800Y-113792000D02*
X139280900Y-113880900D01*
D16*
X150368000Y-104902000D02*
X150279100Y-104990900D01*
X137160000Y-107315000D02*
X137160000Y-108585000D01*
X150368000Y-108712000D02*
X150279100Y-108800900D01*
X150368000Y-112522000D02*
X150279100Y-112610900D01*
X152527000Y-106172000D02*
X149860000Y-106172000D01*
X143510000Y-118110000D02*
X143510000Y-115570000D01*
D15*
X131445000Y-115570000D02*
X131445000Y-116840000D01*
D16*
X150368000Y-109982000D02*
X150279100Y-110070900D01*
D15*
X146050000Y-105410000D02*
X147320000Y-104140000D01*
D16*
X152527000Y-115570000D02*
X149987000Y-118110000D01*
D15*
X147320000Y-104140000D02*
X147320000Y-102031800D01*
D16*
X152527000Y-112522000D02*
X149860000Y-112522000D01*
X136144000Y-115570000D02*
X139192000Y-118618000D01*
X150368000Y-106172000D02*
X150279100Y-106260900D01*
D15*
X151130000Y-102870000D02*
X151130000Y-102108000D01*
D16*
X142240000Y-117856000D02*
X142240000Y-115570000D01*
D15*
X144145000Y-109855000D02*
X144145000Y-104775000D01*
D16*
X149987000Y-118110000D02*
X148590000Y-118110000D01*
X139827000Y-117602000D02*
X137160000Y-114935000D01*
D15*
X131445000Y-116840000D02*
X132461000Y-117856000D01*
D16*
X139280900Y-107530900D02*
X139065000Y-107315000D01*
X133985000Y-115570000D02*
X136144000Y-115570000D01*
X152527000Y-108712000D02*
X149860000Y-108712000D01*
D15*
X146050000Y-107950000D02*
X148590000Y-105410000D01*
D16*
X140335000Y-99695000D02*
X149987000Y-99695000D01*
X140970000Y-115570000D02*
X140970000Y-117602000D01*
X141478000Y-118618000D02*
X142240000Y-117856000D01*
X152527000Y-108712000D02*
X152527000Y-109982000D01*
X152527000Y-112522000D02*
X152527000Y-113792000D01*
X150368000Y-113792000D02*
X150279100Y-113880900D01*
X152527000Y-113792000D02*
X152527000Y-115570000D01*
D15*
X150279100Y-103720900D02*
X151130000Y-102870000D01*
D16*
X147320000Y-118110000D02*
X147320000Y-115570000D01*
X152527000Y-106172000D02*
X152527000Y-107442000D01*
X152527000Y-107442000D02*
X152527000Y-108712000D01*
D15*
X144780000Y-104140000D02*
X144780000Y-102031800D01*
D16*
X152527000Y-109982000D02*
X152527000Y-111125000D01*
X152527000Y-104902000D02*
X149860000Y-104902000D01*
X139065000Y-107315000D02*
X137160000Y-107315000D01*
X133985000Y-113030000D02*
X135128000Y-113030000D01*
X139280900Y-108800900D02*
X139065000Y-108585000D01*
X147320000Y-118110000D02*
X143510000Y-118110000D01*
D15*
X146050000Y-113284000D02*
X146050000Y-115570000D01*
D16*
X152527000Y-111125000D02*
X152527000Y-112522000D01*
X139192000Y-118618000D02*
X141478000Y-118618000D01*
X150368000Y-107442000D02*
X150279100Y-107530900D01*
X136144000Y-107061000D02*
X137033000Y-106172000D01*
X137033000Y-106172000D02*
X139192000Y-106172000D01*
X136144000Y-112014000D02*
X136144000Y-107061000D01*
X135128000Y-113030000D02*
X136144000Y-112014000D01*
D15*
X131318000Y-115697000D02*
X131445000Y-115570000D01*
D16*
X148590000Y-118110000D02*
X147320000Y-118110000D01*
X139192000Y-106172000D02*
X139280900Y-106260900D01*
X148590000Y-118110000D02*
X148590000Y-115570000D01*
D15*
X139369800Y-112522000D02*
X139280900Y-112610900D01*
D16*
X152527000Y-109982000D02*
X149860000Y-109982000D01*
X134620000Y-105410000D02*
X140335000Y-99695000D01*
X152311100Y-111340900D02*
X149771100Y-111340900D01*
D15*
X145415000Y-107950000D02*
X146050000Y-107950000D01*
D16*
X152527000Y-113792000D02*
X149860000Y-113792000D01*
X152527000Y-107442000D02*
X149860000Y-107442000D01*
X133985000Y-105410000D02*
X134620000Y-105410000D01*
X137160000Y-114935000D02*
X137160000Y-108585000D01*
X149987000Y-99695000D02*
X152527000Y-102235000D01*
X152527000Y-102235000D02*
X152527000Y-104902000D01*
D15*
X144145000Y-104775000D02*
X144780000Y-104140000D01*
D16*
X152527000Y-111125000D02*
X152311100Y-111340900D01*
D15*
X148590000Y-105410000D02*
X148590000Y-102031800D01*
D16*
X152527000Y-104902000D02*
X152527000Y-106172000D01*
X139065000Y-108585000D02*
X137160000Y-108585000D01*
X140970000Y-117602000D02*
X139827000Y-117602000D01*
D15*
X146050000Y-104140000D02*
X146050000Y-102031800D01*
%TD*%
%TA.AperFunction,NonConductor*%
G36*
X153607500Y-97172113D02*
G01*
X153652887Y-97217500D01*
X153669500Y-97279500D01*
X153669500Y-120525500D01*
X153652887Y-120587500D01*
X153607500Y-120632887D01*
X153545500Y-120649500D01*
X128394500Y-120649500D01*
X128332500Y-120632887D01*
X128287113Y-120587500D01*
X128270500Y-120525500D01*
X128270500Y-115570000D01*
X130089340Y-115570000D01*
X130109936Y-115805407D01*
X130134501Y-115897085D01*
X130171097Y-116033663D01*
X130270965Y-116247830D01*
X130406505Y-116441401D01*
X130573599Y-116608495D01*
X130766415Y-116743506D01*
X130804362Y-116786095D01*
X130819227Y-116841169D01*
X130819438Y-116847858D01*
X130819500Y-116851768D01*
X130819500Y-116879349D01*
X130820003Y-116883334D01*
X130820918Y-116894967D01*
X130822290Y-116938626D01*
X130827879Y-116957860D01*
X130831825Y-116976916D01*
X130834335Y-116996792D01*
X130850414Y-117037404D01*
X130854197Y-117048451D01*
X130866382Y-117090391D01*
X130876580Y-117107635D01*
X130885136Y-117125100D01*
X130892514Y-117143732D01*
X130903016Y-117158187D01*
X130918180Y-117179059D01*
X130924593Y-117188822D01*
X130946826Y-117226416D01*
X130946829Y-117226419D01*
X130946830Y-117226420D01*
X130960995Y-117240585D01*
X130973627Y-117255375D01*
X130985406Y-117271587D01*
X131019058Y-117299426D01*
X131027699Y-117307289D01*
X131522038Y-117801629D01*
X131546277Y-117835926D01*
X131557678Y-117876348D01*
X131575326Y-118044257D01*
X131633820Y-118224284D01*
X131728466Y-118388216D01*
X131855129Y-118528889D01*
X132008269Y-118640151D01*
X132181197Y-118717144D01*
X132366352Y-118756500D01*
X132366354Y-118756500D01*
X132555646Y-118756500D01*
X132555648Y-118756500D01*
X132679084Y-118730262D01*
X132740803Y-118717144D01*
X132913730Y-118640151D01*
X132923599Y-118632981D01*
X133066870Y-118528889D01*
X133193533Y-118388216D01*
X133288179Y-118224284D01*
X133288178Y-118224284D01*
X133346674Y-118044256D01*
X133366460Y-117856000D01*
X133346674Y-117667744D01*
X133288179Y-117487716D01*
X133288179Y-117487715D01*
X133193533Y-117323783D01*
X133066871Y-117183112D01*
X133014163Y-117144817D01*
X132974850Y-117097295D01*
X132963294Y-117036713D01*
X132982352Y-116978056D01*
X133027312Y-116935837D01*
X133087049Y-116920499D01*
X133087118Y-116920499D01*
X133087127Y-116920500D01*
X134882872Y-116920499D01*
X134942483Y-116914091D01*
X135077331Y-116863796D01*
X135192546Y-116777546D01*
X135278796Y-116662331D01*
X135329091Y-116527483D01*
X135335500Y-116467873D01*
X135335500Y-116444500D01*
X135352113Y-116382500D01*
X135397500Y-116337113D01*
X135459500Y-116320500D01*
X135781770Y-116320500D01*
X135829223Y-116329939D01*
X135869451Y-116356819D01*
X138616269Y-119103637D01*
X138628051Y-119117270D01*
X138642389Y-119136529D01*
X138680337Y-119168372D01*
X138688311Y-119175680D01*
X138692221Y-119179590D01*
X138716537Y-119198816D01*
X138719336Y-119201096D01*
X138777752Y-119250113D01*
X138794179Y-119260578D01*
X138863320Y-119292819D01*
X138866567Y-119294391D01*
X138934699Y-119328609D01*
X138953087Y-119335000D01*
X138954323Y-119335255D01*
X138954327Y-119335257D01*
X139027895Y-119350447D01*
X139031242Y-119351189D01*
X139104279Y-119368500D01*
X139104281Y-119368500D01*
X139105509Y-119368791D01*
X139124878Y-119370770D01*
X139126140Y-119370733D01*
X139126144Y-119370734D01*
X139198533Y-119368627D01*
X139201131Y-119368552D01*
X139204737Y-119368500D01*
X141414294Y-119368500D01*
X141432264Y-119369809D01*
X141436320Y-119370402D01*
X141456023Y-119373289D01*
X141505368Y-119368972D01*
X141516176Y-119368500D01*
X141521706Y-119368500D01*
X141521709Y-119368500D01*
X141552550Y-119364894D01*
X141556031Y-119364539D01*
X141630797Y-119357999D01*
X141630797Y-119357998D01*
X141632052Y-119357889D01*
X141651062Y-119353674D01*
X141652250Y-119353241D01*
X141652255Y-119353241D01*
X141722820Y-119327557D01*
X141726095Y-119326419D01*
X141797334Y-119302814D01*
X141797336Y-119302812D01*
X141798536Y-119302415D01*
X141816063Y-119293929D01*
X141817112Y-119293238D01*
X141817117Y-119293237D01*
X141879806Y-119252005D01*
X141882798Y-119250099D01*
X141946656Y-119210712D01*
X141946656Y-119210711D01*
X141947729Y-119210050D01*
X141962824Y-119197753D01*
X141963692Y-119196832D01*
X141963696Y-119196830D01*
X142015184Y-119142254D01*
X142017630Y-119139736D01*
X142567186Y-118590180D01*
X142615007Y-118560444D01*
X142671051Y-118554924D01*
X142723756Y-118574761D01*
X142762252Y-118615863D01*
X142772890Y-118634289D01*
X142777468Y-118642217D01*
X142904129Y-118782889D01*
X143057269Y-118894151D01*
X143230197Y-118971144D01*
X143415352Y-119010500D01*
X143415354Y-119010500D01*
X143604646Y-119010500D01*
X143604648Y-119010500D01*
X143728083Y-118984262D01*
X143789803Y-118971144D01*
X143962730Y-118894151D01*
X143976449Y-118884183D01*
X144011018Y-118866569D01*
X144049337Y-118860500D01*
X147232279Y-118860500D01*
X147294554Y-118860500D01*
X147301764Y-118860710D01*
X147363934Y-118864331D01*
X147363934Y-118864330D01*
X147363935Y-118864331D01*
X147374976Y-118862384D01*
X147396510Y-118860500D01*
X148502279Y-118860500D01*
X148564554Y-118860500D01*
X148571764Y-118860710D01*
X148633934Y-118864331D01*
X148633934Y-118864330D01*
X148633935Y-118864331D01*
X148644976Y-118862384D01*
X148666510Y-118860500D01*
X149923294Y-118860500D01*
X149941264Y-118861809D01*
X149945191Y-118862384D01*
X149965023Y-118865289D01*
X150014368Y-118860972D01*
X150025176Y-118860500D01*
X150030706Y-118860500D01*
X150030709Y-118860500D01*
X150061550Y-118856894D01*
X150065031Y-118856539D01*
X150139797Y-118849999D01*
X150139797Y-118849998D01*
X150141052Y-118849889D01*
X150160062Y-118845674D01*
X150161250Y-118845241D01*
X150161255Y-118845241D01*
X150231820Y-118819557D01*
X150235095Y-118818419D01*
X150306334Y-118794814D01*
X150306336Y-118794812D01*
X150307536Y-118794415D01*
X150325063Y-118785929D01*
X150326112Y-118785238D01*
X150326117Y-118785237D01*
X150388806Y-118744005D01*
X150391798Y-118742099D01*
X150455656Y-118702712D01*
X150455656Y-118702711D01*
X150456729Y-118702050D01*
X150471824Y-118689753D01*
X150472692Y-118688832D01*
X150472696Y-118688830D01*
X150524185Y-118634253D01*
X150526631Y-118631735D01*
X153012638Y-116145727D01*
X153026256Y-116133957D01*
X153045530Y-116119610D01*
X153077382Y-116081649D01*
X153084668Y-116073697D01*
X153088590Y-116069777D01*
X153107859Y-116045405D01*
X153110054Y-116042711D01*
X153158302Y-115985214D01*
X153158302Y-115985212D01*
X153159117Y-115984242D01*
X153169566Y-115967840D01*
X153170105Y-115966682D01*
X153170110Y-115966677D01*
X153201832Y-115898647D01*
X153203348Y-115895516D01*
X153237040Y-115828433D01*
X153237040Y-115828429D01*
X153237610Y-115827296D01*
X153243999Y-115808917D01*
X153244256Y-115807673D01*
X153259431Y-115734171D01*
X153260186Y-115730767D01*
X153277500Y-115657721D01*
X153277500Y-115657719D01*
X153277790Y-115656495D01*
X153279769Y-115637123D01*
X153279732Y-115635859D01*
X153279733Y-115635856D01*
X153277552Y-115560889D01*
X153277500Y-115557284D01*
X153277500Y-113817446D01*
X153277710Y-113810236D01*
X153281331Y-113748065D01*
X153279384Y-113737023D01*
X153277500Y-113715490D01*
X153277500Y-112547446D01*
X153277710Y-112540236D01*
X153281331Y-112478065D01*
X153279384Y-112467023D01*
X153277500Y-112445490D01*
X153277500Y-111214342D01*
X153279770Y-111192120D01*
X153279733Y-111190858D01*
X153279734Y-111190855D01*
X153277552Y-111115868D01*
X153277500Y-111112262D01*
X153277500Y-110007446D01*
X153277710Y-110000236D01*
X153281331Y-109938065D01*
X153279384Y-109927023D01*
X153277500Y-109905490D01*
X153277500Y-108737446D01*
X153277710Y-108730236D01*
X153281331Y-108668065D01*
X153279384Y-108657023D01*
X153277500Y-108635490D01*
X153277500Y-107467446D01*
X153277710Y-107460236D01*
X153281331Y-107398065D01*
X153279384Y-107387023D01*
X153277500Y-107365490D01*
X153277500Y-106197446D01*
X153277710Y-106190236D01*
X153281331Y-106128065D01*
X153279384Y-106117023D01*
X153277500Y-106095490D01*
X153277500Y-104927446D01*
X153277710Y-104920236D01*
X153281331Y-104858065D01*
X153279384Y-104847023D01*
X153277500Y-104825490D01*
X153277500Y-102298706D01*
X153278809Y-102280736D01*
X153279338Y-102277118D01*
X153282289Y-102256977D01*
X153277971Y-102207633D01*
X153277500Y-102196827D01*
X153277500Y-102191291D01*
X153276666Y-102184159D01*
X153273897Y-102160471D01*
X153273534Y-102156915D01*
X153266888Y-102080942D01*
X153262674Y-102061935D01*
X153262241Y-102060745D01*
X153236571Y-101990217D01*
X153235424Y-101986917D01*
X153211814Y-101915665D01*
X153211812Y-101915662D01*
X153211415Y-101914463D01*
X153202929Y-101896936D01*
X153202237Y-101895884D01*
X153202237Y-101895883D01*
X153160994Y-101833176D01*
X153159099Y-101830201D01*
X153119711Y-101766344D01*
X153119047Y-101765267D01*
X153106748Y-101750170D01*
X153051272Y-101697831D01*
X153048685Y-101695318D01*
X150562728Y-99209360D01*
X150550946Y-99195727D01*
X150536609Y-99176469D01*
X150498666Y-99144631D01*
X150490691Y-99137323D01*
X150486782Y-99133414D01*
X150486777Y-99133409D01*
X150462423Y-99114152D01*
X150459647Y-99111890D01*
X150401251Y-99062890D01*
X150384821Y-99052422D01*
X150315691Y-99020186D01*
X150312447Y-99018615D01*
X150244306Y-98984394D01*
X150225903Y-98977997D01*
X150151211Y-98962574D01*
X150147692Y-98961794D01*
X150073490Y-98944208D01*
X150054121Y-98942229D01*
X149977869Y-98944448D01*
X149974263Y-98944500D01*
X140398707Y-98944500D01*
X140380738Y-98943191D01*
X140356977Y-98939711D01*
X140307631Y-98944028D01*
X140296824Y-98944500D01*
X140291291Y-98944500D01*
X140260501Y-98948098D01*
X140256917Y-98948464D01*
X140180961Y-98955109D01*
X140161921Y-98959330D01*
X140090232Y-98985421D01*
X140086831Y-98986603D01*
X140014474Y-99010580D01*
X139996927Y-99019075D01*
X139933221Y-99060975D01*
X139930181Y-99062912D01*
X139865280Y-99102944D01*
X139850164Y-99115257D01*
X139797831Y-99170726D01*
X139795319Y-99173312D01*
X135427584Y-103541047D01*
X135367797Y-103574188D01*
X135299532Y-103570610D01*
X135243537Y-103531402D01*
X135216827Y-103468478D01*
X135227521Y-103400961D01*
X135258903Y-103333663D01*
X135320063Y-103105408D01*
X135340659Y-102870000D01*
X135320063Y-102634592D01*
X135258903Y-102406337D01*
X135159035Y-102192171D01*
X135023495Y-101998599D01*
X134856401Y-101831505D01*
X134662830Y-101695965D01*
X134448663Y-101596097D01*
X134372849Y-101575783D01*
X134220407Y-101534936D01*
X133985000Y-101514340D01*
X133749592Y-101534936D01*
X133521336Y-101596097D01*
X133307170Y-101695965D01*
X133113598Y-101831505D01*
X132946505Y-101998598D01*
X132816575Y-102184159D01*
X132772257Y-102223025D01*
X132715000Y-102237036D01*
X132657743Y-102223025D01*
X132613425Y-102184159D01*
X132483494Y-101998598D01*
X132316404Y-101831508D01*
X132316401Y-101831505D01*
X132122830Y-101695965D01*
X131908663Y-101596097D01*
X131832849Y-101575783D01*
X131680407Y-101534936D01*
X131445000Y-101514340D01*
X131209592Y-101534936D01*
X130981336Y-101596097D01*
X130767170Y-101695965D01*
X130573598Y-101831505D01*
X130406505Y-101998598D01*
X130270965Y-102192170D01*
X130171097Y-102406336D01*
X130109936Y-102634592D01*
X130089340Y-102870000D01*
X130109936Y-103105407D01*
X130154709Y-103272501D01*
X130171097Y-103333663D01*
X130270965Y-103547830D01*
X130406505Y-103741401D01*
X130573599Y-103908495D01*
X130759160Y-104038426D01*
X130798024Y-104082743D01*
X130812035Y-104140000D01*
X130798024Y-104197257D01*
X130759159Y-104241575D01*
X130573595Y-104371508D01*
X130406505Y-104538598D01*
X130270965Y-104732170D01*
X130171097Y-104946336D01*
X130109936Y-105174592D01*
X130089340Y-105410000D01*
X130109936Y-105645407D01*
X130146135Y-105780503D01*
X130171097Y-105873663D01*
X130270965Y-106087830D01*
X130406505Y-106281401D01*
X130573599Y-106448495D01*
X130759160Y-106578426D01*
X130798024Y-106622743D01*
X130812035Y-106680000D01*
X130798024Y-106737257D01*
X130759158Y-106781575D01*
X130589595Y-106900305D01*
X130573595Y-106911508D01*
X130406505Y-107078598D01*
X130270965Y-107272170D01*
X130171097Y-107486336D01*
X130109936Y-107714592D01*
X130089340Y-107949999D01*
X130109936Y-108185407D01*
X130154709Y-108352502D01*
X130171097Y-108413663D01*
X130270965Y-108627830D01*
X130406505Y-108821401D01*
X130573599Y-108988495D01*
X130759160Y-109118426D01*
X130798024Y-109162743D01*
X130812035Y-109220000D01*
X130798024Y-109277257D01*
X130759159Y-109321575D01*
X130573595Y-109451508D01*
X130406505Y-109618598D01*
X130270965Y-109812170D01*
X130171097Y-110026336D01*
X130109936Y-110254592D01*
X130089340Y-110489999D01*
X130109936Y-110725407D01*
X130154709Y-110892501D01*
X130171097Y-110953663D01*
X130270965Y-111167830D01*
X130406505Y-111361401D01*
X130573599Y-111528495D01*
X130759160Y-111658426D01*
X130798024Y-111702743D01*
X130812035Y-111760000D01*
X130798024Y-111817257D01*
X130759160Y-111861574D01*
X130575285Y-111990325D01*
X130573595Y-111991508D01*
X130406505Y-112158598D01*
X130270965Y-112352170D01*
X130171097Y-112566336D01*
X130109936Y-112794592D01*
X130089340Y-113030000D01*
X130109936Y-113265407D01*
X130126363Y-113326713D01*
X130171097Y-113493663D01*
X130270965Y-113707830D01*
X130406505Y-113901401D01*
X130573599Y-114068495D01*
X130759160Y-114198426D01*
X130798024Y-114242743D01*
X130812035Y-114300000D01*
X130798024Y-114357257D01*
X130759159Y-114401575D01*
X130573595Y-114531508D01*
X130406505Y-114698598D01*
X130270965Y-114892170D01*
X130171097Y-115106336D01*
X130109936Y-115334592D01*
X130089340Y-115570000D01*
X128270500Y-115570000D01*
X128270500Y-97279500D01*
X128287113Y-97217500D01*
X128332500Y-97172113D01*
X128394500Y-97155500D01*
X153545500Y-97155500D01*
X153607500Y-97172113D01*
G37*
%TD.AperFunction*%
%TA.AperFunction,NonConductor*%
G36*
X140067865Y-101171431D02*
G01*
X140105465Y-101215454D01*
X140118980Y-101271749D01*
X140118980Y-102745880D01*
X140102367Y-102807880D01*
X140056980Y-102853267D01*
X139994980Y-102869880D01*
X138520849Y-102869880D01*
X138464554Y-102856365D01*
X138420531Y-102818765D01*
X138398376Y-102765278D01*
X138402918Y-102707562D01*
X138433168Y-102658199D01*
X139907299Y-101184068D01*
X139956662Y-101153818D01*
X140014378Y-101149276D01*
X140067865Y-101171431D01*
G37*
%TD.AperFunction*%
%TA.AperFunction,NonConductor*%
G36*
X149672223Y-100454939D02*
G01*
X149712451Y-100481819D01*
X150508019Y-101277387D01*
X150539534Y-101330889D01*
X150541160Y-101392962D01*
X150512488Y-101448040D01*
X150397466Y-101575783D01*
X150302820Y-101739715D01*
X150244326Y-101919742D01*
X150224540Y-102108000D01*
X150244326Y-102296257D01*
X150302820Y-102476284D01*
X150378342Y-102607091D01*
X150394483Y-102658283D01*
X150387477Y-102711501D01*
X150358638Y-102756770D01*
X150281845Y-102833563D01*
X150241620Y-102860441D01*
X150194167Y-102869880D01*
X149565020Y-102869880D01*
X149503020Y-102853267D01*
X149457633Y-102807880D01*
X149441020Y-102745880D01*
X149441020Y-100986170D01*
X149426024Y-100848286D01*
X149366919Y-100672870D01*
X149366919Y-100672869D01*
X149343187Y-100633427D01*
X149325450Y-100571179D01*
X149341497Y-100508472D01*
X149386955Y-100462394D01*
X149449439Y-100445500D01*
X149624770Y-100445500D01*
X149672223Y-100454939D01*
G37*
%TD.AperFunction*%
%TA.AperFunction,NonConductor*%
G36*
X144043045Y-103793328D02*
G01*
X144084397Y-103849283D01*
X144089104Y-103918701D01*
X144055684Y-103979724D01*
X143976278Y-104059131D01*
X143787625Y-104247783D01*
X143729942Y-104280418D01*
X143663690Y-104278683D01*
X143607794Y-104243073D01*
X143472150Y-104092426D01*
X143473528Y-104091185D01*
X143446716Y-104059131D01*
X143434441Y-104000019D01*
X143451535Y-103942116D01*
X143493947Y-103899149D01*
X143551621Y-103881303D01*
X143648492Y-103876051D01*
X143826852Y-103826529D01*
X143909920Y-103782488D01*
X143978067Y-103768453D01*
X144043045Y-103793328D01*
G37*
%TD.AperFunction*%
%TA.AperFunction,NonConductor*%
G36*
X132772257Y-103516975D02*
G01*
X132816573Y-103555839D01*
X132946505Y-103741401D01*
X133113599Y-103908495D01*
X133299160Y-104038426D01*
X133338024Y-104082743D01*
X133352035Y-104140000D01*
X133338024Y-104197257D01*
X133299159Y-104241575D01*
X133113595Y-104371508D01*
X132946508Y-104538595D01*
X132946507Y-104538597D01*
X132946505Y-104538599D01*
X132935111Y-104554871D01*
X132816574Y-104724160D01*
X132772255Y-104763026D01*
X132714999Y-104777036D01*
X132657742Y-104763025D01*
X132613426Y-104724161D01*
X132483495Y-104538599D01*
X132316401Y-104371505D01*
X132130839Y-104241573D01*
X132091975Y-104197257D01*
X132077964Y-104140000D01*
X132091975Y-104082743D01*
X132130839Y-104038426D01*
X132316401Y-103908495D01*
X132483495Y-103741401D01*
X132613426Y-103555839D01*
X132657743Y-103516975D01*
X132715000Y-103502964D01*
X132772257Y-103516975D01*
G37*
%TD.AperFunction*%
%TA.AperFunction,NonConductor*%
G36*
X141638506Y-103656348D02*
G01*
X141673304Y-103678147D01*
X141674651Y-103676162D01*
X141839023Y-103787610D01*
X141936705Y-103826529D01*
X142010986Y-103856125D01*
X142101523Y-103870968D01*
X142204999Y-103887933D01*
X142264615Y-103915286D01*
X142301937Y-103969224D01*
X142306523Y-104034655D01*
X142277088Y-104093271D01*
X142142466Y-104242783D01*
X142047820Y-104406715D01*
X141989326Y-104586742D01*
X141985000Y-104627905D01*
X141974042Y-104732170D01*
X141971679Y-104754649D01*
X141960279Y-104795070D01*
X141936039Y-104829368D01*
X141239339Y-105526068D01*
X141180932Y-105558882D01*
X141113979Y-105556524D01*
X141058025Y-105519682D01*
X141029402Y-105459111D01*
X141036465Y-105392490D01*
X141105226Y-105219912D01*
X141120066Y-105129391D01*
X141135173Y-105037245D01*
X141125151Y-104852408D01*
X141075629Y-104674048D01*
X140988923Y-104510503D01*
X140929146Y-104440127D01*
X140902091Y-104384310D01*
X140905455Y-104322373D01*
X140927249Y-104287597D01*
X140925262Y-104286250D01*
X141000858Y-104174752D01*
X141036710Y-104121875D01*
X141079709Y-104013953D01*
X141110217Y-103937386D01*
X141111537Y-103937912D01*
X141135000Y-103888948D01*
X141194126Y-103852273D01*
X141286852Y-103826529D01*
X141450397Y-103739823D01*
X141520771Y-103680046D01*
X141576578Y-103652993D01*
X141638506Y-103656348D01*
G37*
%TD.AperFunction*%
%TA.AperFunction,NonConductor*%
G36*
X147912119Y-104579380D02*
G01*
X147950629Y-104623618D01*
X147964500Y-104680606D01*
X147964500Y-105099547D01*
X147955061Y-105147000D01*
X147928181Y-105187228D01*
X145984612Y-107130795D01*
X145943382Y-107158085D01*
X145894767Y-107167095D01*
X145846496Y-107156394D01*
X145694800Y-107088854D01*
X145509648Y-107049500D01*
X145509646Y-107049500D01*
X145320354Y-107049500D01*
X145320352Y-107049500D01*
X145135197Y-107088855D01*
X144950364Y-107171149D01*
X144949316Y-107168796D01*
X144904233Y-107185431D01*
X144838207Y-107172300D01*
X144788773Y-107126605D01*
X144770500Y-107061814D01*
X144770500Y-105085452D01*
X144779939Y-105037999D01*
X144806816Y-104997773D01*
X145137376Y-104667212D01*
X145195056Y-104634579D01*
X145261310Y-104636315D01*
X145317206Y-104671926D01*
X145335307Y-104692030D01*
X145363472Y-104745003D01*
X145363472Y-104804999D01*
X145335305Y-104857972D01*
X145317466Y-104877783D01*
X145222820Y-105041715D01*
X145164326Y-105221742D01*
X145144540Y-105410000D01*
X145164326Y-105598257D01*
X145222820Y-105778284D01*
X145317466Y-105942216D01*
X145444129Y-106082889D01*
X145597269Y-106194151D01*
X145770197Y-106271144D01*
X145955352Y-106310500D01*
X145955354Y-106310500D01*
X146144646Y-106310500D01*
X146144648Y-106310500D01*
X146281547Y-106281401D01*
X146329803Y-106271144D01*
X146502730Y-106194151D01*
X146608888Y-106117023D01*
X146655870Y-106082889D01*
X146782533Y-105942216D01*
X146877179Y-105778284D01*
X146898775Y-105711819D01*
X146935674Y-105598256D01*
X146953322Y-105430341D01*
X146964720Y-105389927D01*
X146988957Y-105355632D01*
X147703789Y-104640800D01*
X147719886Y-104627905D01*
X147721874Y-104625787D01*
X147721877Y-104625786D01*
X147750109Y-104595721D01*
X147799229Y-104563676D01*
X147857585Y-104557789D01*
X147912119Y-104579380D01*
G37*
%TD.AperFunction*%
%TA.AperFunction,NonConductor*%
G36*
X132772257Y-106056975D02*
G01*
X132816573Y-106095839D01*
X132946505Y-106281401D01*
X133113599Y-106448495D01*
X133299160Y-106578426D01*
X133338024Y-106622743D01*
X133352035Y-106680000D01*
X133338024Y-106737257D01*
X133299158Y-106781575D01*
X133129595Y-106900305D01*
X133113595Y-106911508D01*
X132946508Y-107078595D01*
X132946507Y-107078597D01*
X132946505Y-107078599D01*
X132939324Y-107088855D01*
X132816574Y-107264160D01*
X132772255Y-107303026D01*
X132714999Y-107317036D01*
X132657742Y-107303025D01*
X132613426Y-107264161D01*
X132483495Y-107078599D01*
X132316401Y-106911505D01*
X132130839Y-106781573D01*
X132091975Y-106737257D01*
X132077964Y-106680000D01*
X132091975Y-106622743D01*
X132130839Y-106578426D01*
X132316401Y-106448495D01*
X132483495Y-106281401D01*
X132613426Y-106095839D01*
X132657743Y-106056975D01*
X132715000Y-106042964D01*
X132772257Y-106056975D01*
G37*
%TD.AperFunction*%
%TA.AperFunction,NonConductor*%
G36*
X137416639Y-103848901D02*
G01*
X137449034Y-103904000D01*
X137486170Y-104037751D01*
X137572877Y-104201297D01*
X137632653Y-104271672D01*
X137659706Y-104327479D01*
X137656351Y-104389406D01*
X137634551Y-104424204D01*
X137636538Y-104425551D01*
X137525088Y-104589927D01*
X137456574Y-104761887D01*
X137426627Y-104944553D01*
X137436648Y-105129391D01*
X137474114Y-105264326D01*
X137476412Y-105320867D01*
X137453350Y-105372541D01*
X137409729Y-105408588D01*
X137354634Y-105421500D01*
X137096706Y-105421500D01*
X137078736Y-105420191D01*
X137064853Y-105418157D01*
X137054977Y-105416711D01*
X137054976Y-105416711D01*
X137005631Y-105421028D01*
X136994824Y-105421500D01*
X136989291Y-105421500D01*
X136958501Y-105425098D01*
X136954917Y-105425464D01*
X136878961Y-105432109D01*
X136859921Y-105436330D01*
X136788232Y-105462421D01*
X136784831Y-105463603D01*
X136712474Y-105487580D01*
X136694927Y-105496075D01*
X136631221Y-105537975D01*
X136628181Y-105539912D01*
X136563280Y-105579944D01*
X136548165Y-105592256D01*
X136495832Y-105647725D01*
X136493320Y-105650311D01*
X135658359Y-106485271D01*
X135644728Y-106497051D01*
X135625469Y-106511389D01*
X135593633Y-106549329D01*
X135586341Y-106557289D01*
X135582408Y-106561222D01*
X135563176Y-106585545D01*
X135560902Y-106588337D01*
X135511894Y-106646744D01*
X135501418Y-106663187D01*
X135469192Y-106732294D01*
X135467622Y-106735536D01*
X135433393Y-106803692D01*
X135426996Y-106822098D01*
X135411573Y-106896788D01*
X135410793Y-106900305D01*
X135393208Y-106974505D01*
X135391229Y-106993878D01*
X135393448Y-107070131D01*
X135393500Y-107073737D01*
X135393500Y-107215655D01*
X135375789Y-107279519D01*
X135327716Y-107325140D01*
X135263013Y-107339485D01*
X135200163Y-107318458D01*
X135167109Y-107279759D01*
X135165257Y-107281057D01*
X135059435Y-107129927D01*
X135023495Y-107078599D01*
X134856401Y-106911505D01*
X134670839Y-106781573D01*
X134631975Y-106737257D01*
X134617964Y-106680000D01*
X134631975Y-106622743D01*
X134670839Y-106578426D01*
X134856401Y-106448495D01*
X135023495Y-106281401D01*
X135159035Y-106087830D01*
X135258903Y-105873663D01*
X135265383Y-105849476D01*
X135297474Y-105793892D01*
X137241875Y-103849491D01*
X137297190Y-103817472D01*
X137361106Y-103817255D01*
X137416639Y-103848901D01*
G37*
%TD.AperFunction*%
%TA.AperFunction,NonConductor*%
G36*
X132772257Y-108596975D02*
G01*
X132816573Y-108635839D01*
X132946505Y-108821401D01*
X133113599Y-108988495D01*
X133299160Y-109118426D01*
X133338024Y-109162743D01*
X133352035Y-109220000D01*
X133338024Y-109277257D01*
X133299159Y-109321575D01*
X133113595Y-109451508D01*
X132946505Y-109618598D01*
X132816575Y-109804159D01*
X132772257Y-109843025D01*
X132715000Y-109857036D01*
X132657743Y-109843025D01*
X132613425Y-109804159D01*
X132519435Y-109669927D01*
X132483495Y-109618599D01*
X132316401Y-109451505D01*
X132130839Y-109321573D01*
X132091975Y-109277257D01*
X132077964Y-109220000D01*
X132091975Y-109162743D01*
X132130839Y-109118426D01*
X132316401Y-108988495D01*
X132483495Y-108821401D01*
X132613426Y-108635839D01*
X132657743Y-108596975D01*
X132715000Y-108582964D01*
X132772257Y-108596975D01*
G37*
%TD.AperFunction*%
%TA.AperFunction,NonConductor*%
G36*
X135327713Y-108574859D02*
G01*
X135375788Y-108620480D01*
X135393500Y-108684345D01*
X135393500Y-109755655D01*
X135375789Y-109819519D01*
X135327716Y-109865140D01*
X135263013Y-109879485D01*
X135200163Y-109858458D01*
X135167109Y-109819759D01*
X135165257Y-109821057D01*
X135059435Y-109669927D01*
X135023495Y-109618599D01*
X134856401Y-109451505D01*
X134670839Y-109321573D01*
X134631975Y-109277257D01*
X134617964Y-109220000D01*
X134631975Y-109162743D01*
X134670839Y-109118426D01*
X134856401Y-108988495D01*
X135023495Y-108821401D01*
X135159035Y-108627830D01*
X135159036Y-108627826D01*
X135165257Y-108618943D01*
X135167110Y-108620241D01*
X135200158Y-108581546D01*
X135263008Y-108560515D01*
X135327713Y-108574859D01*
G37*
%TD.AperFunction*%
%TA.AperFunction,NonConductor*%
G36*
X135327713Y-111114859D02*
G01*
X135375788Y-111160480D01*
X135393500Y-111224345D01*
X135393500Y-111651770D01*
X135384061Y-111699223D01*
X135357181Y-111739451D01*
X135068445Y-112028187D01*
X135012858Y-112060281D01*
X134948670Y-112060281D01*
X134893083Y-112028187D01*
X134856404Y-111991508D01*
X134856404Y-111991507D01*
X134856401Y-111991505D01*
X134670839Y-111861573D01*
X134631974Y-111817255D01*
X134617964Y-111759999D01*
X134631975Y-111702742D01*
X134670837Y-111658428D01*
X134856401Y-111528495D01*
X135023495Y-111361401D01*
X135159035Y-111167830D01*
X135159036Y-111167826D01*
X135165257Y-111158943D01*
X135167110Y-111160241D01*
X135200158Y-111121546D01*
X135263008Y-111100515D01*
X135327713Y-111114859D01*
G37*
%TD.AperFunction*%
%TA.AperFunction,NonConductor*%
G36*
X132772257Y-111136975D02*
G01*
X132816573Y-111175839D01*
X132946505Y-111361401D01*
X133113599Y-111528495D01*
X133299160Y-111658426D01*
X133338024Y-111702743D01*
X133352035Y-111760000D01*
X133338024Y-111817257D01*
X133299160Y-111861574D01*
X133115285Y-111990325D01*
X133113595Y-111991508D01*
X132946505Y-112158598D01*
X132816575Y-112344159D01*
X132772257Y-112383025D01*
X132715000Y-112397036D01*
X132657743Y-112383025D01*
X132613425Y-112344159D01*
X132519435Y-112209927D01*
X132483495Y-112158599D01*
X132316401Y-111991505D01*
X132130839Y-111861573D01*
X132091974Y-111817255D01*
X132077964Y-111759999D01*
X132091975Y-111702742D01*
X132130837Y-111658428D01*
X132316401Y-111528495D01*
X132483495Y-111361401D01*
X132613426Y-111175839D01*
X132657743Y-111136975D01*
X132715000Y-111122964D01*
X132772257Y-111136975D01*
G37*
%TD.AperFunction*%
%TA.AperFunction,NonConductor*%
G36*
X143451793Y-105552700D02*
G01*
X143501227Y-105598395D01*
X143519500Y-105663186D01*
X143519500Y-109156313D01*
X143511264Y-109200751D01*
X143487652Y-109239282D01*
X143454545Y-109276051D01*
X143412464Y-109322786D01*
X143317820Y-109486715D01*
X143259326Y-109666742D01*
X143239540Y-109854999D01*
X143239540Y-109855000D01*
X143240606Y-109865140D01*
X143259326Y-110043257D01*
X143317820Y-110223284D01*
X143412466Y-110387216D01*
X143539129Y-110527889D01*
X143692269Y-110639151D01*
X143865197Y-110716144D01*
X144050352Y-110755500D01*
X144050354Y-110755500D01*
X144239646Y-110755500D01*
X144239648Y-110755500D01*
X144381219Y-110725408D01*
X144424803Y-110716144D01*
X144597730Y-110639151D01*
X144621788Y-110621672D01*
X144750870Y-110527889D01*
X144784987Y-110489999D01*
X144877533Y-110387216D01*
X144972179Y-110223284D01*
X145030674Y-110043256D01*
X145050460Y-109855000D01*
X145030674Y-109666744D01*
X144972179Y-109486716D01*
X144972179Y-109486715D01*
X144877535Y-109322786D01*
X144836540Y-109277257D01*
X144802347Y-109239282D01*
X144778736Y-109200751D01*
X144770500Y-109156313D01*
X144770500Y-108838186D01*
X144788773Y-108773395D01*
X144838207Y-108727700D01*
X144904233Y-108714569D01*
X144949316Y-108731203D01*
X144950364Y-108728851D01*
X145135197Y-108811144D01*
X145320352Y-108850500D01*
X145320354Y-108850500D01*
X145509646Y-108850500D01*
X145509648Y-108850500D01*
X145646547Y-108821401D01*
X145694803Y-108811144D01*
X145867730Y-108734151D01*
X146020871Y-108622888D01*
X146028256Y-108614685D01*
X146068197Y-108585183D01*
X146116510Y-108573717D01*
X146148627Y-108572709D01*
X146167859Y-108567120D01*
X146186918Y-108563174D01*
X146193196Y-108562381D01*
X146206792Y-108560664D01*
X146247407Y-108544582D01*
X146258444Y-108540803D01*
X146300390Y-108528618D01*
X146317629Y-108518422D01*
X146335102Y-108509862D01*
X146353732Y-108502486D01*
X146389064Y-108476814D01*
X146398830Y-108470400D01*
X146436418Y-108448171D01*
X146436417Y-108448171D01*
X146436420Y-108448170D01*
X146450585Y-108434004D01*
X146465373Y-108421373D01*
X146481587Y-108409594D01*
X146509438Y-108375926D01*
X146517279Y-108367309D01*
X148304218Y-106580371D01*
X148353100Y-106550280D01*
X148410299Y-106545427D01*
X148463554Y-106566855D01*
X148501451Y-106609969D01*
X148571077Y-106741297D01*
X148583488Y-106755908D01*
X148630853Y-106811672D01*
X148657906Y-106867479D01*
X148654551Y-106929406D01*
X148632751Y-106964204D01*
X148634738Y-106965551D01*
X148523288Y-107129927D01*
X148454774Y-107301887D01*
X148424827Y-107484553D01*
X148434848Y-107669391D01*
X148484370Y-107847751D01*
X148571077Y-108011297D01*
X148630853Y-108081672D01*
X148657906Y-108137479D01*
X148654551Y-108199406D01*
X148632751Y-108234204D01*
X148634738Y-108235551D01*
X148523288Y-108399927D01*
X148454774Y-108571887D01*
X148424827Y-108754553D01*
X148434848Y-108939391D01*
X148484370Y-109117751D01*
X148571077Y-109281297D01*
X148630853Y-109351672D01*
X148657906Y-109407479D01*
X148654551Y-109469406D01*
X148632751Y-109504204D01*
X148634738Y-109505551D01*
X148523288Y-109669927D01*
X148454774Y-109841887D01*
X148424827Y-110024553D01*
X148434848Y-110209391D01*
X148484370Y-110387751D01*
X148571077Y-110551297D01*
X148630853Y-110621672D01*
X148657906Y-110677479D01*
X148654551Y-110739406D01*
X148632751Y-110774204D01*
X148634738Y-110775551D01*
X148523288Y-110939927D01*
X148454774Y-111111887D01*
X148424827Y-111294553D01*
X148434848Y-111479391D01*
X148484370Y-111657751D01*
X148571077Y-111821297D01*
X148630853Y-111891672D01*
X148657906Y-111947479D01*
X148654551Y-112009406D01*
X148632751Y-112044204D01*
X148634738Y-112045551D01*
X148523288Y-112209927D01*
X148454774Y-112381887D01*
X148424827Y-112564553D01*
X148434848Y-112749391D01*
X148484370Y-112927751D01*
X148571077Y-113091297D01*
X148630853Y-113161672D01*
X148657906Y-113217479D01*
X148654551Y-113279406D01*
X148632751Y-113314204D01*
X148634738Y-113315551D01*
X148523287Y-113479928D01*
X148449784Y-113664412D01*
X148448464Y-113663886D01*
X148424997Y-113712854D01*
X148365875Y-113749525D01*
X148273147Y-113775271D01*
X148109602Y-113861977D01*
X148039227Y-113921754D01*
X147983415Y-113948808D01*
X147921483Y-113945449D01*
X147886695Y-113923651D01*
X147885349Y-113925638D01*
X147720976Y-113814189D01*
X147549012Y-113745674D01*
X147366346Y-113715727D01*
X147366345Y-113715727D01*
X147363210Y-113715897D01*
X147181507Y-113725748D01*
X147043209Y-113764148D01*
X146977186Y-113764238D01*
X146920475Y-113730429D01*
X146889155Y-113672308D01*
X146892104Y-113606350D01*
X146928718Y-113493663D01*
X146935674Y-113472256D01*
X146955460Y-113284000D01*
X146935674Y-113095744D01*
X146881090Y-112927752D01*
X146877179Y-112915715D01*
X146782533Y-112751783D01*
X146655870Y-112611110D01*
X146502730Y-112499848D01*
X146329802Y-112422855D01*
X146144648Y-112383500D01*
X146144646Y-112383500D01*
X145955354Y-112383500D01*
X145955352Y-112383500D01*
X145770197Y-112422855D01*
X145597269Y-112499848D01*
X145444129Y-112611110D01*
X145317466Y-112751783D01*
X145222820Y-112915715D01*
X145164326Y-113095742D01*
X145144540Y-113284000D01*
X145164326Y-113472259D01*
X145207813Y-113606098D01*
X145209970Y-113675318D01*
X145174668Y-113734899D01*
X145112920Y-113766256D01*
X145043986Y-113759608D01*
X145009014Y-113745674D01*
X144826346Y-113715727D01*
X144826345Y-113715727D01*
X144823210Y-113715897D01*
X144641508Y-113725748D01*
X144463148Y-113775270D01*
X144299602Y-113861977D01*
X144229227Y-113921754D01*
X144173415Y-113948808D01*
X144111483Y-113945449D01*
X144076695Y-113923651D01*
X144075349Y-113925638D01*
X143910976Y-113814189D01*
X143739012Y-113745674D01*
X143556346Y-113715727D01*
X143556345Y-113715727D01*
X143553210Y-113715897D01*
X143371508Y-113725748D01*
X143193148Y-113775270D01*
X143029602Y-113861977D01*
X142959227Y-113921754D01*
X142903415Y-113948808D01*
X142841483Y-113945449D01*
X142806695Y-113923651D01*
X142805349Y-113925638D01*
X142640976Y-113814189D01*
X142469012Y-113745674D01*
X142286346Y-113715727D01*
X142286345Y-113715727D01*
X142283210Y-113715897D01*
X142101508Y-113725748D01*
X141923148Y-113775270D01*
X141759602Y-113861977D01*
X141689227Y-113921754D01*
X141633415Y-113948808D01*
X141571483Y-113945449D01*
X141536695Y-113923651D01*
X141535349Y-113925638D01*
X141370975Y-113814189D01*
X141186488Y-113740684D01*
X141187013Y-113739365D01*
X141138045Y-113715897D01*
X141101374Y-113656773D01*
X141075629Y-113564049D01*
X141075629Y-113564048D01*
X141011773Y-113443604D01*
X140997447Y-113390914D01*
X141007143Y-113337177D01*
X141038982Y-113292815D01*
X141086786Y-113266432D01*
X141087914Y-113266104D01*
X141106918Y-113262174D01*
X141113196Y-113261381D01*
X141126792Y-113259664D01*
X141167407Y-113243582D01*
X141178458Y-113239800D01*
X141188366Y-113236922D01*
X141222955Y-113232000D01*
X141382148Y-113232000D01*
X141505583Y-113205762D01*
X141567303Y-113192644D01*
X141740230Y-113115651D01*
X141767630Y-113095744D01*
X141893370Y-113004389D01*
X142020033Y-112863716D01*
X142114679Y-112699784D01*
X142143491Y-112611110D01*
X142173174Y-112519756D01*
X142192960Y-112331500D01*
X142188410Y-112288211D01*
X142191625Y-112244422D01*
X142196177Y-112226691D01*
X142202481Y-112208282D01*
X142204018Y-112204728D01*
X142210438Y-112189896D01*
X142217272Y-112146745D01*
X142219635Y-112135331D01*
X142230500Y-112093019D01*
X142230500Y-112072984D01*
X142232027Y-112053585D01*
X142235160Y-112033804D01*
X142231050Y-111990325D01*
X142230500Y-111978656D01*
X142230500Y-106355452D01*
X142239939Y-106307999D01*
X142266819Y-106267771D01*
X142822772Y-105711819D01*
X142863000Y-105684939D01*
X142910453Y-105675500D01*
X142969648Y-105675500D01*
X143111219Y-105645408D01*
X143154803Y-105636144D01*
X143239900Y-105598256D01*
X143339636Y-105553851D01*
X143340683Y-105556203D01*
X143385767Y-105539569D01*
X143451793Y-105552700D01*
G37*
%TD.AperFunction*%
%TA.AperFunction,NonConductor*%
G36*
X132772255Y-113676974D02*
G01*
X132816573Y-113715839D01*
X132946505Y-113901401D01*
X132946508Y-113901404D01*
X133068430Y-114023326D01*
X133099726Y-114076072D01*
X133101915Y-114137365D01*
X133074462Y-114192209D01*
X133024083Y-114227189D01*
X132892669Y-114276204D01*
X132777454Y-114362454D01*
X132691204Y-114477669D01*
X132642189Y-114609083D01*
X132607209Y-114659462D01*
X132552365Y-114686915D01*
X132491072Y-114684726D01*
X132438326Y-114653430D01*
X132316404Y-114531508D01*
X132316401Y-114531505D01*
X132130839Y-114401573D01*
X132091976Y-114357257D01*
X132077965Y-114300000D01*
X132091976Y-114242743D01*
X132130839Y-114198426D01*
X132316401Y-114068495D01*
X132483495Y-113901401D01*
X132613428Y-113715837D01*
X132657742Y-113676975D01*
X132714999Y-113662964D01*
X132772255Y-113676974D01*
G37*
%TD.AperFunction*%
%TA.AperFunction,NonConductor*%
G36*
X136358385Y-113008912D02*
G01*
X136395985Y-113052935D01*
X136409500Y-113109230D01*
X136409500Y-114704811D01*
X136397108Y-114758845D01*
X136362409Y-114802079D01*
X136312338Y-114825872D01*
X136256906Y-114825469D01*
X136231721Y-114819500D01*
X136231718Y-114819500D01*
X136230486Y-114819208D01*
X136211121Y-114817229D01*
X136134869Y-114819448D01*
X136131263Y-114819500D01*
X135459499Y-114819500D01*
X135397499Y-114802887D01*
X135352112Y-114757500D01*
X135335499Y-114695500D01*
X135335499Y-114672130D01*
X135334871Y-114666284D01*
X135329091Y-114612517D01*
X135278796Y-114477669D01*
X135192546Y-114362454D01*
X135077331Y-114276204D01*
X135015898Y-114253291D01*
X134945916Y-114227189D01*
X134895537Y-114192209D01*
X134868084Y-114137364D01*
X134870273Y-114076071D01*
X134901566Y-114023329D01*
X135023495Y-113901401D01*
X135071126Y-113833377D01*
X135115444Y-113794511D01*
X135164662Y-113782466D01*
X135164531Y-113781339D01*
X135171706Y-113780500D01*
X135171709Y-113780500D01*
X135202550Y-113776894D01*
X135206031Y-113776539D01*
X135280797Y-113769999D01*
X135280797Y-113769998D01*
X135282052Y-113769889D01*
X135301062Y-113765674D01*
X135302250Y-113765241D01*
X135302255Y-113765241D01*
X135372820Y-113739557D01*
X135376095Y-113738419D01*
X135447334Y-113714814D01*
X135447336Y-113714812D01*
X135448536Y-113714415D01*
X135466063Y-113705929D01*
X135467112Y-113705238D01*
X135467117Y-113705237D01*
X135529806Y-113664005D01*
X135532798Y-113662099D01*
X135596656Y-113622712D01*
X135596656Y-113622711D01*
X135597729Y-113622050D01*
X135612824Y-113609753D01*
X135613692Y-113608832D01*
X135613696Y-113608830D01*
X135665184Y-113554254D01*
X135667629Y-113551737D01*
X136197818Y-113021549D01*
X136247182Y-112991299D01*
X136304898Y-112986757D01*
X136358385Y-113008912D01*
G37*
%TD.AperFunction*%
%TA.AperFunction,NonConductor*%
G36*
X140056980Y-114748533D02*
G01*
X140102367Y-114793920D01*
X140118980Y-114855920D01*
X140118980Y-116533251D01*
X140105465Y-116589546D01*
X140067865Y-116633569D01*
X140014378Y-116655724D01*
X139956662Y-116651182D01*
X139907299Y-116620932D01*
X138229969Y-114943601D01*
X138199719Y-114894238D01*
X138195177Y-114836522D01*
X138217332Y-114783035D01*
X138261355Y-114745435D01*
X138317650Y-114731920D01*
X139994980Y-114731920D01*
X140056980Y-114748533D01*
G37*
%TD.AperFunction*%
%TA.AperFunction,NonConductor*%
G36*
X132607209Y-116480537D02*
G01*
X132642189Y-116530916D01*
X132680476Y-116633569D01*
X132691205Y-116662333D01*
X132780052Y-116781018D01*
X132803240Y-116835813D01*
X132798233Y-116895102D01*
X132766184Y-116945233D01*
X132714473Y-116974664D01*
X132655005Y-116976618D01*
X132555649Y-116955500D01*
X132555646Y-116955500D01*
X132496452Y-116955500D01*
X132448999Y-116946061D01*
X132408771Y-116919181D01*
X132292490Y-116802900D01*
X132263649Y-116757629D01*
X132256643Y-116704411D01*
X132272785Y-116653218D01*
X132309049Y-116613643D01*
X132310774Y-116612434D01*
X132316401Y-116608495D01*
X132438329Y-116486566D01*
X132491071Y-116455273D01*
X132552364Y-116453084D01*
X132607209Y-116480537D01*
G37*
%TD.AperFunction*%
%TA.AperFunction,NonConductor*%
G36*
X151724841Y-114683082D02*
G01*
X151762832Y-114727199D01*
X151776500Y-114783793D01*
X151776500Y-115207771D01*
X151767061Y-115255224D01*
X151740181Y-115295452D01*
X149712451Y-117323181D01*
X149672223Y-117350061D01*
X149624770Y-117359500D01*
X149464500Y-117359500D01*
X149402500Y-117342887D01*
X149357113Y-117297500D01*
X149340500Y-117235500D01*
X149340500Y-117001377D01*
X149351961Y-116949310D01*
X149353847Y-116945233D01*
X149401227Y-116842824D01*
X149441020Y-116662044D01*
X149441020Y-114855920D01*
X149457633Y-114793920D01*
X149503020Y-114748533D01*
X149565020Y-114731920D01*
X151324730Y-114731920D01*
X151393670Y-114724422D01*
X151462613Y-114716924D01*
X151612908Y-114666283D01*
X151670902Y-114661166D01*
X151724841Y-114683082D01*
G37*
%TD.AperFunction*%
M02*
